<svg width="66" height="67" viewBox="0 0 66 67" fill="none" xmlns="http://www.w3.org/2000/svg">
<g clip-path="url(#clip0_3361_8743)">
<path d="M35.9286 50.7838C32.3897 50.3713 29.1804 51.3883 26.0299 53.2131C22.6008 55.1984 19.0032 56.8198 15.477 58.593C15.3339 58.6647 15.1704 58.6818 14.7718 58.7878C15.7249 56.4531 16.5528 54.296 17.4879 52.199C18.0143 51.0159 17.7562 50.7695 16.6524 50.7838C12.7813 50.8383 8.90769 50.8125 5.03661 50.7982C2.05217 50.7896 0.0361469 48.6325 0.0259262 45.2779C-0.00473582 34.6441 -0.00473582 24.0103 0.0259262 13.3736C0.0361469 9.64377 1.97808 7.58691 5.3279 7.58691C20.7739 7.58691 36.2173 7.58691 51.6633 7.58691C55.031 7.58691 56.9091 9.6581 56.9091 13.3937C56.904 20.544 56.8861 27.6972 56.8733 34.8475C56.0327 34.4149 56.4108 33.5927 56.5028 32.9825C56.7021 31.6648 56.2473 31.0661 55.1205 30.8312C54.1674 30.6335 53.2348 30.3098 52.3047 29.9947C51.5535 29.7397 50.9632 29.8142 50.6924 30.7567C50.2657 32.2492 49.4148 32.9911 47.9711 32.7877C47.69 32.7476 47.3732 32.8336 47.0998 32.9453C46.0803 33.3636 45.3904 32.9539 44.9177 31.9312C44.9305 27.1242 44.9279 22.3172 44.9713 17.5103C44.979 16.5936 44.6545 16.393 43.9135 16.4045C41.3226 16.4446 38.7316 16.479 36.1432 16.3959C35.1058 16.3615 34.881 16.754 34.8861 17.8483C34.9244 25.3682 34.9065 32.888 34.904 40.4107C33.8334 42.121 33.7874 44.2036 33.2814 46.1201C33.1767 46.5183 33.6008 46.7847 33.9228 46.8764C35.8187 47.4006 36.0283 48.9905 35.9286 50.7867V50.7838ZM23.1579 33.4724C23.1579 35.9017 23.1758 38.331 23.1476 40.7602C23.14 41.5394 23.232 41.9749 24.0982 41.9548C26.8169 41.8947 29.5381 41.9118 32.2594 41.9548C32.9876 41.9663 33.2252 41.6769 33.2201 40.8949C33.1997 35.9389 33.192 30.9858 33.215 26.0299C33.2176 25.2163 32.962 24.9556 32.2517 24.9614C29.5305 24.9929 26.8118 24.9957 24.0905 24.9585C23.3597 24.947 23.1374 25.2507 23.1476 26.0385C23.1783 28.5165 23.1579 30.9944 23.1579 33.4695V33.4724ZM16.5195 41.9405C17.9198 41.9405 19.32 41.9319 20.7177 41.9434C21.1751 41.9462 21.5328 41.972 21.4996 41.2186C21.4408 39.8006 21.4612 38.3739 21.4842 36.953C21.497 36.1309 21.1572 35.9246 20.4724 35.9447C18.8192 35.9934 17.1634 35.9103 15.5102 35.9762C14.1739 36.0277 12.3469 35.2743 11.6341 36.297C10.9672 37.2538 11.4859 39.2133 11.3913 40.7259C11.3274 41.7829 11.7363 42.0006 12.5744 41.9605C13.8877 41.8975 15.2036 41.9434 16.5195 41.9405Z" fill="black"/>
<path d="M35.928 50.7831C36.0277 48.9869 35.8207 47.397 33.9222 46.8728C33.6003 46.784 33.1761 46.5175 33.2809 46.1165C33.7868 44.2029 33.8328 42.1202 34.9034 40.4071C36.5515 40.7509 38.0156 40.6134 38.7617 38.5737C38.7924 38.4878 38.8537 38.4076 38.9176 38.3503C39.9039 37.4708 40.0061 36.4195 39.4465 35.2048C39.0172 34.2738 39.214 33.6149 40.1185 33.1565C40.9259 32.744 41.7232 32.2513 42.4309 31.6554C43.3866 30.8476 44.1736 30.8734 44.9146 31.9333C45.3873 32.9589 46.0772 33.3685 47.0967 32.9474C47.3701 32.8357 47.6869 32.7498 47.968 32.7899C49.4117 32.9933 50.2625 32.2513 50.6893 30.7588C50.9601 29.8134 51.5503 29.7418 52.3016 29.9968C53.2316 30.3119 54.1643 30.6356 55.1174 30.8333C56.2442 31.0682 56.699 31.664 56.4997 32.9847C56.4077 33.5948 56.027 34.4142 56.8702 34.8496C57.2381 35.1704 57.6623 35.4369 57.9664 35.8207C58.9987 37.1184 60.1587 37.4507 61.5615 36.6171C62.1134 36.2877 62.5325 36.5426 62.8237 37.1356C63.1534 37.8031 63.4983 38.4591 63.8458 39.1151C65.0953 41.4814 65.1055 41.49 63.4268 43.4924C63.1355 43.839 62.9873 44.1341 63.1099 44.624C63.2377 45.1253 63.3527 45.6581 63.3373 46.1709C63.2837 47.8296 63.8279 48.9583 65.3253 49.4367C65.9666 49.6429 66.125 50.1872 65.8976 50.912C65.7009 51.5394 65.5935 52.2011 65.4275 52.8428C65.1898 53.7538 65.1183 54.8137 64.6405 55.5271C64.0707 56.3807 63.0512 55.7247 62.2335 55.7963C61.7966 55.8336 61.541 56.0312 61.3264 56.4323C61.0862 56.8821 60.8563 57.3748 60.5139 57.7071C59.4305 58.7613 59.2133 59.9387 59.9032 61.351C60.2992 62.1617 59.9875 62.6831 59.3053 63.0612C58.8096 63.3334 58.3496 63.68 57.8667 63.9808C57.1232 64.442 56.4077 65.1553 55.6207 65.2757C54.6983 65.4189 54.3789 64.147 53.7401 63.5654C53.4514 63.3047 53.1908 63.1615 52.8177 63.2618C52.3629 63.3849 51.8876 63.5941 51.443 63.5425C49.9048 63.3592 48.9671 64.0868 48.5097 65.7054C48.2772 66.5275 47.7968 66.5991 47.1018 66.3471C46.0542 65.9632 44.9784 65.6538 43.8976 65.416C42.965 65.2098 42.6073 64.7228 42.7478 63.6399C42.8347 62.9667 43.1336 62.1159 42.6047 61.5945C41.6874 60.6893 40.7011 59.8356 39.6356 59.1796C39.2906 58.9676 38.5854 59.3858 38.0872 59.6236C37.2261 60.0332 36.6639 59.8757 36.2551 58.8587C35.8718 57.9076 35.4298 56.9594 34.8676 56.1315C34.1037 55.0085 34.1777 54.1778 35.2484 53.4444C36.1912 52.797 36.434 51.9118 35.9255 50.7917L35.928 50.7831ZM49.5829 55.1862C53.1269 55.2091 55.9069 52.1324 55.9146 48.1762C55.9222 44.2344 53.1294 41.0889 49.6212 41.0889C46.1922 41.0889 43.3738 44.2229 43.3431 48.0645C43.3125 52.0407 46.0465 55.1632 49.5829 55.1862Z" fill="black"/>
<path d="M63.095 3.03707C62.9903 3.17458 62.8472 3.40662 62.6658 3.5871C61.424 4.80173 60.1796 6.01351 58.925 7.20809C58.6491 7.46878 58.3067 7.90135 57.9438 7.48024C57.4941 6.95599 58.0077 6.62655 58.299 6.33722C59.5025 5.1455 60.7264 3.98243 61.9427 2.81076C62.2058 2.55867 62.4741 2.32949 62.8523 2.48132C63.0337 2.5558 63.1129 2.70763 63.095 3.03707Z" fill="black"/>
<path d="M55.0536 5.06542C55.373 3.69609 55.6873 2.32676 56.0246 0.960293C56.1114 0.605069 56.3593 0.39881 56.7017 0.490481C57.0262 0.576422 57.0211 0.862893 56.9546 1.16369C56.6327 2.58172 56.3158 4.00261 55.9862 5.41778C55.9045 5.77014 55.7026 6.03942 55.3449 5.89905C54.9999 5.76441 54.9974 5.41205 55.0561 5.06256L55.0536 5.06542Z" fill="black"/>
<path d="M60.1258 11.205C59.7834 11.1362 59.1037 11.5058 59.0731 10.738C59.045 9.97889 59.7476 10.2224 60.1616 10.1622C61.1223 10.0219 62.0907 9.94165 63.054 9.81274C63.5012 9.75258 63.9994 9.70961 64.0557 10.3227C64.1093 10.8956 63.5957 10.8813 63.2227 10.9185C62.2134 11.0159 61.2041 11.1076 60.1284 11.205H60.1258Z" fill="black"/>
</g>
<defs>
<clipPath id="clip0_3361_8743">
<rect width="66" height="66" fill="white" transform="translate(0 0.470703)"/>
</clipPath>
</defs>
</svg>
