<svg width="66" height="67" viewBox="0 0 66 67" fill="none" xmlns="http://www.w3.org/2000/svg">
<g clip-path="url(#clip0_3361_8737)">
<path d="M43.0123 38.003C36.9177 38.003 30.8217 38.0086 24.7271 38.0011C22.1271 37.9973 20.2045 35.506 20.1823 31.957C20.1433 25.6947 20.1753 19.4304 20.1781 13.168C20.1781 11.0793 20.1628 8.99242 20.1934 6.90559C20.2518 2.98069 22.0367 0.515987 24.9121 0.483706C28.4109 0.443831 31.9096 0.508391 35.4097 0.508391C38.9557 0.508391 42.5004 0.479909 46.0464 0.479909C49.5924 0.479909 53.137 0.498897 56.6831 0.508391C58.2356 0.512189 59.7881 0.500796 61.3406 0.517886C64.1591 0.548267 65.9648 2.94081 65.9801 6.80496C66.0107 14.4611 65.994 22.1153 65.9842 29.7715C65.9829 30.9677 66.0719 32.2191 65.8507 33.3489C65.2428 36.4554 63.5567 38.0428 61.1584 38.0371C56.384 38.0238 51.611 38.0162 46.8366 38.0067C45.5623 38.0048 44.288 38.0067 43.0137 38.0067C43.0137 38.0067 43.0137 38.0049 43.0137 38.003H43.0123ZM39.5762 11.0849C39.8335 12.0894 40.0603 12.9477 40.2745 13.8117C41.3374 18.0917 42.4058 22.3679 43.4505 26.6555C43.5896 27.2289 43.7886 27.4644 44.2393 27.4321C44.8625 27.3884 45.4927 27.3998 46.1159 27.4606C46.5875 27.5061 46.799 27.2821 46.952 26.6593C47.7575 23.361 48.6061 20.0836 49.4297 16.7948C49.8985 14.9244 50.3492 13.0446 50.8138 11.1476C50.6664 11.1153 50.5982 11.0906 50.53 11.0887C50.0891 11.0755 49.6495 11.0603 49.2085 11.0584C48.4452 11.0558 47.9555 11.5438 47.7394 12.5224C47.4904 13.6408 47.2289 14.7554 46.9826 15.8757C46.4262 18.4012 45.8753 20.9305 45.2729 23.6819C45.0462 22.6926 44.8639 21.9273 44.6942 21.1545C44.0139 18.067 43.3462 14.9757 42.6437 11.8977C42.5727 11.5843 42.3126 11.1438 42.1192 11.1229C41.3165 11.0356 40.5055 11.0868 39.5762 11.0868V11.0849ZM55.0401 14.0908H59.1829V11.1305H52.383V27.3941H59.5252C59.5252 26.6175 59.514 25.8978 59.5293 25.1782C59.5405 24.6313 59.3471 24.4775 58.9743 24.4832C58.2342 24.4946 57.4927 24.4528 56.7512 24.4414C56.1809 24.4338 55.6105 24.4414 55.0387 24.4414V20.7368H58.9409C58.9409 20.2108 58.9548 19.8063 58.9381 19.4057C58.8588 17.4916 59.1148 17.7366 57.7111 17.7138C56.8194 17.6986 55.9277 17.7119 55.0401 17.7119V14.0946V14.0908ZM33.7904 27.3713C33.8057 27.1302 33.8266 26.9175 33.8308 26.7029C33.8558 25.1915 33.3077 24.4363 32.1864 24.4376C31.2669 24.4376 30.3487 24.4376 29.3374 24.4376V11.1343H26.7151V27.3732H33.7904V27.3713ZM35.4389 11.1153C35.4389 12.811 35.4375 14.444 35.4389 16.0789C35.4445 19.6127 35.4445 23.1483 35.4737 26.682C35.4751 26.927 35.6949 27.3675 35.8284 27.3808C36.5783 27.4492 37.3337 27.4131 38.0891 27.4131V11.1153H35.4375H35.4389Z" fill="black"/>
<path d="M21.5767 66.4709C13.9936 66.1424 7.81968 61.6555 3.51409 52.7651C0.33672 46.2065 -0.645427 38.9092 0.403495 31.1638C1.46911 23.3007 4.46285 17.0611 9.16909 12.3596C11.0485 10.4835 13.1366 9.10876 15.3597 8.13655C15.9133 7.8935 16.4879 7.92768 16.7912 8.63025C16.9984 9.11066 17.1014 9.85121 16.9845 10.362C16.8844 10.7968 16.442 11.2184 16.0858 11.3912C8.53612 15.0445 3.93004 22.1804 2.72253 33.0114C1.52615 43.7456 5.24189 54.081 12.1211 59.4205C18.7972 64.6025 25.5568 64.4107 32.1063 59.0142C36.2588 55.5925 39.0481 50.5434 40.4197 44.1234C40.4517 43.9715 40.4851 43.8196 40.5185 43.6677C40.7786 42.498 41.3782 41.9455 42.1072 42.2075C42.8083 42.4581 43.1505 43.4057 42.9043 44.5716C41.0916 53.16 37.2271 59.4281 31.394 63.4461C28.3794 65.5234 25.1561 66.3874 21.5767 66.4709Z" fill="black"/>
<path d="M22.5284 55.3949C27.8286 55.0455 32.0493 51.1661 34.5882 43.8119C34.7913 43.2233 35.1224 42.5473 35.5202 42.3099C35.843 42.1181 36.5093 42.3422 36.7472 42.7125C37.0074 43.115 37.1423 44.0075 36.9949 44.4974C36.5302 46.0393 36.0224 47.602 35.3241 48.9578C31.7642 55.8639 26.8298 59.2913 20.6712 58.6723C14.5418 58.057 9.99277 53.7543 7.2703 46.2007C3.98303 37.0805 5.6997 26.24 11.4187 19.7289C12.5761 18.4111 13.9631 17.4484 15.2861 16.4287C16.0248 15.859 16.7189 16.2445 17.0333 17.1844C17.3269 18.0598 17.0723 18.9485 16.328 19.4327C13.6876 21.1492 11.5467 23.6215 10.0512 27.0812C8.21349 31.3308 7.67234 35.8785 8.44303 40.6883C9.82583 49.3148 15.4307 55.4328 22.5256 55.3968L22.5284 55.3949Z" fill="black"/>
<path d="M11.9268 35.4722C11.9615 32.9391 12.9214 29.6484 14.8982 26.9426C15.5326 26.0748 16.2365 26.0615 16.7888 26.8419C17.3049 27.5711 17.2813 28.5072 16.6622 29.3579C14.122 32.8423 13.8396 37.4527 15.182 41.1516C17.5511 47.6779 23.9295 48.7698 27.477 43.2992C27.5841 43.134 27.6801 42.9536 27.7914 42.7922C28.2824 42.0801 28.9599 41.9548 29.476 42.4732C30.0311 43.0315 30.1772 43.9942 29.7487 44.8259C28.7512 46.7627 27.3907 48.0957 25.8145 49.0489C19.3916 52.9415 11.9907 46.4931 11.9281 35.4703L11.9268 35.4722Z" fill="black"/>
</g>
<defs>
<clipPath id="clip0_3361_8737">
<rect width="66" height="66" fill="white" transform="translate(0 0.470703)"/>
</clipPath>
</defs>
</svg>
