<svg width="66" height="67" viewBox="0 0 66 67" fill="none" xmlns="http://www.w3.org/2000/svg">
<g clip-path="url(#clip0_3361_8718)">
<path d="M-0.000378769 6.83416C0.250159 6.45367 0.543315 6.13659 1.01727 6.32402C1.54934 6.5354 1.54934 7.0385 1.54934 7.55005C1.54547 26.1096 1.54676 44.6707 1.54676 63.2302C1.54676 63.5318 1.54676 63.8348 1.54676 64.1956H7.15287C7.15287 63.8799 7.15287 63.584 7.15287 63.2866C7.15287 57.8258 7.15287 52.3665 7.15287 46.9057C7.15287 45.6642 7.30914 45.4993 8.46368 45.4993C10.5481 45.4993 12.6311 45.4979 14.7155 45.4993C15.635 45.4993 15.8546 45.7374 15.8546 46.7366C15.8558 52.2678 15.8546 57.7977 15.8546 63.3289V64.2054H21.5084V63.3092C21.5084 53.4896 21.5084 43.6715 21.5084 33.852C21.5084 32.5301 21.6105 32.4202 22.8425 32.4202C24.9049 32.4202 26.9673 32.4202 29.0298 32.4202C30.0138 32.4202 30.1882 32.6104 30.1882 33.6913C30.1882 43.5574 30.1882 53.4234 30.1882 63.2894V64.1885H35.8162V63.3021C35.8162 50.9995 35.8162 38.6955 35.8162 26.3929C35.8162 25.0386 35.9325 24.9118 37.1813 24.9104C39.2437 24.9104 41.3061 24.9062 43.3685 24.9118C44.3022 24.9146 44.4947 25.133 44.4947 26.1618C44.4947 38.5349 44.4947 50.9093 44.4947 63.2824V64.2139H50.1227V63.3092C50.1227 48.3107 50.1227 33.3122 50.1227 18.3152C50.1227 16.9285 50.2235 16.8158 51.4658 16.8158C53.4637 16.8158 55.4615 16.8158 57.4594 16.8158C58.6979 16.8158 58.8025 16.9327 58.8025 18.3152C58.8025 33.2897 58.8025 48.2642 58.8025 63.2387C58.8025 63.5389 58.8025 63.839 58.8025 64.2097C59.0788 64.2266 59.3061 64.2505 59.5321 64.2519C61.2084 64.2548 62.8834 64.2534 64.5597 64.2534C64.7095 64.2534 64.8606 64.2534 65.0104 64.2534C65.5425 64.2562 65.9557 64.4478 65.9932 65.1031C66.0229 65.6175 65.6484 65.9332 65.013 65.936C62.9932 65.943 60.9734 65.936 58.9549 65.943C58.7263 65.943 58.4977 66.0008 58.2691 66.0332H50.6626C50.434 66.0022 50.2067 65.9444 49.9781 65.943C48.2205 65.936 46.4641 65.9346 44.7065 65.943C44.4572 65.943 44.208 66.0008 43.9574 66.0332H36.3509C36.1223 66.0022 35.895 65.9444 35.6664 65.943C33.9088 65.936 32.1524 65.9346 30.3948 65.943C30.1456 65.943 29.8963 66.0008 29.6458 66.0332H22.0392C21.8106 66.0022 21.5834 65.9444 21.3548 65.943C19.5971 65.936 17.8408 65.9346 16.0831 65.943C15.8339 65.943 15.5846 66.0008 15.3354 66.0332H7.72885C7.50027 66.0022 7.27168 65.9444 7.04181 65.943C5.09433 65.936 3.14555 65.9642 1.19807 65.9177C0.793853 65.9078 0.3948 65.6259 -0.00683594 65.4709V6.83416H-0.000378769ZM51.7202 18.5294V64.1787H57.2127V18.5294H51.7202ZM42.8972 64.1942V26.6621H37.4202V64.1942H42.8972ZM23.1034 34.1338V64.1773H28.5958V34.1338H23.1034ZM8.74392 47.2101V64.1646H14.2558V47.2101H8.74392Z" fill="black"/>
<path d="M19.2977 23.5595C20.9094 20.493 22.4876 17.4885 24.067 14.484C24.6546 13.3665 24.8535 13.3115 25.8711 14.019C29.3438 16.4372 32.8152 18.8597 36.3511 21.3244C39.4493 15.5874 42.5371 9.86876 45.7192 3.97535C45.0709 4.29102 44.5737 4.52777 44.0803 4.7758C43.1053 5.2648 42.1329 5.75521 41.1617 6.25126C40.6761 6.49788 40.2629 6.43306 40.033 5.87359C39.8186 5.35358 40.0149 4.97309 40.4811 4.73916C42.7398 3.60332 44.9947 2.45761 47.2573 1.33022C47.8629 1.02865 48.3886 1.36405 48.4518 2.09685C48.6804 4.77862 48.8935 7.46039 49.1053 10.1436C49.1492 10.7073 48.9516 11.1455 48.3924 11.1822C47.841 11.2188 47.6008 10.8341 47.5569 10.2563C47.4406 8.73997 47.3102 7.22364 47.1837 5.7073C47.1643 5.48182 47.1346 5.25776 47.0881 4.84908C46.866 5.22252 46.7252 5.43955 46.6025 5.66925C43.5793 11.278 40.5573 16.8896 37.5341 22.4997C36.9865 23.5172 36.7075 23.5848 35.7984 22.9493C32.4729 20.6254 29.1462 18.3044 25.8195 15.9834C25.6593 15.8707 25.4914 15.7706 25.2642 15.6227C25.135 15.8524 25.011 16.0595 24.8987 16.2737C23.4704 18.995 22.0446 21.719 20.6163 24.4402C20.0674 25.4859 19.9447 25.5352 18.8612 25.1914C17.0313 24.6107 15.2 24.033 13.3274 23.4397C13.2073 23.6821 13.0937 23.9019 12.9904 24.1274C10.8027 28.8455 8.61499 33.565 6.4286 38.2831C6.37048 38.4085 6.31237 38.534 6.25296 38.658C5.92623 39.3344 5.54009 39.5641 5.10229 39.3415C4.61413 39.0948 4.5289 38.6227 4.86209 37.9054C6.87543 33.5636 8.89265 29.2218 10.9086 24.8813C11.3154 24.0048 11.7364 23.1353 12.1225 22.2475C12.3808 21.6556 12.7411 21.4949 13.321 21.6824C15.2917 22.3207 17.2728 22.9239 19.3016 23.5566L19.2977 23.5595Z" fill="black"/>
<path d="M13.2272 19.9713C8.18929 19.9798 4.06445 15.4998 4.06445 10.0193C4.06445 4.52188 8.15184 0.0560211 13.2001 0.0391103C18.2793 0.0221995 22.3951 4.49088 22.3976 10.0249C22.4002 15.5026 18.287 19.9643 13.2272 19.9713ZM13.1949 1.72596C8.98998 1.7471 5.57026 5.51398 5.61159 10.0771C5.65292 14.6247 9.09459 18.3154 13.2646 18.2816C17.4631 18.2478 20.866 14.5331 20.8505 10.001C20.8337 5.4097 17.4063 1.70482 13.1949 1.72596Z" fill="black"/>
<path d="M13.5792 14.647C13.4642 15.9942 13.2886 16.3465 12.7591 16.3465C12.2335 16.3465 12.063 16.0027 11.9403 14.616C11.7427 14.616 11.5374 14.6188 11.3308 14.616C10.4978 14.6061 10.1581 14.3666 10.1517 13.7888C10.1452 13.187 10.5081 12.9306 11.3721 12.9292C12.1237 12.9277 12.8753 12.9376 13.6269 12.9249C14.376 12.9137 14.8318 12.4951 14.8099 11.8652C14.7892 11.2747 14.3334 10.8985 13.6218 10.8773C13.1504 10.8632 12.6726 10.8914 12.2102 10.8097C10.9446 10.5856 10.1052 9.42299 10.1491 8.01939C10.1917 6.67358 11.1048 5.58847 12.3445 5.41372C12.4504 5.39822 12.5563 5.38695 12.71 5.36722C12.8689 4.73447 12.515 3.65641 13.5701 3.69023C14.5193 3.72123 14.2339 4.6922 14.3618 5.39258C14.6898 5.39258 15.0062 5.38836 15.3226 5.39258C15.9993 5.40386 16.3661 5.71107 16.3557 6.24799C16.3454 6.78491 15.9851 7.07098 15.2916 7.07803C14.4974 7.08507 13.7031 7.07521 12.9089 7.08084C12.1056 7.08789 11.6795 7.47402 11.6975 8.16595C11.7143 8.82406 12.1315 9.17637 12.9115 9.18765C13.233 9.19187 13.5559 9.18201 13.8775 9.19469C15.2477 9.24965 16.3028 10.3601 16.3596 11.7975C16.4164 13.2448 15.4014 14.4511 13.9989 14.5991C13.8723 14.6118 13.747 14.6273 13.5804 14.6456L13.5792 14.647Z" fill="black"/>
</g>
<defs>
<clipPath id="clip0_3361_8718">
<rect width="66" height="66" fill="white" transform="translate(0 0.0390625)"/>
</clipPath>
</defs>
</svg>
