<svg width="66" height="66" viewBox="0 0 66 66" fill="none" xmlns="http://www.w3.org/2000/svg">
<g clip-path="url(#clip0_3361_8703)">
<path d="M21.1387 0C22.687 0.598906 23.3094 1.86656 23.2074 3.70341C23.1609 4.54009 23.1945 5.38421 23.2009 6.22386C23.2074 7.04866 23.3972 7.25969 24.1281 7.26712C24.7944 7.27306 25.4594 7.26712 26.1257 7.26712C35.5768 7.26712 45.0279 7.26712 54.479 7.26712C56.5838 7.26712 57.5355 8.36536 57.5368 10.8026C57.5394 14.3618 57.5432 17.9211 57.5303 21.4804C57.529 21.941 57.6814 22.1788 57.9823 22.4983C59.1974 23.7853 60.3867 25.1139 61.4959 26.5183C62.1984 27.4085 62.0551 28.7564 61.2841 29.6852C60.4835 30.6497 59.661 31.5934 58.8216 32.5148C58.535 32.8284 58.5259 33.0676 58.6873 33.4689C59.0579 34.3828 59.3872 35.3221 59.6933 36.2687C59.8172 36.6507 59.9696 36.8007 60.3363 36.7903C61.4533 36.7606 62.5703 36.7725 63.6873 36.7814C65.1064 36.7918 65.9806 37.7846 65.991 39.4089C66.0013 40.9173 66.0026 42.4242 65.991 43.9326C65.9793 45.5584 65.1077 46.5527 63.6873 46.5675C62.5703 46.5794 61.4533 46.5883 60.3363 46.5601C59.9748 46.5512 59.8159 46.6894 59.692 47.0773C59.3885 48.0239 59.0592 48.9631 58.6886 49.8771C58.5272 50.2769 58.535 50.5176 58.8229 50.8297C59.6171 51.6961 60.3854 52.5967 61.1524 53.4973C62.1932 54.7189 62.2023 56.0757 61.1718 57.2854C60.2705 58.345 59.3588 59.3927 58.4381 60.4315C57.3844 61.6189 56.2041 61.6115 55.1466 60.4167C54.3498 59.5161 53.5738 58.5902 52.7641 57.706C52.6311 57.5603 52.3354 57.4459 52.183 57.5143C51.1693 57.9779 50.175 58.4951 49.1162 59.0256C49.1162 60.3676 49.1187 61.7735 49.1162 63.1808C49.111 65.0102 48.2781 65.9851 46.7066 65.9955C45.4605 66.003 44.2144 66.0059 42.9695 65.9955C41.4807 65.9807 40.6219 64.9835 40.6116 63.2611C40.6026 61.8299 40.6103 60.3973 40.6103 59.0212C39.5579 58.4951 38.5636 57.9779 37.5512 57.5143C37.3988 57.4444 37.1018 57.5574 36.9688 57.703C36.1153 58.6422 35.2927 59.6186 34.4521 60.5742C33.4358 61.7304 32.4351 61.7334 31.4214 60.5801C30.5355 59.5725 29.6587 58.5545 28.7781 57.5395C27.4002 55.9538 27.3525 55.2464 28.5495 53.4304C28.3106 53.4156 28.1092 53.3933 27.9077 53.3933C25.2231 53.3903 22.5372 53.3933 19.8526 53.3873C19.5982 53.3873 19.265 53.4349 19.1062 53.2773C18.8286 52.9994 18.4773 52.5685 18.4928 52.2222C18.5083 51.8715 18.8957 51.4925 19.1901 51.2295C19.3425 51.0927 19.6459 51.17 19.8823 51.17C23.2332 51.1671 26.5841 51.17 29.9351 51.1685C31.0869 51.1685 31.3555 50.6856 30.8932 49.5264C30.5807 48.7432 30.2979 47.9422 30.05 47.1293C29.926 46.7221 29.7711 46.5497 29.3747 46.5616C28.2796 46.5958 27.1833 46.5809 26.0883 46.5705C24.6265 46.5571 23.7497 45.5718 23.7329 43.9088C23.7174 42.4257 23.7187 40.9426 23.7329 39.4594C23.7484 37.7831 24.6149 36.7963 26.0702 36.7844C27.1872 36.7755 28.3042 36.7681 29.4211 36.7918C29.7543 36.7993 29.9054 36.67 30.0229 36.3148C30.3509 35.325 30.7422 34.3635 31.0546 33.3678C31.1244 33.1449 31.0572 32.7451 30.9165 32.5727C30.1081 31.5815 29.2546 30.6408 28.4255 29.6733C27.4506 28.5379 27.4429 27.3654 28.41 26.2374C29.4211 25.0589 30.4374 23.8864 31.4627 22.7242C32.426 21.6334 33.4384 21.6334 34.4017 22.7213C35.2604 23.6902 36.1153 24.6651 36.952 25.6593C37.1871 25.9372 37.3717 25.961 37.6739 25.8035C38.4926 25.377 39.3242 24.9787 40.1648 24.6161C40.498 24.4734 40.6258 24.298 40.6181 23.8775C40.5922 22.5935 40.6 21.3065 40.6116 20.0225C40.6258 18.3892 41.4897 17.3816 42.8985 17.3653C44.2092 17.3504 45.5186 17.3504 46.8293 17.3653C48.2471 17.3802 49.102 18.3773 49.1136 20.0165C49.1226 21.2277 49.1523 22.4404 49.1007 23.6486C49.0723 24.3129 49.2659 24.6101 49.9155 24.628C49.931 24.4065 49.9594 24.1777 49.9594 23.9488C49.962 19.5484 49.9633 15.1495 49.9594 10.7491C49.9594 9.66869 49.8096 9.49927 48.8799 9.49927C38.827 9.49927 28.7755 9.49927 18.7227 9.49927C16.5649 9.49927 15.6067 8.40697 15.6054 5.94596C15.6054 5.032 15.5925 4.11655 15.6093 3.20258C15.6222 2.50708 15.3394 2.22621 14.748 2.22769C10.7527 2.23661 6.75741 2.23512 2.76211 2.22918C2.20297 2.22918 1.92017 2.516 1.93309 3.1684C1.93567 3.31702 1.93309 3.46563 1.93309 3.61275C1.93309 19.0119 1.93309 34.4111 1.93309 49.8102C1.93309 51.0407 2.04414 51.17 3.10818 51.17C6.86717 51.17 10.6262 51.17 14.3852 51.1715C14.6202 51.1715 14.9223 51.0942 15.0773 51.2295C15.3756 51.4895 15.7682 51.8626 15.7875 52.2133C15.8069 52.5595 15.4634 53.0054 15.1819 53.2729C15.0037 53.4423 14.6486 53.3903 14.3735 53.3918C10.6572 53.3977 6.94078 53.3546 3.22569 53.4156C1.63479 53.4408 0.526853 52.8092 0 51.0303V2.37333C0.330575 1.17255 1.02013 0.383419 2.06222 0H21.1387ZM32.9994 59.1074C34.0143 57.9363 35.0564 56.7251 36.1088 55.5258C36.748 54.7976 37.1445 54.7798 37.9593 55.2019C39.1085 55.7978 40.2759 56.3536 41.4535 56.8708C42.2658 57.2274 42.5357 57.5886 42.5395 58.6229C42.5447 60.057 42.5744 61.4911 42.5266 62.9237C42.5021 63.6371 42.7255 63.808 43.3014 63.7827C44.3745 63.7366 45.4501 63.7441 46.5232 63.7812C47.0204 63.7976 47.2076 63.6415 47.1934 63.0352C47.1572 61.5773 47.1779 60.1194 47.1831 58.6601C47.187 57.5722 47.4801 57.2096 48.3698 56.8321C49.5113 56.3462 50.6386 55.8052 51.7453 55.2212C52.5937 54.7739 52.972 54.7902 53.6448 55.5556C54.5603 56.5988 55.4797 57.6391 56.3733 58.7076C56.6806 59.0747 56.886 59.1074 57.2049 58.721C58.0042 57.755 58.8229 56.8069 59.6661 55.8899C60.0342 55.4902 59.967 55.2435 59.6352 54.8764C58.7041 53.851 57.7989 52.7943 56.8937 51.7392C56.2868 51.0318 56.2584 50.5459 56.598 49.669C57.121 48.3211 57.6181 46.9599 58.0804 45.5837C58.3852 44.6787 58.7015 44.3517 59.5435 44.3458C60.8541 44.3369 62.1648 44.3265 63.4742 44.3532C63.921 44.3621 64.0785 44.2016 64.0682 43.677C64.0411 42.3425 64.0411 41.0065 64.0682 39.6734C64.0785 39.1518 63.93 38.9853 63.4781 38.9957C62.2113 39.024 60.9432 39.0091 59.6765 39.0047C58.6744 39.0017 58.3735 38.6896 58.0339 37.6255C57.622 36.3326 57.1662 35.056 56.6639 33.8062C56.2519 32.7823 56.2584 32.3439 56.9389 31.5548C57.8312 30.5189 58.7196 29.4786 59.6326 28.4681C59.9593 28.1055 60.0329 27.8558 59.6636 27.4545C58.8203 26.5391 58.0016 25.591 57.2023 24.625C56.8782 24.2341 56.6716 24.2861 56.3694 24.6473C55.4901 25.6965 54.5836 26.7174 53.6848 27.7443C52.9604 28.5706 52.6221 28.584 51.6781 28.0876C50.5702 27.5051 49.439 26.976 48.2988 26.4811C47.4775 26.1245 47.1857 25.7544 47.1818 24.7528C47.1753 23.2696 47.1624 21.7865 47.1895 20.3033C47.1986 19.7683 47.0798 19.5543 46.58 19.5707C45.4424 19.6078 44.3035 19.6049 43.1658 19.5707C42.6919 19.5573 42.5227 19.7238 42.5331 20.284C42.5615 21.7419 42.5447 23.2013 42.5421 24.6592C42.5395 25.799 42.2658 26.1378 41.3244 26.5287C40.2397 26.979 39.1628 27.4724 38.122 28.0431C37.1109 28.5974 36.7777 28.5899 35.9642 27.6537C34.9621 26.5005 33.964 25.3457 33.0019 24.2356C31.8953 25.5033 30.817 26.7382 29.7052 28.0118C30.6982 29.1517 31.7158 30.3183 32.7295 31.4864C33.4875 32.3602 33.4965 32.757 33.051 33.8463C32.5513 35.0694 32.1045 36.3252 31.7055 37.5973C31.362 38.6941 31.0624 39.0047 30.0164 39.0061C28.7497 39.0091 27.4816 39.0225 26.2148 38.9987C25.7913 38.9913 25.6505 39.1622 25.657 39.6422C25.6764 41.002 25.6776 42.3618 25.657 43.7201C25.6492 44.2135 25.8145 44.3606 26.2264 44.3532C27.4932 44.3309 28.7613 44.3428 30.0281 44.3458C31.0753 44.3473 31.3633 44.6504 31.708 45.762C32.0967 47.0119 32.5306 48.2483 33.0252 49.4461C33.4991 50.5919 33.4978 50.9768 32.723 51.8715C31.7093 53.041 30.6918 54.2062 29.713 55.3297C30.8235 56.6062 31.8992 57.8427 33.0006 59.1089L32.9994 59.1074ZM51.8951 9.49481C51.8951 10.1784 51.8951 10.7684 51.8951 11.3599C51.8951 15.9 51.8899 20.4416 51.908 24.9816C51.908 25.2714 52.1042 25.5597 52.2076 25.8495C52.449 25.7217 52.7396 25.6563 52.9216 25.4572C53.7158 24.5923 54.4957 23.708 55.2408 22.7881C55.4332 22.5504 55.5804 22.1655 55.5856 21.843C55.6179 19.9437 55.6011 18.043 55.6011 16.1422C55.6011 14.2667 55.5972 12.3913 55.6024 10.5158C55.6037 9.95996 55.4849 9.50818 54.9154 9.49778C53.9108 9.47846 52.9049 9.49184 51.8925 9.49184L51.8951 9.49481ZM17.5398 2.22918C17.5398 3.6618 17.5398 4.99484 17.5398 6.32789C17.5398 6.83466 17.6974 7.2374 18.1777 7.25226C19.2017 7.28347 20.2283 7.26117 21.264 7.26117C21.264 5.80924 21.2678 4.4316 21.2614 3.05397C21.2588 2.56058 21.0406 2.24255 20.6002 2.23512C19.5956 2.21729 18.5897 2.22918 17.5398 2.22918Z" fill="black"/>
<path d="M44.866 30.8086C48.9323 30.7938 52.7055 33.9875 53.8806 38.4384C54.1027 39.2795 53.9219 39.8606 53.3628 40.1028C52.8153 40.3391 52.3078 40.0181 52.0638 39.1814C51.2916 36.5465 49.8169 34.6919 47.5765 33.6234C42.982 31.4343 37.5701 35.4022 37.3764 41.1193C37.1672 47.2748 41.8908 51.6202 47.0341 49.9231C49.3262 49.1667 50.9313 47.4101 51.8326 44.8435C51.945 44.524 52.0341 44.1911 52.1632 43.8805C52.415 43.2727 52.8928 43.0305 53.3706 43.243C53.8574 43.4585 54.1066 44.0069 53.9555 44.6325C53.5371 46.3549 52.7688 47.8633 51.7048 49.1503C47.1568 54.6475 39.2385 53.2327 36.3705 46.4248C33.3282 39.2052 37.8813 30.8354 44.866 30.8086Z" fill="black"/>
</g>
<defs>
<clipPath id="clip0_3361_8703">
<rect width="66" height="66" fill="white"/>
</clipPath>
</defs>
</svg>
