<svg width="66" height="67" viewBox="0 0 66 67" fill="none" xmlns="http://www.w3.org/2000/svg">
<g clip-path="url(#clip0_3361_8707)">
<path d="M0 44.2487C0.104651 43.742 0.199789 43.2353 0.320296 42.7318C1.65222 37.1551 6.463 33.3646 12.149 33.4031C12.3171 33.4031 12.4852 33.4031 12.7008 33.4031V31.4373C11.5655 31.2321 10.4271 31.1198 9.34249 30.812C1.67759 28.6313 -1.74736 19.3924 2.5814 12.6549C2.86364 12.2123 3.22516 11.866 3.73256 12.0776C4.03383 12.2027 4.35095 12.5683 4.42706 12.8825C4.49366 13.1551 4.28118 13.5399 4.10994 13.8253C3.12051 15.4576 2.62262 17.231 2.59725 19.1359C2.53066 24.456 6.58351 28.8622 11.9873 29.3593C16.944 29.8147 21.7294 26.0819 22.5507 21.0215C23.2357 16.7981 21.8562 13.2994 18.3869 10.8622C14.9175 8.42503 11.2199 8.39617 7.51586 10.455C7.40169 10.5191 7.29704 10.5896 7.1797 10.6474C6.65962 10.9039 6.14905 10.7821 5.87949 10.3395C5.59725 9.87773 5.7241 9.31332 6.22833 8.98622C7.59831 8.09472 9.0888 7.50466 10.6998 7.25453C11.3531 7.15191 12.0127 7.11022 12.685 7.03967C12.7421 6.35982 12.7421 5.68638 12.8594 5.0354C13.3795 2.19093 15.723 0.112894 18.5867 0.0712046C22.6871 0.0134814 26.7875 0.0487567 30.888 0.0487567C36.4693 0.0487567 42.0539 0.0391362 47.6353 0.0487567C50.7812 0.0551704 53.2072 1.99852 53.7939 4.98409C53.9271 5.65432 53.9175 6.35661 53.9746 7.03967C60.5359 6.98516 66.0032 12.5554 65.9715 19.2481C65.9429 25.5656 60.9419 31.2257 53.9746 31.3636V33.3229C61.8869 33.4416 66.0285 40.3844 66 45.5346C65.9683 51.1466 61.4207 57.6404 53.9176 57.6949C53.9176 58.4037 53.9334 59.1156 53.9176 59.8243C53.8414 62.9702 51.9197 65.3529 48.9672 65.9333C48.4884 66.0263 47.9841 66.0327 47.4926 66.0359C38.0455 66.0424 28.5983 66.0424 19.1512 66.0359C15.2822 66.0359 12.7548 63.4608 12.7484 59.5421C12.7484 58.9168 12.7484 58.2946 12.7484 57.727C11.5782 57.5859 10.4556 57.5474 9.38055 57.3037C4.4334 56.1813 0.849894 52.2209 0.120507 47.1573C0.0983087 47.0097 0.0443975 46.8686 0.00317125 46.7243C0.00317125 45.9002 0.00317125 45.0728 0.00317125 44.2487H0ZM22.9598 5.83069C22.1417 5.83069 21.3932 5.83069 20.6416 5.83069C18.4852 5.83069 18.4028 5.90445 18.482 8.11396C18.4915 8.35768 18.6723 8.69119 18.8753 8.82268C26.5877 13.8286 26.5846 24.5939 18.8753 29.5645C18.6723 29.696 18.4915 30.0295 18.4852 30.27C18.4503 31.7227 18.4852 33.1786 18.4567 34.6345C18.4471 35.1188 18.5899 35.4106 18.9894 35.7024C25.0402 40.1118 25.6617 48.9467 20.3055 54.1995C19.703 54.7895 18.8277 55.2577 18.5391 55.9697C18.2315 56.7329 18.4693 57.7206 18.4662 58.6121C18.4662 58.657 18.4662 58.6987 18.4662 58.7436C18.4662 60.0039 18.723 60.2604 19.9852 60.2604C28.5951 60.2604 37.2051 60.2604 45.815 60.2604C46.2431 60.2604 46.6744 60.2732 47.1025 60.2572C47.8129 60.2283 48.1681 59.8756 48.1808 59.1605C48.1966 58.269 48.2061 57.3807 48.1681 56.4892C48.1586 56.2807 47.9905 56.0049 47.8129 55.8927C44.445 53.7281 42.4471 50.6688 42.0983 46.6474C41.9778 45.2684 42.2442 43.8478 42.4123 42.456C42.4789 41.898 43.0148 41.6383 43.5412 41.7698C44.055 41.9012 44.2738 42.27 44.2548 42.7831C44.2484 42.9755 44.1913 43.168 44.1501 43.3572C42.6786 50.1204 48.2569 56.3737 55.0814 55.6137C59.204 55.1551 62.5814 52.2401 63.6945 48.1802C64.7886 44.1909 63.3362 39.9162 60.0571 37.386C55.9472 34.2177 49.6998 34.641 46.1448 39.1177C45.6533 39.7366 45.1269 39.836 44.6543 39.448C44.1945 39.0696 44.1406 38.4443 44.6797 37.9119C45.6406 36.9627 46.6522 36.0584 47.7051 35.2118C48.0539 34.9328 48.1998 34.7019 48.1935 34.2722C48.1712 33.0119 48.1586 31.7516 48.1966 30.4945C48.2125 29.9718 48.0349 29.6928 47.6004 29.417C40.1099 24.6741 40.1734 13.5752 47.7082 8.89323C48.3774 8.47954 48.4123 6.45923 47.7526 6.0199C47.6321 5.93972 47.4767 5.85955 47.3372 5.85635C46.1226 5.84352 44.908 5.84993 43.7125 5.84993C43.3002 7.73235 42.482 8.59178 40.9757 8.5982C35.8668 8.62064 30.7548 8.61744 25.6459 8.5982C24.3932 8.59499 23.3816 7.758 23.0899 6.59713C23.0328 6.36944 23.0074 6.13534 22.9535 5.83069H22.9598ZM53.9841 9.0215C48.4123 9.0215 43.9249 13.572 43.9281 19.2096C43.9281 24.7992 48.4345 29.3657 53.9556 29.3785C59.5085 29.3914 64.0433 24.8216 64.0465 19.2064C64.0465 13.5688 59.556 9.01829 53.9841 9.01829V9.0215ZM11.9778 35.324C6.41543 35.324 1.9186 39.8841 1.92178 45.5154C1.92495 51.1305 6.45349 55.7035 12.0032 55.6907C17.629 55.681 22.0402 51.2075 22.0402 45.5122C22.0402 39.8809 17.5338 35.3208 11.9778 35.324ZM14.5751 7.20001C15.3108 7.3796 15.9006 7.5239 16.5285 7.67463C16.5444 7.42129 16.5603 7.25132 16.5634 7.08136C16.6078 5.0386 17.7304 3.90659 19.7378 3.89055C20.7019 3.88414 21.6691 3.88093 22.6332 3.89055C24.0159 3.90659 24.6882 4.47741 24.9006 5.84993C24.9894 6.42396 25.3002 6.68692 25.8552 6.69013C26.2833 6.69013 26.7146 6.69013 27.1427 6.69013C31.6047 6.69013 36.0698 6.69013 40.5317 6.69013C41.4482 6.69013 41.6163 6.54261 41.7463 5.65752C41.8985 4.63775 42.666 3.93224 43.7505 3.90017C44.908 3.86811 46.0687 3.85848 47.2262 3.90017C48.7706 3.9579 49.8774 4.98088 50.0677 6.48489C50.1152 6.8633 50.074 7.25453 50.074 7.69387C50.7685 7.51749 51.3679 7.36677 51.9545 7.21605C52.4049 4.00921 50.2167 1.90231 47.4736 1.95041C42.6691 2.03379 37.8615 1.97286 33.0539 1.97286C28.3763 1.97286 23.6987 1.96965 19.0211 1.97286C16.9947 1.97286 15.4027 3.03753 14.8763 4.83657C14.6638 5.56773 14.6702 6.36623 14.5719 7.1936L14.5751 7.20001ZM16.5666 56.7329C15.9609 56.9253 15.4693 57.0664 14.9905 57.2428C14.8605 57.2909 14.6797 57.448 14.6797 57.5538C14.6892 58.657 14.5909 59.789 14.7939 60.8601C15.1808 62.9061 16.8615 64.1054 19.0909 64.1054C28.5793 64.1086 38.0708 64.1054 47.5592 64.1054C47.7748 64.1054 47.9905 64.1054 48.203 64.083C49.8964 63.9098 51.0825 63.0151 51.7135 61.4309C52.2273 60.145 51.9831 58.7917 51.9958 57.4769C51.3425 57.3133 50.7622 57.1658 50.1057 57.0023C50.1057 57.7142 50.1089 58.3812 50.1057 59.045C50.093 60.9627 48.9102 62.1877 47.0042 62.1909C37.8806 62.2006 28.7537 62.2006 19.63 62.1909C17.7463 62.1909 16.5951 60.9916 16.5698 59.0867C16.5603 58.3331 16.5698 57.5763 16.5698 56.7361L16.5666 56.7329ZM16.5285 30.6901C15.8594 30.8633 15.2854 31.014 14.6607 31.1744C14.6607 31.9248 14.6512 32.6559 14.6702 33.3903C14.6702 33.5089 14.7748 33.6917 14.8732 33.727C15.4059 33.9162 15.9514 34.0701 16.5254 34.2433V30.6901H16.5285ZM51.9767 33.5314V31.1647C51.3457 31.0076 50.7558 30.8569 50.1533 30.7062V33.9868C50.7844 33.8296 51.3615 33.6853 51.9767 33.5314Z" fill="black"/>
<path d="M19.3505 19.232C19.3505 20.4698 19.36 21.7076 19.3505 22.9423C19.3346 24.674 18.2405 25.9086 16.5407 25.9503C13.9657 26.0112 11.3906 26.008 8.81558 25.9503C7.15068 25.915 6.00269 24.7092 5.98049 23.0224C5.94561 20.4634 5.94243 17.9011 5.98049 15.3388C6.00903 13.5943 7.22362 12.4431 8.95829 12.4334C11.4255 12.4206 13.8959 12.4206 16.3632 12.4334C18.1708 12.4431 19.3346 13.6264 19.3505 15.4543C19.3632 16.7114 19.3505 17.9717 19.3505 19.2287V19.232ZM12.6908 14.3704C11.4889 14.3704 10.287 14.364 9.08831 14.3704C8.21305 14.3768 7.88324 14.7071 7.88007 15.589C7.87372 17.9973 7.87372 20.4057 7.88007 22.8108C7.88007 23.6798 8.23525 24.0294 9.101 24.0326C11.4826 24.039 13.8642 24.039 16.2426 24.0326C17.0862 24.0326 17.435 23.6991 17.4382 22.8621C17.4477 20.4121 17.4477 17.9588 17.4382 15.5088C17.435 14.6847 17.1179 14.3768 16.2966 14.3704C15.0947 14.3576 13.8928 14.3704 12.694 14.3704H12.6908Z" fill="black"/>
<path d="M33.3611 24.2991C37.0905 24.3055 40.3791 26.7107 41.5556 30.2895C42.7258 33.8491 41.508 37.7326 38.5017 40.0415C35.5715 42.2927 31.5027 42.3953 28.4583 40.2628C28.0905 40.0062 27.7956 39.9774 27.4087 40.1409C26.9361 40.3397 26.4414 40.4969 25.9531 40.6572C25.3949 40.84 24.8875 40.7278 24.4689 40.3109C24.0471 39.8972 23.9171 39.3809 24.0979 38.8165C24.3548 38.0116 24.6687 37.2259 24.9002 36.4178C24.9985 36.0682 25.0461 35.6513 24.9573 35.305C23.508 29.7507 27.6687 24.2863 33.3643 24.2959L33.3611 24.2991ZM26.2353 38.483C26.4953 38.4092 26.6285 38.3932 26.7395 38.3355C27.7765 37.8127 28.6708 38.0052 29.6032 38.7042C30.8304 39.6246 32.2765 39.9261 33.8082 39.8363C37.5186 39.6214 40.4869 36.0522 40.0429 32.3226C39.5704 28.3526 35.9203 25.5819 32.1465 26.329C28.1507 27.1211 25.7564 31.011 26.8632 34.9587C27.0503 35.6193 27.044 36.2286 26.7934 36.8603C26.5968 37.3574 26.4414 37.8705 26.2321 38.483H26.2353Z" fill="black"/>
<path d="M50.3339 45.5861C50.3339 44.3515 50.3212 43.1137 50.3371 41.879C50.3561 40.6027 51.3646 40.0062 52.4555 40.6348C54.5961 41.8694 56.7271 43.1201 58.855 44.3772C59.9713 45.0378 59.9618 46.2307 58.8424 46.8945C56.7335 48.142 54.6183 49.3766 52.4999 50.6016C51.3646 51.259 50.3561 50.6786 50.3403 49.3638C50.3244 48.1067 50.3371 46.8496 50.3403 45.5894L50.3339 45.5861ZM52.2715 48.4948C53.9333 47.5263 55.5126 46.6027 57.1806 45.6278C55.5062 44.6497 53.9174 43.7262 52.2715 42.7641V48.4948Z" fill="black"/>
<path d="M54.1138 17.9268C54.6783 17.9268 55.1508 17.9108 55.6201 17.93C56.1941 17.9557 56.562 18.3309 56.5747 18.86C56.5873 19.3892 56.2385 19.7836 55.6709 19.8509C55.4172 19.8798 55.1571 19.8638 54.9002 19.8638C54.6656 19.8638 54.4341 19.8638 54.1043 19.8638C54.1043 20.1299 54.1043 20.3576 54.1043 20.5853C54.1043 22.2978 54.1074 24.0102 54.1043 25.7259C54.1043 26.5115 53.7649 26.9349 53.1624 26.9445C52.5313 26.9573 52.1888 26.5244 52.1857 25.7002C52.1825 23.9878 52.1857 22.2753 52.1857 20.5597C52.1857 20.348 52.1857 20.1363 52.1857 19.8606C51.6783 19.8606 51.2311 19.8734 50.7871 19.8606C50.0863 19.8349 49.6867 19.4469 49.7121 18.8408C49.7343 18.2636 50.1212 17.9365 50.8093 17.9236C51.2374 17.914 51.6624 17.9236 52.1857 17.9236C52.1857 17.077 52.1857 16.2625 52.1857 15.4479C52.1888 13.3571 53.3432 12.1994 55.4203 12.1962C56.0007 12.1962 56.5778 12.1898 57.1582 12.1962C57.8654 12.209 58.2776 12.5746 58.2713 13.1711C58.2681 13.7611 57.8527 14.1235 57.1391 14.1363C56.4541 14.1492 55.766 14.1299 55.081 14.146C54.5324 14.1588 54.155 14.4538 54.1296 15.0022C54.0852 15.9482 54.1169 16.9006 54.1169 17.9268H54.1138Z" fill="black"/>
<path d="M6.97946 47.9751C4.94035 46.1408 4.54077 43.9313 5.156 41.4524C5.45409 40.2466 6.59574 39.9323 7.45198 40.827C8.22259 41.632 9.11054 42.1835 10.2427 42.3759C10.3093 42.1675 10.3695 41.9655 10.4361 41.7634C11.137 39.6437 13.6391 38.733 15.4721 39.974C15.9446 40.2947 16.3378 40.3749 16.8294 40.144C17.4541 39.8522 18.0503 39.9163 18.5609 40.3877C19.0746 40.8591 19.1856 41.4588 18.9668 42.113C18.7892 42.6421 18.6687 43.2225 18.3674 43.6779C17.8473 44.4636 17.5524 45.3198 17.2416 46.1953C16.0587 49.5464 13.5503 51.1723 10.1571 51.5347C9.00272 51.6597 7.84204 51.6309 6.73528 51.1755C6.13274 50.9254 5.6634 50.5534 5.47629 49.8864C5.22576 48.9981 5.54289 48.4048 6.41815 48.1547C6.57989 48.1066 6.74162 48.052 6.97629 47.9815L6.97946 47.9751ZM8.46361 49.5432C11.6793 50.1108 14.7078 48.2284 15.5767 45.1466C15.7955 44.3706 15.9795 43.6106 16.5535 43.0013C16.7406 42.8024 16.8167 42.4946 16.9721 42.1771C16.1127 42.2284 15.3294 42.4208 14.6856 41.7891C14.2258 41.3369 13.6708 41.2343 13.0809 41.4812C12.453 41.7442 12.2089 42.2637 12.1708 42.9243C12.0979 44.2455 11.8695 44.4476 10.5566 44.3738C10.3632 44.3642 10.1634 44.361 9.98581 44.2968C8.93295 43.9216 7.88327 43.5304 6.85261 43.152C6.65917 44.3738 7.15388 45.6405 8.26699 46.4935C8.62217 46.7661 9.03126 46.9681 9.41815 47.2022C10.1475 47.6416 10.1824 48.4465 9.48158 48.9339C9.18348 49.1424 8.85684 49.3091 8.46361 49.5432Z" fill="black"/>
<path d="M33.3421 5.28889C32.8347 5.29851 32.3907 4.872 32.3717 4.35891C32.3526 3.82978 32.8188 3.34875 33.3452 3.36158C33.8526 3.3712 34.2744 3.81054 34.2744 4.33005C34.2744 4.84955 33.8526 5.28248 33.3421 5.2921V5.28889Z" fill="black"/>
<path d="M15.5388 19.2065C15.5293 20.7971 14.2323 22.1023 12.6561 22.0959C11.0864 22.0895 9.79251 20.7714 9.79885 19.1841C9.80519 17.5935 11.1054 16.2883 12.6783 16.2979C14.2545 16.3043 15.5452 17.6191 15.5388 19.2097V19.2065ZM12.6371 18.2284C12.1265 18.2477 11.7143 18.687 11.7238 19.2097C11.7333 19.7549 12.1931 20.1846 12.7323 20.1493C13.2397 20.1173 13.6519 19.6523 13.6234 19.1488C13.5948 18.6421 13.1318 18.2124 12.6371 18.2316V18.2284Z" fill="black"/>
<path d="M30.0254 32.0822C30.2442 31.4569 30.4155 30.8091 30.6914 30.2094C30.9355 29.6739 31.462 29.5167 31.9313 29.7316C32.4324 29.9657 32.6131 30.4788 32.3848 31.0496C32.3055 31.2516 32.1945 31.4408 32.1343 31.6461C31.925 32.3452 32.0645 32.7236 32.8129 33.1212C33.5296 33.5028 34.1892 34.4424 35.1311 33.5189C35.2992 33.3553 35.426 33.1469 35.5814 32.9705C35.9429 32.5536 36.3901 32.4638 36.8499 32.7556C37.3224 33.0571 37.4239 33.5445 37.1607 34.0095C36.333 35.4718 34.6015 36.4916 32.7971 35.3885C32.3023 35.087 31.7981 34.7952 31.3224 34.4617C30.5455 33.9197 30.1396 33.0827 30.0286 32.0854L30.0254 32.0822Z" fill="black"/>
</g>
<defs>
<clipPath id="clip0_3361_8707">
<rect width="66" height="66" fill="white" transform="translate(0 0.0390625)"/>
</clipPath>
</defs>
</svg>
