<svg width="66" height="67" viewBox="0 0 66 67" fill="none" xmlns="http://www.w3.org/2000/svg">
<g clip-path="url(#clip0_3361_8724)">
<path d="M0 35.6044C0.238477 35.2037 0.43957 34.7477 0.719297 34.4092C4.34156 30.0363 7.97414 25.6806 11.6041 21.3215C11.6841 21.2248 11.7627 21.128 11.8491 21.0417C12.2989 20.5875 12.8404 20.6151 13.1884 21.109C13.5506 21.622 13.5429 22.4251 13.1175 22.9605C12.3686 23.9086 11.5925 24.8188 10.8255 25.7411C9.61125 27.2022 8.39566 28.6615 7.17492 30.114C7.08598 30.2193 6.95836 30.2677 6.84879 30.3437C6.89648 30.4162 6.94289 30.4888 6.99059 30.5613C8.38277 29.4491 9.77367 28.3334 11.1659 27.2229C16.1816 23.223 21.1973 19.2231 26.2131 15.2249C27.6001 14.1196 28.4006 14.3804 29.272 16.2301C31.417 20.7757 33.5582 25.3248 35.7019 29.8722C35.872 30.2332 36.0461 30.5907 36.2472 31.0121C36.8311 30.5509 37.3815 30.1244 37.9281 29.6874C40.7279 27.4457 43.5097 25.159 46.3315 22.9656C49.9641 20.1419 53.625 17.3855 57.2782 14.6118C58.0039 14.0609 58.5892 14.2595 59.1177 15.2318C59.9143 16.6964 60.6878 18.1834 61.4728 19.6583C61.5579 19.8172 61.6507 19.9692 61.8299 20.2783C62.5518 15.0384 63.253 9.9539 63.9684 4.75887C60.1193 4.11295 56.3256 3.47566 52.3875 2.81592C53.0604 4.07668 53.6546 5.19237 54.2502 6.30805C54.5003 6.77609 54.7516 7.2424 54.9991 7.71216C55.6811 9.00919 55.5483 9.87446 54.5196 10.7017C53.1764 11.7829 51.8255 12.845 50.4784 13.9158C46.9154 16.7465 43.3537 19.5789 39.7908 22.4095C38.6164 23.3421 38.1189 23.1694 37.4473 21.5995C34.94 15.7361 32.4341 9.87273 29.9269 4.00932C29.8225 3.76408 29.709 3.52574 29.5698 3.21832C28.1454 4.92812 26.7545 6.59302 25.3662 8.26137C22.2634 11.9884 19.1684 15.724 16.0501 19.4269C15.7884 19.7378 15.3669 19.9847 15.0356 19.9519C14.7752 19.926 14.4478 19.4839 14.3176 19.1177C14.1114 18.5409 14.3357 18.0262 14.6902 17.6031C16.6934 15.2094 18.6875 12.8018 20.6869 10.3995C23.1645 7.42029 25.6433 4.44282 28.1222 1.46535C29.3893 -0.0562009 30.525 0.192497 31.3719 2.17345C33.7941 7.83651 36.2162 13.5013 38.6384 19.1644C38.7441 19.4113 38.8575 19.6549 39.0161 20.0089C43.7314 16.2612 48.4262 12.5272 53.1751 8.75359C52.198 6.92462 51.266 5.13883 50.2992 3.38585C49.8661 2.60003 49.6573 1.80213 50.0517 0.919594C50.4526 0.0215174 51.0971 -0.0320218 51.8061 0.0906002C55.7842 0.777974 59.7648 1.4429 63.7467 2.10436C64.6426 2.25289 65.5785 2.26498 65.9961 3.65182V4.86077C65.7396 6.53948 65.4637 8.21129 65.2291 9.89518C64.6529 14.0177 64.0948 18.1454 63.5302 22.2714C63.4116 23.1418 63.0687 23.7687 62.4074 23.9656C61.7384 24.1642 61.2498 23.7497 60.8721 23.0313C59.9814 21.3387 59.0868 19.6497 58.1921 17.9606C58.0697 17.7292 57.9408 17.5047 57.7874 17.2249C56.9469 17.8777 56.1361 18.5081 55.3317 19.135C55.7094 19.9588 56.0974 20.7084 56.412 21.5097C57.1274 23.3318 56.6904 25.5666 55.3949 26.6771C54.6369 27.3265 53.8609 27.9586 53.0462 28.4664C52.5396 28.7824 51.9466 28.855 51.3704 29.0432C50.7813 32.7599 49.5155 36.2658 48.5745 39.9186C48.4249 40.4971 48.4378 40.8995 48.7124 41.409C50.1355 44.0411 51.52 46.7111 52.9341 49.3518C53.4845 50.3812 53.6327 51.4779 53.4149 52.7006C52.9508 55.2999 52.5048 57.9026 52.0511 60.5052C51.8293 61.7746 51.5096 62.1183 50.53 62.1304C49.9073 62.1373 49.2834 62.1546 48.6608 62.1252C47.8165 62.0855 47.3834 61.4931 47.4388 60.3705C47.5187 58.735 47.6283 57.1012 47.7701 55.4726C47.8603 54.4363 47.6399 53.6851 46.9309 53.1877C46.307 52.7507 45.7076 52.2516 45.0527 51.7456C44.8336 52.4606 44.6235 53.084 44.4507 53.7282C44.1762 54.7507 43.6838 55.5175 42.9902 56.0529C40.9084 57.6625 38.824 59.2652 36.7396 60.8697C36.6648 60.9267 36.5875 60.9785 36.5088 61.0216C35.3306 61.6624 33.0657 59.3792 33.2771 57.697C33.3403 57.1893 33.6342 56.6522 33.9333 56.2929C35.3113 54.6453 36.7447 53.0806 38.1163 51.426C38.4244 51.0547 38.6835 50.4727 38.7711 49.9321C39.3821 46.1706 39.9403 42.3935 40.5191 38.6233C40.6777 37.5905 41.0077 37.1432 41.5645 37.1622C42.1523 37.1829 42.4372 37.6596 42.5404 38.8668C43.7779 39.055 45.0282 39.264 46.2838 39.4125C46.4411 39.4315 46.713 39.1725 46.7723 38.9618C47.587 36.0879 48.3837 33.2055 49.1661 30.3143C49.6598 28.4905 49.2602 26.855 48.4623 25.368C48.3437 25.1487 47.8887 24.9898 47.725 25.1159C43.2132 28.6201 38.7196 32.1658 34.2246 35.7045C34.2091 35.7166 34.2027 35.7512 34.1911 35.7753C34.6668 36.5577 35.1295 36.682 35.9249 36.1691C37.5104 35.1484 39.087 34.1053 40.6673 33.069C41.8043 32.3229 42.9387 31.5716 44.0769 30.8307C44.773 30.3782 45.3144 30.5285 45.5903 31.2331C45.8803 31.974 45.647 32.6873 44.9341 33.1571C42.2 34.955 39.4685 36.7649 36.7228 38.53C34.7596 39.7925 32.5772 38.5611 31.9726 35.9187C31.7805 35.0793 31.9301 34.4714 32.5089 34.0275C33.1934 33.5042 33.8637 32.9429 34.5843 32.3609C32.2008 27.304 29.8457 22.3059 27.4661 17.2577C26.7223 17.8501 26.0287 18.4027 25.3636 18.9312C25.7812 19.8137 26.2182 20.622 26.5663 21.4959C27.2856 23.3042 26.8937 25.4889 25.6304 26.608C24.8273 27.3196 23.9843 27.969 23.1155 28.5251C22.6488 28.8239 22.0907 28.8653 21.7104 28.981C20.7049 32.6925 19.7136 36.3833 18.6979 40.0636C18.5612 40.561 18.6231 40.9065 18.8435 41.3175C20.2692 43.9824 21.6743 46.6697 23.0948 49.3397C23.6388 50.3622 23.8193 51.445 23.5924 52.6816C23.1064 55.3327 22.654 57.9924 22.1848 60.6486C21.9914 61.7418 21.6717 62.1011 20.8454 62.1252C20.1803 62.1442 19.5138 62.1477 18.8474 62.1235C17.9528 62.0907 17.5338 61.4292 17.6099 60.2186C17.7169 58.5278 17.8174 56.8352 17.9373 55.1462C18.0005 54.2619 17.7323 53.6574 17.1639 53.2377C16.5296 52.7697 15.9057 52.2792 15.2225 51.7559C14.9957 52.4847 14.8552 53.1963 14.5716 53.7835C14.1964 54.5589 13.8097 55.4553 13.2516 55.9216C11.1581 57.6694 8.9925 59.2618 6.85266 60.9111C6.79723 60.9543 6.73535 60.9837 6.67605 61.0165C5.53652 61.6417 3.28969 59.4241 3.40699 57.7851C3.41859 57.6141 3.41602 57.3844 3.49336 57.2894C4.32094 56.2739 5.13563 55.2273 6.03152 54.3293C6.18363 54.1773 6.80238 54.5676 7.03055 54.9147C7.36957 55.4328 7.20199 56.065 6.8359 56.5278C6.46336 56.9976 6.06633 57.4311 5.68219 57.8784C5.93613 58.4777 6.21199 58.4431 6.59227 58.1443C8.3325 56.7782 10.0663 55.3914 11.8452 54.1185C12.9267 53.3448 13.0002 51.8578 13.4398 50.623C13.4707 50.5366 13.3702 50.3173 13.2915 50.2136C12.6457 49.3829 11.9909 48.5643 11.287 47.6766C11.1349 48.6524 11.0382 49.6972 10.7985 50.6782C10.6038 51.4727 10.3061 52.2619 9.92965 52.9251C9.57516 53.5503 9.02086 53.5106 8.61352 53.0391C8.19586 52.5555 8.18684 51.8716 8.53359 51.1843C8.70633 50.8406 8.85973 50.4416 8.92289 50.0409C9.64863 45.402 10.3563 40.7579 11.0666 36.1138C11.0743 36.062 11.0563 36.0033 11.037 35.8254C9.67699 36.7149 8.33895 37.5767 7.00863 38.4644C6.03539 39.1155 5.03121 39.3227 4.03605 38.6785C3.49078 38.3245 3.02156 37.758 2.48789 37.2606C0.959062 38.3936 0.614883 37.6855 0 36.6406C0 36.2952 0 35.9498 0 35.6044ZM12.6341 38.8495C13.8922 39.0447 15.0859 39.2053 16.2718 39.4264C16.6895 39.5041 16.8713 39.3417 17.0118 38.8115C17.695 36.2434 18.3782 33.6718 19.1245 31.1364C19.684 29.2366 19.6801 27.4698 18.8203 25.7238C18.3872 24.843 18.15 24.6979 17.4771 25.2333C13.4784 28.4215 9.47977 31.6131 5.48367 34.8064C5.08535 35.1242 4.69348 35.4558 4.27195 35.8047C4.99512 36.7408 5.67059 36.4713 6.39117 35.9929C9.02086 34.2434 11.6609 32.5215 14.3009 30.7962C14.9738 30.3558 15.5255 30.5596 15.7807 31.3074C16.0256 32.0241 15.8104 32.6804 15.1684 33.1191C14.7108 33.4317 14.2209 33.6735 13.7891 34.0414C13.5519 34.2434 13.3057 34.6026 13.24 34.9515C13.0028 36.2002 12.8416 37.473 12.6354 38.8495H12.6341ZM19.6054 59.4379C20.1455 59.6573 20.4213 59.5554 20.5451 58.754C20.8738 56.6176 21.2605 54.495 21.6627 52.3811C21.7916 51.7058 21.7181 51.1843 21.4139 50.6212C20.2164 48.4106 18.993 46.2172 17.8922 43.9219C17.2605 42.6059 16.5503 41.8494 15.3386 41.8443C14.3254 41.8408 13.3121 41.5783 12.3054 41.4315C11.9509 44.1672 12.8919 46.8597 14.7146 48.3484C15.8684 49.2914 17.0607 50.148 18.2235 51.0703C19.3772 51.9856 19.947 53.3465 19.8696 55.16C19.8464 55.7057 19.8103 56.2498 19.7768 56.7938C19.7214 57.6746 19.6634 58.5537 19.6066 59.4345L19.6054 59.4379ZM42.1278 41.4142C41.7592 44.0998 42.7595 46.9011 44.5642 48.3622C45.6831 49.2672 46.8303 50.11 47.9596 50.9908C49.3079 52.0443 49.8713 53.6108 49.6908 55.6919C49.5825 56.9354 49.5284 58.1893 49.4471 59.4897H50.2373C50.6808 56.9751 51.1371 54.4968 51.5354 52.0029C51.596 51.6195 51.4607 51.0841 51.2841 50.7421C49.8816 48.0254 48.4507 45.3347 47.0173 42.6456C46.9012 42.4297 46.7195 42.1638 46.5468 42.131C45.085 41.865 43.6193 41.6491 42.1291 41.4142H42.1278ZM41.1288 47.6818C41.0889 47.9184 41.0115 48.2137 40.9922 48.5142C40.8259 51.091 40.0061 53.1082 38.3805 54.6125C37.3519 55.5641 36.4598 56.7851 35.515 57.8749C35.7728 58.4328 36.0254 58.4656 36.3967 58.172C37.9075 56.9751 39.3925 55.6971 40.9716 54.685C42.2464 53.8681 42.851 52.5348 43.2107 50.8613C43.2519 50.6679 43.221 50.3432 43.123 50.2119C42.4759 49.3518 41.803 48.528 41.1275 47.6818H41.1288ZM23.4854 20.6911C22.8357 21.166 22.2557 21.5805 21.6833 22.0123C20.0875 23.2161 20.1171 23.4302 20.9447 25.463C21.2708 26.2644 21.7968 26.5424 22.3962 26.1245C23.1 25.634 23.7884 25.102 24.4612 24.5407C24.9949 24.0952 25.1264 23.4164 24.8583 22.6738C24.71 22.261 24.5554 21.8292 24.3298 21.4959C24.1171 21.1816 23.8051 20.9882 23.4854 20.6928V20.6911ZM51.6991 26.3093C51.8229 26.2885 51.9454 26.3127 52.0317 26.2471C52.849 25.6288 53.6843 25.0416 54.4655 24.3456C54.8818 23.9725 54.9037 23.3197 54.6988 22.7118C54.5673 22.3215 54.4049 21.9467 54.2321 21.5857C53.8751 20.8431 53.3814 20.679 52.8026 21.116C52.0949 21.6496 51.3885 22.1902 50.7014 22.7688C50.5209 22.9207 50.3495 23.1988 50.2825 23.4665C50.1175 24.1314 50.8458 25.9604 51.3408 26.2091C51.4581 26.2678 51.5896 26.2799 51.7004 26.3093H51.6991Z" fill="black"/>
<path d="M31.6276 59.2637C31.9757 59.5417 32.2348 59.6851 32.4372 59.9182C33.3988 61.0184 34.3527 62.1341 35.2963 63.2618C35.8042 63.8698 35.8764 64.6711 35.5064 65.229C35.1184 65.8127 34.5551 65.8196 34.0227 65.2048C33.0482 64.0787 32.0852 62.9389 31.121 61.7973C30.7691 61.3811 30.5654 60.8353 30.8168 60.2688C30.9921 59.8751 31.335 59.6143 31.6276 59.2637Z" fill="black"/>
<path d="M6.0293 64.46C5.81402 64.8193 5.65934 65.2977 5.39508 65.46C5.13082 65.6224 4.65387 65.6396 4.45148 65.4203C3.3184 64.1941 2.2227 62.904 1.15148 61.5776C0.753164 61.0854 0.781524 60.4256 1.15148 59.8764C1.52402 59.3237 1.99969 59.2477 2.41734 59.7158C3.50402 60.9316 4.56492 62.1889 5.61422 63.4601C5.78953 63.6725 5.85914 64.0386 6.02801 64.46H6.0293Z" fill="black"/>
<path d="M50.2981 66.0309C49.6781 66.0309 49.0567 66.0499 48.438 66.0257C47.8205 66.0015 47.4441 65.511 47.4338 64.7753C47.4235 64.0448 47.796 63.4783 48.3993 63.461C49.6819 63.4247 50.9658 63.423 52.2485 63.4645C52.8247 63.4817 53.2269 64.119 53.2036 64.8133C53.1804 65.4817 52.7873 65.9964 52.2227 66.024C51.582 66.0551 50.9401 66.0309 50.2981 66.0326V66.0309Z" fill="black"/>
<path d="M20.4158 66.0325C19.8138 66.0325 19.2118 66.0515 18.6111 66.0273C18.0001 66.0032 17.6018 65.4971 17.5863 64.7804C17.5721 64.0775 17.9769 63.4765 18.5673 63.4609C19.8344 63.4281 21.1029 63.4281 22.3687 63.4627C22.9875 63.4799 23.3561 64.0239 23.3471 64.7614C23.3381 65.511 22.9707 65.9997 22.3481 66.0256C21.7049 66.0515 21.059 66.0308 20.4145 66.0325H20.4158Z" fill="black"/>
</g>
<defs>
<clipPath id="clip0_3361_8724">
<rect width="66" height="66" fill="white" transform="translate(0 0.0390625)"/>
</clipPath>
</defs>
</svg>
