<svg width="650" height="384" viewBox="0 0 650 384" fill="none" xmlns="http://www.w3.org/2000/svg">
<g clip-path="url(#clip0_3355_7778)">
<path fill-rule="evenodd" clip-rule="evenodd" d="M525.358 235.785H582.795C584.082 235.785 585.263 236.313 586.118 237.168L586.166 237.216C586.992 238.062 587.501 239.214 587.501 240.482V271.684C587.501 272.971 586.973 274.152 586.118 275.007L586.06 275.055C585.215 275.881 584.063 276.391 582.795 276.391H577.829L573.516 280.973L573.497 280.992L573.44 281.05C573.411 281.078 573.382 281.098 573.353 281.117C572.95 281.472 572.45 281.645 571.951 281.645C571.423 281.645 570.904 281.453 570.491 281.069L570.472 281.05L570.414 280.992C570.395 280.973 570.376 280.944 570.356 280.925L566.082 276.381H525.348C524.051 276.381 522.88 275.853 522.025 274.998L521.977 274.95C521.151 274.104 520.642 272.952 520.642 271.684V240.482C520.642 239.186 521.17 238.014 522.025 237.159C522.044 237.139 522.063 237.13 522.082 237.111C522.928 236.285 524.09 235.775 525.348 235.775L525.358 235.785Z" fill="#FF7F18"/>
<path d="M112.838 91.7109H519.624C524.887 91.7109 529.162 95.9857 529.162 101.25V346.286C529.162 351.55 524.887 355.825 519.624 355.825H112.838C107.575 355.825 103.301 351.55 103.301 346.286V101.25C103.301 95.9857 107.575 91.7109 112.838 91.7109Z" fill="#FF602D"/>
<path fill-rule="evenodd" clip-rule="evenodd" d="M537.652 235.785V276.381H526.145C524.848 276.381 523.676 275.853 522.822 274.998L522.774 274.95C521.948 274.104 521.438 272.952 521.438 271.684V240.482C521.438 239.186 521.967 238.014 522.822 237.159C522.841 237.139 522.86 237.13 522.879 237.111C523.724 236.285 524.887 235.775 526.145 235.775H537.652V235.785Z" fill="#FF7F18"/>
<path fill-rule="evenodd" clip-rule="evenodd" d="M112.838 91.7109H335.71V355.825H112.838C107.594 355.825 103.301 351.531 103.301 346.286V101.25C103.301 96.0049 107.594 91.7109 112.838 91.7109Z" fill="#E4D9E1"/>
<path d="M335.71 100.529H317.835V117.552H335.71V100.529Z" fill="white"/>
<path d="M299.961 100.529H282.086V117.552H299.961V100.529Z" fill="white"/>
<path d="M264.202 100.529H246.327V117.552H264.202V100.529Z" fill="white"/>
<path d="M228.443 100.529H210.568V117.552H228.443V100.529Z" fill="white"/>
<path d="M192.693 100.529H174.818V117.552H192.693V100.529Z" fill="white"/>
<path d="M156.934 100.529H139.06V117.552H156.934V100.529Z" fill="white"/>
<path fill-rule="evenodd" clip-rule="evenodd" d="M112.838 100.529H121.175V117.552H103.301V109.751C103.301 104.679 107.594 100.529 112.838 100.529Z" fill="white"/>
<path d="M317.836 117.542H299.961V134.564H317.836V117.542Z" fill="white"/>
<path d="M282.076 117.542H264.201V134.564H282.076V117.542Z" fill="white"/>
<path d="M246.327 117.542H228.452V134.564H246.327V117.542Z" fill="white"/>
<path d="M210.568 117.542H192.693V134.564H210.568V117.542Z" fill="white"/>
<path d="M174.809 117.542H156.935V134.564H174.809V117.542Z" fill="white"/>
<path d="M139.059 117.542H121.185V134.564H139.059V117.542Z" fill="white"/>
<path d="M121.175 134.564H103.301V151.587H121.175V134.564Z" fill="white"/>
<path d="M156.934 134.564H139.06V151.587H156.934V134.564Z" fill="white"/>
<path d="M192.693 134.564H174.818V151.587H192.693V134.564Z" fill="white"/>
<path d="M228.443 134.564H210.568V151.587H228.443V134.564Z" fill="white"/>
<path d="M264.202 134.564H246.327V151.587H264.202V134.564Z" fill="white"/>
<path d="M299.961 134.564H282.086V151.587H299.961V134.564Z" fill="white"/>
<path d="M335.71 134.564H317.835V151.587H335.71V134.564Z" fill="white"/>
<path d="M139.059 151.587H121.185V168.609H139.059V151.587Z" fill="white"/>
<path d="M174.809 151.587H156.935V168.609H174.809V151.587Z" fill="white"/>
<path d="M210.568 151.587H192.693V168.609H210.568V151.587Z" fill="white"/>
<path d="M246.327 151.587H228.452V168.609H246.327V151.587Z" fill="white"/>
<path d="M282.076 151.587H264.201V168.609H282.076V151.587Z" fill="white"/>
<path d="M317.836 151.587H299.961V168.609H317.836V151.587Z" fill="white"/>
<path d="M335.71 168.608H317.835V185.631H335.71V168.608Z" fill="white"/>
<path d="M299.961 168.608H282.086V185.631H299.961V168.608Z" fill="white"/>
<path d="M264.202 168.608H246.327V185.631H264.202V168.608Z" fill="white"/>
<path d="M228.443 168.608H210.568V185.631H228.443V168.608Z" fill="white"/>
<path d="M192.693 168.608H174.818V185.631H192.693V168.608Z" fill="white"/>
<path d="M156.934 168.608H139.06V185.631H156.934V168.608Z" fill="white"/>
<path d="M121.175 168.608H103.301V185.631H121.175V168.608Z" fill="white"/>
<path d="M317.836 185.631H299.961V202.653H317.836V185.631Z" fill="white"/>
<path d="M282.076 185.631H264.201V202.653H282.076V185.631Z" fill="white"/>
<path d="M246.327 185.631H228.452V202.653H246.327V185.631Z" fill="white"/>
<path d="M210.568 185.631H192.693V202.653H210.568V185.631Z" fill="white"/>
<path d="M174.809 185.631H156.935V202.653H174.809V185.631Z" fill="white"/>
<path d="M139.059 185.631H121.185V202.653H139.059V185.631Z" fill="white"/>
<path d="M121.175 202.644H103.301V219.666H121.175V202.644Z" fill="white"/>
<path d="M156.934 202.644H139.06V219.666H156.934V202.644Z" fill="white"/>
<path d="M192.693 202.644H174.818V219.666H192.693V202.644Z" fill="white"/>
<path d="M228.443 202.644H210.568V219.666H228.443V202.644Z" fill="white"/>
<path d="M264.202 202.644H246.327V219.666H264.202V202.644Z" fill="white"/>
<path d="M299.961 202.644H282.086V219.666H299.961V202.644Z" fill="white"/>
<path d="M335.71 202.644H317.835V219.666H335.71V202.644Z" fill="white"/>
<path d="M139.059 219.666H121.185V236.688H139.059V219.666Z" fill="white"/>
<path d="M174.809 219.666H156.935V236.688H174.809V219.666Z" fill="white"/>
<path d="M210.568 219.666H192.693V236.688H210.568V219.666Z" fill="white"/>
<path d="M246.327 219.666H228.452V236.688H246.327V219.666Z" fill="white"/>
<path d="M282.076 219.666H264.201V236.688H282.076V219.666Z" fill="white"/>
<path d="M317.836 219.666H299.961V236.688H317.836V219.666Z" fill="white"/>
<path d="M335.71 236.688H317.835V253.711H335.71V236.688Z" fill="white"/>
<path d="M299.961 236.688H282.086V253.711H299.961V236.688Z" fill="white"/>
<path d="M264.202 236.688H246.327V253.711H264.202V236.688Z" fill="white"/>
<path d="M228.443 236.688H210.568V253.711H228.443V236.688Z" fill="white"/>
<path d="M192.693 236.688H174.818V253.711H192.693V236.688Z" fill="white"/>
<path d="M156.934 236.688H139.06V253.711H156.934V236.688Z" fill="white"/>
<path d="M121.175 236.688H103.301V253.711H121.175V236.688Z" fill="white"/>
<path d="M317.836 253.711H299.961V270.733H317.836V253.711Z" fill="white"/>
<path d="M282.076 253.711H264.201V270.733H282.076V253.711Z" fill="white"/>
<path d="M246.327 253.711H228.452V270.733H246.327V253.711Z" fill="white"/>
<path d="M210.568 253.711H192.693V270.733H210.568V253.711Z" fill="white"/>
<path d="M174.809 253.711H156.935V270.733H174.809V253.711Z" fill="white"/>
<path d="M139.059 253.711H121.185V270.733H139.059V253.711Z" fill="white"/>
<path d="M121.175 270.723H103.301V287.745H121.175V270.723Z" fill="white"/>
<path d="M156.934 270.723H139.06V287.745H156.934V270.723Z" fill="white"/>
<path d="M192.693 270.723H174.818V287.745H192.693V270.723Z" fill="white"/>
<path d="M228.443 270.723H210.568V287.745H228.443V270.723Z" fill="white"/>
<path d="M264.202 270.723H246.327V287.745H264.202V270.723Z" fill="white"/>
<path d="M299.961 270.723H282.086V287.745H299.961V270.723Z" fill="white"/>
<path d="M335.71 270.723H317.835V287.745H335.71V270.723Z" fill="white"/>
<path d="M139.059 287.745H121.185V304.767H139.059V287.745Z" fill="white"/>
<path d="M174.809 287.745H156.935V304.767H174.809V287.745Z" fill="white"/>
<path d="M210.568 287.745H192.693V304.767H210.568V287.745Z" fill="white"/>
<path d="M246.327 287.745H228.452V304.767H246.327V287.745Z" fill="white"/>
<path d="M282.076 287.745H264.201V304.767H282.076V287.745Z" fill="white"/>
<path d="M317.836 287.745H299.961V304.767H317.836V287.745Z" fill="white"/>
<path d="M335.71 304.768H317.835V321.79H335.71V304.768Z" fill="white"/>
<path d="M299.961 304.768H282.086V321.79H299.961V304.768Z" fill="white"/>
<path d="M264.202 304.768H246.327V321.79H264.202V304.768Z" fill="white"/>
<path d="M228.443 304.768H210.568V321.79H228.443V304.768Z" fill="white"/>
<path d="M192.693 304.768H174.818V321.79H192.693V304.768Z" fill="white"/>
<path d="M156.934 304.768H139.06V321.79H156.934V304.768Z" fill="white"/>
<path d="M121.175 304.768H103.301V321.79H121.175V304.768Z" fill="white"/>
<path d="M317.836 321.79H299.961V338.812H317.836V321.79Z" fill="white"/>
<path d="M282.076 321.79H264.201V338.812H282.076V321.79Z" fill="white"/>
<path d="M246.327 321.79H228.452V338.812H246.327V321.79Z" fill="white"/>
<path d="M210.568 321.79H192.693V338.812H210.568V321.79Z" fill="white"/>
<path d="M174.809 321.79H156.935V338.812H174.809V321.79Z" fill="white"/>
<path d="M139.059 321.79H121.185V338.812H139.059V321.79Z" fill="white"/>
<path fill-rule="evenodd" clip-rule="evenodd" d="M121.185 355.825H112.848C107.604 355.825 103.311 351.675 103.311 346.603V338.803H121.185V355.825Z" fill="white"/>
<path d="M156.934 338.803H139.06V355.825H156.934V338.803Z" fill="white"/>
<path d="M192.693 338.803H174.818V355.825H192.693V338.803Z" fill="white"/>
<path d="M228.443 338.803H210.568V355.825H228.443V338.803Z" fill="white"/>
<path d="M264.202 338.803H246.327V355.825H264.202V338.803Z" fill="white"/>
<path d="M299.961 338.803H282.086V355.825H299.961V338.803Z" fill="white"/>
<path d="M335.71 338.803H317.835V355.825H335.71V338.803Z" fill="white"/>
<path fill-rule="evenodd" clip-rule="evenodd" d="M112.838 90.8555H519.614C522.476 90.8555 525.069 92.0274 526.952 93.9103C528.834 95.7931 530.006 98.3964 530.006 101.249V346.295C530.006 349.158 528.834 351.751 526.952 353.634C525.069 355.517 522.466 356.689 519.614 356.689H112.838C109.976 356.689 107.382 355.517 105.5 353.634C103.617 351.751 102.445 349.148 102.445 346.295V101.249C102.445 98.3964 103.617 95.7931 105.5 93.9103C107.382 92.0274 109.985 90.8555 112.838 90.8555ZM519.623 100.529H112.838C110.456 100.529 108.285 101.509 106.71 103.084C105.135 104.66 104.155 106.831 104.155 109.213V346.295C104.155 348.677 105.135 350.848 106.71 352.424C108.285 353.999 110.456 354.979 112.838 354.979H519.614C522.005 354.979 524.166 353.999 525.742 352.424C527.317 350.848 528.296 348.677 528.296 346.295V109.203C528.296 106.821 527.317 104.65 525.742 103.075C524.166 101.499 521.996 100.519 519.614 100.519L519.623 100.529Z" fill="#4C466A"/>
<path fill-rule="evenodd" clip-rule="evenodd" d="M100.169 79.021H532.292C533.934 79.021 535.279 77.6761 535.279 76.0334C535.279 74.3908 533.934 73.0459 532.292 73.0459H100.169C98.5263 73.0459 97.1816 74.3908 97.1816 76.0334C97.1816 77.6761 98.5263 79.021 100.169 79.021Z" fill="white"/>
<path fill-rule="evenodd" clip-rule="evenodd" d="M23.8298 378.15C22.8885 378.15 22.1201 377.382 22.1201 376.44C22.1201 375.499 22.8885 374.73 23.8298 374.73H626.18C627.121 374.73 627.89 375.499 627.89 376.44C627.89 377.382 627.121 378.15 626.18 378.15H23.8298Z" fill="white"/>
<path fill-rule="evenodd" clip-rule="evenodd" d="M238.748 356.891L227.28 369.619C227.28 369.619 210.827 334.278 207.369 302.097C203.911 269.906 229.441 274.959 233.168 276.025C236.894 277.092 254.98 280.55 256.575 287.466C258.169 294.383 238.748 356.9 238.748 356.9V356.891Z" fill="#FCD1C8"/>
<path fill-rule="evenodd" clip-rule="evenodd" d="M213.881 304.354L213.16 316.285C213.16 316.285 223.639 323.682 241.235 312.692C258.831 301.703 252.185 306.352 249.121 302.759C246.066 299.167 231.669 297.668 232.36 297.303C233.061 296.938 213.871 304.354 213.871 304.354H213.881Z" fill="#F8A8A0"/>
<path fill-rule="evenodd" clip-rule="evenodd" d="M213.795 214.844C193.106 238.398 197.207 287.505 196.006 310.868C195.881 313.346 196.794 314.192 199.041 314.97C217.387 321.348 222.237 308.764 239.449 306.555C257.122 304.287 213.795 214.844 213.795 214.844Z" fill="#4C466A"/>
<path fill-rule="evenodd" clip-rule="evenodd" d="M287.128 172.778C280.799 174.709 274.21 176.304 267.333 177.053L248.036 194.892L240.497 194.728C234.618 201.049 218.722 209.599 213.805 214.853C213.805 214.853 210.875 251.463 224.37 279.696C237.615 307.39 258.189 339.927 260.58 365.316C261.983 364.807 257.862 374.74 259.322 374.74H406.056C401.186 355.7 379.863 315.671 379.863 315.671C378.134 297.582 372.842 276.468 372.842 276.468L378.009 276.228C374.11 267.726 369.24 258.764 362.229 248.014L331.916 163.585C322.81 165.208 314.819 169.195 310.17 171.356C300.46 175.881 296.675 174.411 292.555 173.777C291.162 173.556 289.164 173.191 287.128 172.797V172.778Z" fill="#FF808F"/>
<path fill-rule="evenodd" clip-rule="evenodd" d="M254.164 340.752C257.487 349.369 259.514 367.083 260.234 374.729C289.26 372.299 277.504 305.459 262.069 323.605L259.101 327.092C259.101 327.092 256.786 333.144 254.164 340.752ZM377.078 296.391C375.051 285.267 372.842 276.448 372.842 276.448L378.009 276.208C374.11 267.706 369.24 258.744 362.228 247.994L359.251 239.704L353.286 250.002C353.286 250.002 352.528 279.099 377.087 296.391H377.078Z" fill="#D66982"/>
<path fill-rule="evenodd" clip-rule="evenodd" d="M287.128 172.778C280.798 174.709 274.209 176.303 267.332 177.053L248.036 194.891L240.496 194.728C234.618 201.049 218.722 209.599 213.804 214.853C213.804 214.853 212.181 235.094 216.907 257.082C216.417 254.661 213.804 239.839 220.864 231.664C228.577 222.75 250.389 200.136 271.799 193.085C293.208 186.034 317.431 186.563 334.125 216.323L345.708 202.01L331.906 163.565C322.8 165.189 314.809 169.175 310.16 171.337C300.45 175.861 296.666 174.392 292.545 173.758C291.152 173.537 289.155 173.172 287.118 172.778H287.128Z" fill="#4C466A"/>
<path fill-rule="evenodd" clip-rule="evenodd" d="M287.128 172.777C280.798 174.708 274.209 176.303 267.332 177.052L248.036 194.891L240.496 194.728C238.844 196.495 236.414 198.445 233.657 200.453C235.54 212.653 241.187 223.181 255.633 224.555C267.745 225.717 278.771 218.964 286.513 210.165C295.023 200.501 300.392 187.782 302.13 175.073C302.178 174.756 302.207 174.439 302.246 174.122C297.923 174.996 295.311 174.199 292.564 173.767C291.171 173.546 289.173 173.181 287.137 172.787L287.128 172.777Z" fill="#4C466A"/>
<path fill-rule="evenodd" clip-rule="evenodd" d="M239.766 166.668C237.336 168.455 233.244 170.232 233.244 170.232C233.244 170.232 236.443 177.13 237.739 180.377C239.036 183.624 241.706 189.541 242.119 191.001C242.522 192.461 240.496 194.728 240.496 194.728C240.496 194.728 240.765 213.432 256.555 214.94C272.346 216.448 289.327 197.408 292.564 173.767C288.453 173.124 278.992 171.155 278.992 171.155L281.22 161.568C265.661 159.041 239.775 166.688 239.775 166.688L239.766 166.668Z" fill="#F8A8A0"/>
<path fill-rule="evenodd" clip-rule="evenodd" d="M482.289 81.9315L402.29 281.098C401.685 282.616 402.425 284.345 403.952 284.95C405.469 285.555 407.198 284.815 407.803 283.288L488.686 81.9219H482.289V81.9315Z" fill="#4C466A"/>
<path fill-rule="evenodd" clip-rule="evenodd" d="M265.719 271.213L270.78 276.727C270.78 276.727 268.639 277.86 268.475 282.395C268.312 286.938 273.307 347.294 272.01 356.699C270.713 366.103 259.341 383.664 246.538 383.99C233.734 384.317 224.466 371.012 225.436 357.554C226.502 342.827 244.809 290.137 237.682 280.396L265.719 271.213Z" fill="#FCD1C8"/>
<path fill-rule="evenodd" clip-rule="evenodd" d="M268.187 273.912L270.771 276.736C270.771 276.736 268.629 277.87 268.466 282.404C268.437 283.163 268.466 285.094 268.504 287.822C258.208 291.943 251.725 284.124 251.725 284.124L256.114 275.478L268.178 273.912H268.187Z" fill="#F8A8A0"/>
<path fill-rule="evenodd" clip-rule="evenodd" d="M276.899 252.846C278.493 244.306 282.912 238.072 284.717 235.949C287.109 233.134 275.996 226.679 271.434 239.676C271.434 239.676 267.4 244.767 265.162 243.538C262.914 242.318 259.879 205.536 259.553 201.52C259.216 197.495 254.837 197.543 253.646 198.773C252.464 200.002 253.012 205.824 253.233 213.269C253.453 220.723 253.617 229.119 253.012 229.907C252.416 230.694 250.812 230.829 249.199 226.929C247.585 223.029 239.488 201.145 237.634 200.166C235.78 199.186 232.294 201.52 232.563 205.286C232.832 209.051 241.812 230.742 242.11 233.989C242.408 237.236 239.373 237.323 238.038 235.651C236.693 233.97 223.736 212.231 222.036 211.251C220.336 210.271 216.849 212.769 218.079 216.506C219.299 220.243 230.853 241.684 230.738 243.576C230.632 245.459 228.308 247.073 224.476 244.441C220.643 241.809 213.353 235.334 211.912 235.373C210.472 235.411 208.531 240.272 211.912 243.778C215.303 247.284 223.4 256.305 224.437 257.822C229.883 265.815 232.592 274.873 237.692 280.407C239.536 282.405 241.956 283.846 244.684 284.72C251.129 286.795 259.284 285.757 265.575 281.665C276.505 274.556 274.709 264.604 276.899 252.846Z" fill="#FCD1C8"/>
<path d="M244.598 270.512C244.386 270.512 244.194 270.349 244.175 270.137C241.86 250.137 264.816 243.192 265.047 243.125C265.267 243.057 265.508 243.192 265.575 243.413C265.642 243.643 265.508 243.874 265.287 243.941C265.066 244.008 242.792 250.752 245.02 270.032C245.049 270.272 244.876 270.483 244.646 270.502C244.627 270.502 244.607 270.502 244.598 270.502V270.512ZM235.521 254.575C235.454 254.575 235.377 254.556 235.31 254.518C235.108 254.402 235.031 254.143 235.147 253.932C240.535 244.248 255.096 240.752 255.72 240.608C255.951 240.54 256.181 240.694 256.239 240.925C256.297 241.155 256.152 241.386 255.922 241.434C255.778 241.472 241.102 244.988 235.905 254.345C235.829 254.489 235.684 254.566 235.531 254.566L235.521 254.575Z" fill="#F8A8A0"/>
<path fill-rule="evenodd" clip-rule="evenodd" d="M297.597 115.208C297.597 115.208 300.142 110.049 302.726 109.578C305.31 109.108 310.016 113.834 310.852 118.166C311.697 122.499 311.073 138.551 301.218 135.294C291.373 132.038 297.587 115.198 297.587 115.198L297.597 115.208Z" fill="#FCD1C8"/>
<path fill-rule="evenodd" clip-rule="evenodd" d="M295.782 120.847C295.58 121.221 295.638 121.74 295.907 122.009C296.156 122.249 296.493 122.211 296.713 121.923C296.713 121.923 302.62 134.334 303.908 131.779C305.195 129.223 306.597 126.716 306.443 123.191C306.289 119.665 302.611 117.427 303.389 116.274C304.128 115.179 305.54 116.169 305.665 116.274C306.799 117.158 307.548 118.368 307.557 118.378C307.778 118.724 308.172 118.762 308.431 118.464C308.691 118.167 308.729 117.638 308.508 117.293C308.508 117.283 305.675 112.73 302.227 113.882C298.932 114.977 295.772 120.837 295.763 120.856L295.782 120.847Z" fill="#F8A8A0"/>
<path fill-rule="evenodd" clip-rule="evenodd" d="M213.881 139.627C213.881 139.627 207.82 135.823 204.785 137.023C201.75 138.215 199.858 146.284 201.798 151.423C203.738 156.563 214.87 173.133 223.159 163.258C231.448 153.383 213.891 139.636 213.891 139.636L213.881 139.627Z" fill="#FCD1C8"/>
<path fill-rule="evenodd" clip-rule="evenodd" d="M219.481 144.401C219.942 144.661 220.22 145.247 220.105 145.717C219.999 146.13 219.615 146.313 219.202 146.159C219.202 146.159 221.046 163.143 218.021 161.279C214.995 159.416 211.874 157.677 209.732 153.854C207.59 150.031 210.02 145.256 208.445 144.545C206.946 143.873 206.101 145.833 206.024 146.025V146.034C205.4 147.715 205.39 149.483 205.39 149.493C205.39 150.002 204.997 150.3 204.516 150.155C204.046 150.011 203.661 149.473 203.671 148.964C203.671 148.945 203.69 142.288 208.089 141.25C212.287 140.261 219.452 144.401 219.481 144.411V144.401Z" fill="#F8A8A0"/>
<path fill-rule="evenodd" clip-rule="evenodd" d="M237.441 63.9871C293.563 48.9822 298.173 96.5619 303.6 134.439C305.876 150.386 300.286 161.769 300.286 161.769C300.286 161.769 288.616 180.617 284.035 185.18C281.307 187.898 277.484 189.887 273.469 191.011C269.464 192.154 265.171 192.471 261.415 191.596C255.124 190.127 235.29 180.203 235.29 180.203C235.29 180.203 224.561 173.45 218.126 158.686C202.854 123.603 181.8 80.6828 237.441 63.9871Z" fill="#FCD1C8"/>
<path fill-rule="evenodd" clip-rule="evenodd" d="M273.643 79.3L278.176 85.4672C278.176 85.4672 261.934 106.793 234.56 99.55L238.643 107.629C238.643 107.629 219.884 111.625 210.808 104.257C201.731 96.889 219.5 77.7822 219.5 77.7822L273.643 79.3096V79.3Z" fill="#F8A8A0"/>
<path fill-rule="evenodd" clip-rule="evenodd" d="M216.551 131.855C219.452 141.25 213.391 147.821 213.391 147.821C213.391 147.821 209.492 137.494 207.446 136.918C200.819 112.412 190.532 95.5437 210.097 76.5426C218.242 68.6366 227.001 63.3532 236.491 60.6635C245.981 57.9737 256.21 57.868 267.294 60.3176C293.919 66.2063 294.024 85.9759 301.247 110.309C299.806 111.874 301.91 122.71 301.91 122.71C301.91 122.71 298.039 119.367 295.58 109.847C290.547 90.4332 281.951 81.5186 270.3 77.2054C261.108 73.8048 250.668 73.8144 241.005 76.581C235.194 78.2141 231.208 83.2285 227.318 86.4754C214.371 97.2825 210.856 113.383 216.551 131.855Z" fill="#4C466A"/>
<path fill-rule="evenodd" clip-rule="evenodd" d="M243.771 106.937C243.771 106.937 246.259 106.226 246.461 104.612C246.662 102.998 244.299 101.288 241.38 100.626C238.46 99.9627 230.103 96.5045 227.184 92.5563C227.184 92.5563 249.39 106.87 274.488 88.5697C299.585 70.2794 270.06 44.6596 249.496 44.6212C228.932 44.5827 218.664 61.0286 218.664 61.0286C221.421 50.8844 198.436 57.359 205.957 77.9068C188.111 102.643 232.889 110.155 243.771 106.927V106.937Z" fill="#4C466A"/>
<path fill-rule="evenodd" clip-rule="evenodd" d="M283.535 68.2527C281.624 61.0672 275.256 54.4485 267.649 50.0488C263.221 57.2823 253.876 65.1979 234.128 65.342C234.128 65.342 263 83.6227 283.535 68.2431V68.2527Z" fill="#675D82"/>
<path d="M233.341 136.515C233.264 136.515 233.187 136.496 233.13 136.439C232.986 136.323 232.957 136.102 233.072 135.958C241.102 125.766 252.138 131.904 252.243 131.972C252.407 132.068 252.464 132.279 252.368 132.442C252.272 132.606 252.061 132.663 251.898 132.567C251.465 132.317 241.265 126.659 233.6 136.381C233.533 136.467 233.437 136.506 233.331 136.506L233.341 136.515Z" fill="#F8A8A0"/>
<path fill-rule="evenodd" clip-rule="evenodd" d="M246.499 125.16C246.499 125.16 248.046 125.112 249.16 124.19C250.284 123.258 250.668 120.895 250.437 120.434C250.207 119.973 249.755 120.933 246.893 120.568C244.079 120.213 234.128 120.222 229.921 128.09C229.201 129.444 230.296 130.03 231.506 129.214C232.726 128.397 237.576 123.959 246.49 125.16H246.499Z" fill="#4C466A"/>
<path fill-rule="evenodd" clip-rule="evenodd" d="M249.362 136.938C249.362 136.938 250.783 136.986 251.801 136.083C252.819 135.18 253.136 132.75 252.925 132.26C252.714 131.77 252.31 132.74 249.659 132.193C247.066 131.655 237.903 131.097 234.148 139.003C233.504 140.368 234.522 141.04 235.627 140.262C236.731 139.484 241.13 135.171 249.362 136.938Z" fill="#4C466A"/>
<path fill-rule="evenodd" clip-rule="evenodd" d="M281.423 143.278C278.349 145.381 273.076 147.005 267.611 147.86C262.146 148.705 256.575 148.763 252.925 147.706C252.205 147.495 251.446 147.917 251.235 148.638C251.138 148.965 251.177 149.301 251.302 149.589C254.75 157.024 258.966 161.856 263.193 164.162C265.805 165.593 268.446 166.073 270.934 165.651C273.431 165.218 275.737 163.873 277.677 161.654C280.741 158.148 282.931 152.394 283.545 144.517C283.603 143.768 283.046 143.105 282.287 143.047C281.961 143.018 281.653 143.114 281.413 143.278H281.423Z" fill="#4C466A"/>
<path fill-rule="evenodd" clip-rule="evenodd" d="M280.626 143.787C277.485 145.641 272.625 147.082 267.621 147.86C262.155 148.706 256.585 148.763 252.935 147.706C252.214 147.495 251.456 147.918 251.244 148.638C251.148 148.965 251.187 149.301 251.312 149.589C251.59 150.194 251.878 150.78 252.166 151.347C263.058 154.815 276.957 150.3 279.243 148.273C280.741 146.948 280.808 145.046 280.635 143.787H280.626Z" fill="white"/>
<path fill-rule="evenodd" clip-rule="evenodd" d="M257.564 159.503C259.399 161.568 261.291 163.115 263.203 164.162C265.815 165.593 268.456 166.074 270.944 165.651C273.441 165.219 275.746 163.874 277.687 161.655C278.176 161.098 278.647 160.473 279.089 159.801C277.168 158.907 273.614 158.129 268.927 160.867C268.927 160.867 263.126 157.38 257.574 159.522L257.564 159.503Z" fill="#FF808F"/>
<path fill-rule="evenodd" clip-rule="evenodd" d="M276.092 169.455C276.572 169.109 276.688 168.447 276.342 167.966C275.996 167.486 275.333 167.371 274.853 167.717C274.843 167.717 271.174 170.281 265.911 168.985C265.335 168.85 264.758 169.196 264.624 169.772C264.48 170.349 264.835 170.925 265.411 171.059C271.607 172.596 276.082 169.474 276.092 169.465V169.455Z" fill="#F8A8A0"/>
<path fill-rule="evenodd" clip-rule="evenodd" d="M262.75 127.956C262.808 128.273 262.952 128.571 263.154 128.763C264.566 130.079 270.684 135.708 271.011 136.621C271.347 137.831 268.023 139.945 266.093 140.694C264.902 141.165 267.812 144.421 269.589 143.201C271.481 141.904 273.662 138.417 272.999 136.102C272.682 134.988 268.6 130.992 265.738 128.34C264.998 127.658 264.921 126.727 264.854 126.121C264.671 124.546 262.549 126.909 262.741 127.937L262.75 127.956Z" fill="#F8A8A0"/>
<path fill-rule="evenodd" clip-rule="evenodd" d="M282.901 116.524C279.789 117.302 277.878 120.492 278.656 123.604L280.02 129.041C280.798 132.154 283.987 134.065 287.099 133.287C290.211 132.509 292.122 129.32 291.344 126.207L289.98 120.77C289.202 117.658 286.013 115.746 282.901 116.524Z" fill="#4C466A"/>
<path fill-rule="evenodd" clip-rule="evenodd" d="M275.323 111.289C275.323 111.289 274.122 111.942 272.797 111.702C271.472 111.462 270.012 109.733 269.954 109.262C269.896 108.791 270.722 109.358 272.73 107.773C274.708 106.217 282.335 101.75 289.442 106.178C290.672 106.947 290.115 107.908 288.78 107.802C287.444 107.696 281.537 106.313 275.314 111.289H275.323Z" fill="#4C466A"/>
<path d="M238.777 154.401C232.63 154.401 226.012 150.923 221.498 145.323C217.416 140.26 215.725 134.353 216.868 129.098C218.607 121.086 233.235 114.641 244.184 114.641C249.256 114.641 252.973 116.014 254.932 118.608C258.889 123.843 259.936 131.221 257.756 138.358C255.508 145.698 250.331 151.375 243.925 153.556C242.283 154.113 240.554 154.401 238.777 154.401ZM244.184 116.351C233.917 116.351 220.076 122.402 218.539 129.463C217.512 134.199 219.077 139.588 222.833 144.247C227.03 149.454 233.139 152.681 238.777 152.681C240.362 152.681 241.908 152.432 243.368 151.932C249.256 149.924 254.02 144.66 256.114 137.849C258.14 131.24 257.189 124.429 253.559 119.636C251.955 117.513 248.622 116.351 244.175 116.351H244.184Z" fill="white"/>
<path d="M286.196 138.541C280.923 138.541 275.516 136.015 271.366 131.615C267.208 127.215 265.008 121.557 265.335 116.11C265.776 108.55 278.33 102.46 288.425 102.46C292.689 102.46 295.974 103.565 297.924 105.64C302.227 110.241 303.591 118.032 301.401 125.505C299.48 132.057 295.225 136.754 290.029 138.061C288.799 138.378 287.512 138.531 286.206 138.531L286.196 138.541ZM288.415 104.17C279.108 104.17 267.409 109.722 267.035 116.206C266.746 121.183 268.773 126.37 272.605 130.433C277.312 135.419 284.026 137.811 289.596 136.408C294.207 135.246 298.001 130.99 299.749 125.025C301.775 118.128 300.565 110.981 296.666 106.812C295.071 105.111 292.142 104.17 288.415 104.17Z" fill="white"/>
<path d="M257.228 126.015C257.016 126.015 256.805 125.938 256.642 125.784C256.296 125.458 256.277 124.92 256.603 124.574C262.107 118.704 267.121 121.461 267.332 121.577C267.745 121.807 267.889 122.336 267.649 122.749C267.419 123.152 266.89 123.306 266.487 123.066C266.314 122.97 262.395 120.895 257.852 125.746C257.679 125.928 257.458 126.015 257.228 126.015Z" fill="white"/>
<path fill-rule="evenodd" clip-rule="evenodd" d="M391.014 223.97L399.841 235.017C399.841 235.017 423.066 267.025 426.13 273.989C429.194 280.954 427.042 277.438 426.802 279.225C426.802 279.225 434.851 291.809 431.124 306.574C425.563 328.62 402.338 336.468 392.686 307.102L399.668 301.396L387.297 299.792L363.977 262.174C363.977 262.174 371.593 233.019 391.014 223.979V223.97Z" fill="#FCD1C8"/>
<path fill-rule="evenodd" clip-rule="evenodd" d="M405.028 324.576C401.244 322.578 397.69 318.706 394.847 312.606L409.388 306.603L412.952 318.168C412.952 318.168 406.939 318.793 405.018 324.576H405.028Z" fill="#F8A8A0"/>
<path fill-rule="evenodd" clip-rule="evenodd" d="M369.72 271.424L363.977 262.163C363.977 262.163 366.483 252.596 372.266 242.72C377.193 239.07 380.526 236.64 380.526 236.64L398.343 241.145C398.343 241.145 375.685 249.829 369.711 271.424H369.72Z" fill="#F8A8A0"/>
<path fill-rule="evenodd" clip-rule="evenodd" d="M415.833 290.089C415.833 290.089 416.198 282.414 417.466 280.55C418.734 278.696 428.166 267.428 429.434 265.747C430.702 264.066 430.692 261.991 427.705 259.964C424.718 257.937 414.316 259.243 410.839 265.065C407.362 270.896 405.076 272.587 403.77 273.47C402.463 274.364 393.569 281.338 393.569 281.338L415.843 290.089H415.833Z" fill="#F8A8A0"/>
<path fill-rule="evenodd" clip-rule="evenodd" d="M420.722 257.784C421.875 254.902 420.463 251.626 417.581 250.473C414.7 249.321 411.425 250.733 410.272 253.615L381.448 325.373C380.295 328.255 381.707 331.531 384.589 332.684C387.47 333.836 390.745 332.424 391.898 329.542L420.722 257.784Z" fill="#4C466A"/>
<path fill-rule="evenodd" clip-rule="evenodd" d="M404.135 262.212C404.135 262.212 425.717 269.225 427.83 270.608C429.943 271.991 433.881 276.103 431.826 278.965C429.77 281.828 430.327 282.741 431.182 284.518C432.046 286.305 431.153 290.061 428.723 292.337C426.293 294.614 426.418 298.091 425.986 299.705C425.554 301.319 424.516 303.73 421.644 305.546C418.773 307.362 418.158 312.059 417.322 313.942C413.788 321.896 402.185 319.043 397.2 312.424C397.2 312.424 389.795 307.679 388.632 306.459C387.47 305.239 385.165 300.983 389.18 296.891C385.636 293.625 386.26 286.737 390.025 285.478C384.906 281.463 391.447 272.126 395.51 273.298C392.82 269.09 398.112 260.55 404.125 262.222L404.135 262.212Z" fill="#FCD1C8"/>
<path fill-rule="evenodd" clip-rule="evenodd" d="M405.354 235.823C406.766 238.465 406.046 240.482 405.277 242.586C405.277 242.586 383.244 240.319 363.976 262.164C361.94 262.356 360.701 261.453 358.521 258.139C335.412 223.018 314.406 182.48 323.636 165.688C335.152 161.884 347.245 157.215 362.833 172.134C378.413 187.052 382.965 211.52 405.364 235.814L405.354 235.823Z" fill="#4C466A"/>
<path d="M409.513 319.196C404.979 319.196 399.86 316.621 396.911 312.74C396.133 312.241 389.468 307.947 388.334 306.746C387.162 305.517 384.761 301.127 388.594 296.89C386.557 294.758 386.116 291.578 386.605 289.272C386.999 287.438 387.95 286.035 389.247 285.334C387.086 283.163 387.547 279.954 388.767 277.562C390.063 275.036 392.532 272.769 394.76 272.75C393.751 270.319 394.76 267.255 396.326 265.122C397.968 262.903 400.907 260.867 404.24 261.789C404.336 261.818 411.885 264.277 418.417 266.544C418.638 266.621 418.763 266.871 418.686 267.092C418.609 267.313 418.359 267.428 418.138 267.361C411.616 265.094 404.067 262.644 403.99 262.615C401.08 261.808 398.477 263.653 397.007 265.641C395.154 268.158 394.683 271.203 395.864 273.057C395.961 273.211 395.951 273.403 395.845 273.547C395.74 273.691 395.548 273.749 395.384 273.701C393.617 273.182 390.985 275.103 389.516 277.966C388.949 279.061 387.345 282.827 390.284 285.132C390.409 285.228 390.467 285.382 390.438 285.545C390.409 285.699 390.303 285.824 390.15 285.881C388.805 286.333 387.816 287.639 387.422 289.465C386.961 291.636 387.403 294.681 389.458 296.573C389.544 296.65 389.593 296.765 389.593 296.881C389.593 296.996 389.554 297.111 389.468 297.188C385.683 301.05 387.796 304.979 388.93 306.16C389.823 307.092 394.875 310.425 397.42 312.058C397.459 312.087 397.497 312.116 397.536 312.164C400.59 316.228 406.132 318.802 410.685 318.274C412.721 318.043 415.458 317.073 416.918 313.768C417.12 313.317 417.312 312.673 417.533 311.924C418.205 309.686 419.127 306.621 421.404 305.18C423.527 303.836 424.929 301.962 425.563 299.59C425.659 299.234 425.726 298.783 425.803 298.245C426.072 296.4 426.446 293.874 428.415 292.02C428.588 291.857 428.857 291.866 429.021 292.039C429.184 292.212 429.174 292.481 429.001 292.644C427.244 294.287 426.898 296.64 426.648 298.36C426.562 298.917 426.494 299.407 426.389 299.801C425.697 302.385 424.17 304.431 421.865 305.891C419.857 307.159 418.993 310.041 418.359 312.155C418.129 312.923 417.927 313.595 417.706 314.095C416.409 317.006 414.018 318.735 410.781 319.109C410.358 319.157 409.936 319.177 409.503 319.177L409.513 319.196Z" fill="#F8A8A0"/>
<path d="M405.997 304.575C405.94 304.575 405.882 304.566 405.824 304.537L389.016 297.274C388.795 297.178 388.699 296.929 388.795 296.708C388.891 296.487 389.141 296.391 389.362 296.487L406.17 303.749C406.391 303.845 406.487 304.095 406.391 304.316C406.324 304.479 406.161 304.575 405.997 304.575ZM411.453 293.201C411.453 293.201 411.357 293.201 411.309 293.182L389.621 285.661C389.4 285.584 389.285 285.334 389.362 285.113C389.438 284.892 389.679 284.767 389.909 284.844L411.597 292.366C411.818 292.443 411.943 292.683 411.866 292.913C411.808 293.086 411.635 293.201 411.462 293.201H411.453ZM414.517 280.099C414.517 280.099 414.43 280.099 414.382 280.079L395.394 273.701C395.173 273.624 395.048 273.384 395.125 273.163C395.201 272.942 395.442 272.817 395.662 272.894L414.661 279.272C414.882 279.349 415.007 279.589 414.93 279.81C414.872 279.993 414.699 280.099 414.526 280.099H414.517Z" fill="#F8A8A0"/>
<path fill-rule="evenodd" clip-rule="evenodd" d="M484.806 46.9553C485.824 47.0417 487.025 47.3971 487.937 47.7814C490.223 48.7324 492.173 50.3367 493.556 52.4212C495.131 54.7939 496.668 57.1955 498.214 59.5779C500.827 63.6125 503.439 67.6471 506.042 71.6817C510.278 78.2428 514.514 84.8039 518.75 91.3745C519.268 92.1334 519.739 93.094 520.017 93.9586V93.9874C521.035 93.6704 522.764 93.267 522.764 93.267L522.976 94.2564L519.403 98.2718C518.346 99.463 516.608 99.7031 515.032 99.5783C513.054 99.4246 511.066 99.2324 509.087 99.0499C505.005 98.6753 500.913 98.3006 496.831 97.926C485.142 96.8501 473.453 95.7646 461.764 94.6791C443.966 93.0268 426.168 91.3649 408.37 89.703C406.795 89.6742 404.865 89.0402 403.481 88.387C399.668 86.581 396.777 83.3629 394.703 79.6837C393.185 76.9844 391.763 74.189 390.352 71.432C388.45 67.6951 386.577 63.9295 384.714 60.1638C381.073 52.8151 377.491 45.4375 373.927 38.0503C373.38 36.9263 373.024 35.4374 373.101 34.179C373.12 33.8908 373.159 33.593 373.226 33.3144C373.437 32.3922 373.85 31.6909 374.398 31.153L377.664 27.4834L378.653 28.5689L377.673 29.7313C378.47 29.6352 379.306 29.6448 380.094 29.7217H380.161L484.787 46.9553H484.806Z" fill="#4C466A"/>
<path fill-rule="evenodd" clip-rule="evenodd" d="M488.427 42.8821C489.445 42.9686 490.646 43.324 491.558 43.7083C493.854 44.6593 495.794 46.2635 497.177 48.3481C498.752 50.7208 500.289 53.1224 501.835 55.5047C504.448 59.5393 507.06 63.574 509.663 67.6086C513.899 74.1696 518.135 80.7403 522.37 87.3014C522.889 88.0603 523.36 89.0209 523.638 89.8855C523.984 90.971 524.09 92.1429 523.638 93.2188C522.764 95.265 520.594 95.6588 518.653 95.5147C516.675 95.361 514.687 95.1689 512.708 94.9864C508.626 94.6117 504.534 94.2371 500.452 93.8624C488.763 92.7865 477.074 91.701 465.385 90.6155C447.587 88.9633 429.789 87.3014 411.991 85.6395C410.416 85.6107 408.486 84.9767 407.102 84.3234C403.299 82.5175 400.389 79.2994 398.324 75.6202C396.806 72.9208 395.385 70.1254 393.982 67.3684C392.071 63.622 390.207 59.866 388.344 56.1003C384.714 48.7515 381.121 41.3643 377.558 33.9867C377.01 32.8628 376.655 31.3738 376.741 30.1154C376.761 29.8272 376.799 29.539 376.866 29.2509C377.635 25.9655 380.929 25.3699 383.734 25.6485H383.791L488.417 42.8821H488.427Z" fill="white"/>
<path fill-rule="evenodd" clip-rule="evenodd" d="M445.291 35.7832L451.553 36.8111L477.986 89.7127L465.394 90.6157L445.291 35.7832Z" fill="#B3E4FC"/>
<path fill-rule="evenodd" clip-rule="evenodd" d="M384.762 27.7622L488.513 44.1697C488.513 44.1697 492.98 44.4386 495.765 48.7134C498.541 52.9882 520.93 88.4929 520.93 88.4929C520.93 88.4929 524.57 93.9012 519.009 93.5073C513.448 93.1135 412.481 83.4976 412.481 83.4976C412.481 83.4976 405.546 83.5553 400.619 74.5734C395.692 65.582 380.583 33.1609 380.583 33.1609C380.583 33.1609 377.692 27.109 384.771 27.7622H384.762Z" fill="#FF808F"/>
<path fill-rule="evenodd" clip-rule="evenodd" d="M445.896 37.4355L452.37 38.4538L477.986 89.7127L464.597 88.4447L445.896 37.4355Z" fill="#D66982"/>
<path fill-rule="evenodd" clip-rule="evenodd" d="M387.566 30.8844L412.663 34.8518C412.663 34.8518 414.123 34.9382 415.026 36.3311C415.929 37.724 423.238 49.3188 423.238 49.3188C423.238 49.3188 424.429 51.0863 422.614 50.9518C420.799 50.827 396.604 49.069 396.604 49.069C396.604 49.069 394.337 49.0882 392.733 46.1583C391.129 43.2284 386.192 32.6423 386.192 32.6423C386.192 32.6423 385.251 30.6635 387.556 30.8844H387.566Z" fill="#4C466A"/>
<path fill-rule="evenodd" clip-rule="evenodd" d="M393.175 33.679C391.388 34.265 391.58 37.5984 393.616 41.1046C395.643 44.6205 398.736 46.9837 400.522 46.3977C402.309 45.8117 402.117 42.4879 400.081 38.9721C398.054 35.4562 394.961 33.093 393.175 33.679Z" fill="white"/>
<path fill-rule="evenodd" clip-rule="evenodd" d="M491.76 93.0845C494.103 93.2958 495.832 95.3708 495.621 97.7147C495.41 100.059 489.253 108.925 486.909 108.714L465.375 106.178C463.032 105.966 463.224 97.0903 463.435 94.7464C463.646 92.4025 465.721 90.6733 468.065 90.8847L491.75 93.0845H491.76Z" fill="#4C466A"/>
<path fill-rule="evenodd" clip-rule="evenodd" d="M444.811 35.7062C444.811 35.7062 445.742 33.0549 450.132 33.7177C454.521 34.3805 467.958 37.0415 471.147 37.7043C474.336 38.3671 474.048 40.0194 475.008 42.0367C479.34 51.153 494.506 88.1659 492.038 97.4936L466.748 95.1496C469.889 89.2514 452.149 44.9474 449.162 36.4267L444.811 35.7062Z" fill="#4C466A"/>
<path fill-rule="evenodd" clip-rule="evenodd" d="M477.209 46.9355C478.15 49.1066 479.226 51.6906 480.369 54.5341L460.794 68.3383C459.901 65.7158 458.979 63.0548 458.047 60.4515L477.209 46.9355ZM482.088 58.9049L462.283 72.8724C462.955 74.9474 463.589 76.9743 464.156 78.9147L484.278 64.7167C483.548 62.7378 482.808 60.7878 482.078 58.8953L482.088 58.9049Z" fill="#675D82"/>
<path fill-rule="evenodd" clip-rule="evenodd" d="M394.577 35.9847C393.453 36.3498 393.578 38.4439 394.856 40.6438C396.123 42.8436 398.073 44.3326 399.187 43.9675C400.311 43.5929 400.186 41.5083 398.909 39.3085C397.641 37.1087 395.701 35.6197 394.577 35.9847Z" fill="#82CFF5"/>
<path fill-rule="evenodd" clip-rule="evenodd" d="M394.107 37.4353C393.492 37.5505 393.415 38.6553 393.943 39.8945C394.462 41.1337 395.384 42.0463 395.989 41.9214C396.604 41.8061 396.681 40.7014 396.153 39.4622C395.634 38.223 394.712 37.3104 394.107 37.4353Z" fill="white"/>
<path fill-rule="evenodd" clip-rule="evenodd" d="M402.002 35.1686C401.215 35.428 401.301 36.8882 402.195 38.4348C403.088 39.9814 404.452 41.0188 405.23 40.7595C406.017 40.5001 405.931 39.04 405.038 37.4933C404.144 35.9467 402.79 34.9093 402.002 35.1686Z" fill="white"/>
<path fill-rule="evenodd" clip-rule="evenodd" d="M409.628 37.9352C408.36 38.3483 408.504 40.7018 409.936 43.1802C411.367 45.6586 413.557 47.3397 414.815 46.917C416.073 46.504 415.939 44.1504 414.507 41.672C413.076 39.1936 410.886 37.5125 409.628 37.9352Z" fill="#FF808F"/>
<path d="M229.576 337.937C229.576 337.937 229.509 337.937 229.47 337.928C229.24 337.87 229.105 337.64 229.163 337.409C229.595 335.661 230.056 333.864 230.517 332.03C232.544 323.98 234.637 315.67 236.261 307.822C236.309 307.591 236.539 307.447 236.77 307.486C237 307.534 237.154 307.764 237.106 307.995C235.483 315.862 233.379 324.191 231.353 332.241C230.892 334.076 230.44 335.872 229.998 337.62C229.95 337.813 229.777 337.947 229.585 337.947L229.576 337.937Z" fill="#F8A8A0"/>
<path fill-rule="evenodd" clip-rule="evenodd" d="M296.454 321.232L280.933 279.877C279.252 275.401 281.519 270.396 286.004 268.715C288.271 267.86 290.672 268.023 292.708 268.974L321.071 281.856C325.432 283.835 327.353 288.975 325.374 293.326L312.465 321.77C310.487 326.131 305.348 328.053 300.997 326.074C298.817 325.084 297.251 323.307 296.464 321.232H296.454Z" fill="white"/>
<path fill-rule="evenodd" clip-rule="evenodd" d="M410.061 39.0302C409.446 39.1454 409.369 40.2502 409.898 41.4894C410.416 42.7286 411.338 43.6412 411.953 43.5163C412.568 43.401 412.645 42.2963 412.116 41.0571C411.598 39.8179 410.676 38.9053 410.061 39.0206V39.0302Z" fill="white"/>
<path fill-rule="evenodd" clip-rule="evenodd" d="M441.103 256.505C422.498 265.305 451.87 273.797 460.428 259.022C467.43 246.918 445.857 254.258 441.103 256.505Z" fill="white"/>
<path fill-rule="evenodd" clip-rule="evenodd" d="M441.67 244.758C448.903 232.423 428.723 239.052 429.597 250.877C430.317 260.57 439.817 247.908 441.67 244.758Z" fill="white"/>
<path fill-rule="evenodd" clip-rule="evenodd" d="M437.492 269.695C430.432 266.448 435.1 277.006 441.449 275.901C446.645 274.988 439.298 270.531 437.492 269.695Z" fill="white"/>
<path d="M388.911 356.68H286.753C286.283 356.68 285.898 356.295 285.898 355.825C285.898 355.354 286.283 354.97 286.753 354.97H388.911C389.381 354.97 389.765 355.354 389.765 355.825C389.765 356.295 389.381 356.68 388.911 356.68Z" fill="white"/>
<path d="M335.719 356.679C335.248 356.679 334.864 356.295 334.864 355.825V91.7104C334.864 91.2397 335.248 90.8555 335.719 90.8555C336.19 90.8555 336.574 91.2397 336.574 91.7104V355.825C336.574 356.295 336.19 356.679 335.719 356.679Z" fill="white"/>
<path fill-rule="evenodd" clip-rule="evenodd" d="M75.5043 236.746C75.5043 237.687 74.7359 238.456 73.7946 238.456C72.8533 238.456 72.085 237.687 72.085 236.746V74.5156C72.085 66.7538 75.2546 59.7124 80.3644 54.6019C85.4741 49.4913 92.5241 46.3213 100.275 46.3213C108.026 46.3213 115.076 49.4913 120.186 54.6019C125.296 59.7124 128.466 66.7634 128.466 74.5156V127.648C128.466 128.599 127.697 129.358 126.756 129.358C125.815 129.358 125.046 128.589 125.046 127.648V74.5156C125.046 67.7048 122.261 61.5088 117.766 57.0226C113.28 52.5365 107.085 49.7411 100.275 49.7411C93.4654 49.7411 87.2703 52.5269 82.7848 57.0226C78.2993 61.5184 75.5043 67.7048 75.5043 74.5156V236.746Z" fill="#4C466A"/>
<path fill-rule="evenodd" clip-rule="evenodd" d="M113.174 133.536C108.266 131.894 101.264 136.178 96.8936 143.738C92.5234 151.308 92.3217 159.512 96.1924 162.941L115.268 180.059L127.84 161.615L137.522 141.51L113.164 133.546L113.174 133.536Z" fill="#FF808F"/>
<path fill-rule="evenodd" clip-rule="evenodd" d="M95.6355 146.197C92.5332 153.018 92.7445 159.877 96.2022 162.941L115.278 180.059L119.773 173.469C119.235 171.673 118.87 170.53 118.87 170.53L116.2 154.891C116.2 154.891 112.002 159.761 107.488 157.158C102.974 154.555 105.039 155.746 100.717 153.248C98.4017 151.913 96.4616 149.214 95.6259 146.197H95.6355Z" fill="#D66982"/>
<path fill-rule="evenodd" clip-rule="evenodd" d="M139.482 168.331C145.677 157.6 145.485 145.9 139.05 142.182C132.624 138.465 122.385 144.161 116.2 154.882C110.005 165.612 110.197 177.312 116.632 181.03C123.058 184.738 133.287 179.051 139.482 168.331Z" fill="#4C466A"/>
<path fill-rule="evenodd" clip-rule="evenodd" d="M138.608 146.274L171.821 167.264L163.062 181.952L154.734 196.889L119.955 178.618C119.801 178.542 119.648 178.465 119.494 178.378C114.135 175.285 113.981 165.535 119.139 156.591C124.297 147.648 132.826 142.912 138.185 146.005C138.339 146.092 138.483 146.188 138.627 146.284L138.608 146.274Z" fill="#FBD978"/>
<path fill-rule="evenodd" clip-rule="evenodd" d="M138.608 146.274L167.096 164.276C163.706 167.946 155.974 168.695 148.213 165.756C139.108 162.307 133.402 155.083 135.467 149.627C136.015 148.196 137.033 147.024 138.416 146.149C138.483 146.188 138.551 146.236 138.608 146.274Z" fill="white"/>
<path fill-rule="evenodd" clip-rule="evenodd" d="M159.037 189.157L154.725 196.88L119.945 178.609C119.792 178.532 119.638 178.456 119.484 178.369C114.125 175.276 113.971 165.526 119.129 156.582C119.215 156.428 119.311 156.275 119.398 156.121C118.245 161.453 118.293 168.696 123.989 171.981C132.211 176.726 132.912 177.13 140.663 181.606C148.414 186.083 152.948 179.224 152.948 179.224L159.047 189.157H159.037Z" fill="#FBB872"/>
<path fill-rule="evenodd" clip-rule="evenodd" d="M171.936 187.072C176.662 178.888 176.508 169.964 171.61 167.13C166.702 164.296 158.903 168.638 154.177 176.813C149.451 184.997 149.596 193.922 154.504 196.755C159.402 199.589 167.211 195.247 171.936 187.063V187.072Z" fill="#4C466A"/>
<path fill-rule="evenodd" clip-rule="evenodd" d="M171.034 180.136C173.81 175.333 173.723 170.088 170.842 168.426C167.96 166.765 163.379 169.31 160.603 174.113C157.827 178.916 157.914 184.161 160.795 185.833C163.676 187.504 168.258 184.949 171.034 180.136Z" fill="#675D82"/>
<path fill-rule="evenodd" clip-rule="evenodd" d="M164.32 192.932C165.482 190.915 165.444 188.725 164.243 188.023C163.033 187.332 161.122 188.398 159.959 190.406C158.797 192.423 158.836 194.613 160.036 195.314C161.237 196.006 163.158 194.94 164.32 192.932Z" fill="#675D82"/>
<path fill-rule="evenodd" clip-rule="evenodd" d="M148.952 152.806C148.693 148.214 148.386 142.998 148.386 142.998L143.458 134.785L142.258 136.187C141.71 135.496 141.124 134.833 140.5 134.209C137.369 131.077 133.325 128.867 128.811 128.022V127.647H124.729C118.591 127.647 113.001 130.164 108.958 134.209C104.914 138.253 102.397 143.834 102.397 149.982V159.108C102.397 160.049 103.166 160.818 104.107 160.818H108.189V152.172H107.661C107.728 150.251 108.064 147.071 108.064 147.071L111.858 137.446L111.032 136.985C111.147 136.86 111.263 136.745 111.388 136.629C114.817 133.2 119.542 131.077 124.738 131.077C129.935 131.077 134.66 133.2 138.089 136.629C141.307 139.847 143.381 144.218 143.622 149.041C143.65 149.185 143.689 149.338 143.718 149.482L148.981 152.806H148.952Z" fill="#675D82"/>
<path fill-rule="evenodd" clip-rule="evenodd" d="M151.123 149.972C151.123 143.834 148.616 138.243 144.562 134.199C140.519 130.155 134.938 127.638 128.791 127.638C122.644 127.638 117.064 130.155 113.02 134.199C108.976 138.243 106.46 143.824 106.46 149.972V159.098C106.46 160.04 107.228 160.808 108.17 160.808C109.111 160.808 109.879 160.04 109.879 159.098V149.972C109.879 144.775 112.002 140.049 115.431 136.62C118.86 133.19 123.585 131.067 128.782 131.067C133.978 131.067 138.704 133.19 142.132 136.62C145.561 140.049 147.684 144.775 147.684 149.972V152.018L151.113 154.18V149.972H151.123Z" fill="#4C466A"/>
<path fill-rule="evenodd" clip-rule="evenodd" d="M73.7939 99.8086C75.907 99.8086 77.6455 101.538 77.6455 103.661V112.921C77.6455 115.034 75.9166 116.773 73.7939 116.773C71.6809 116.773 69.9424 115.044 69.9424 112.921V103.661C69.9424 101.547 71.6713 99.8086 73.7939 99.8086Z" fill="#675D82"/>
<path fill-rule="evenodd" clip-rule="evenodd" d="M73.7939 141.145C75.907 141.145 77.6455 142.874 77.6455 144.997V154.257C77.6455 156.37 75.9166 158.109 73.7939 158.109C71.6809 158.109 69.9424 156.38 69.9424 154.257V144.997C69.9424 142.883 71.6713 141.145 73.7939 141.145Z" fill="#675D82"/>
<path fill-rule="evenodd" clip-rule="evenodd" d="M73.7939 224.854C75.907 224.854 77.6455 226.583 77.6455 228.706V259.407C77.6455 261.521 75.9166 263.259 73.7939 263.259C71.6809 263.259 69.9424 261.53 69.9424 259.407V228.706C69.9424 226.583 71.6713 224.854 73.7939 224.854Z" fill="#675D82"/>
<path d="M67.6947 248.418H79.9025C81.6602 248.418 83.0913 249.849 83.0913 251.607V335.277C83.0913 337.035 81.6602 338.467 79.9025 338.467H67.6947C65.937 338.467 64.5059 337.035 64.5059 335.277V251.597C64.5059 249.84 65.937 248.408 67.6947 248.408V248.418Z" fill="#4C466A"/>
<path d="M94.0796 326.516H134.9C137.494 326.516 139.587 328.62 139.587 331.204V370.033C139.587 372.626 137.484 374.73 134.891 374.73H94.0796C91.4863 374.73 89.3828 372.626 89.3828 370.033V331.204C89.3828 328.611 91.4863 326.507 94.0796 326.507V326.516Z" fill="#D66982"/>
<path fill-rule="evenodd" clip-rule="evenodd" d="M94.0796 374.73H134.9C137.484 374.73 139.587 372.617 139.587 370.033V355.825H89.3828V370.033C89.3828 372.617 91.4959 374.73 94.0796 374.73Z" fill="#4C466A"/>
<path d="M57.5327 326.517H98.3438C100.937 326.517 103.041 328.62 103.041 331.214V370.042C103.041 372.636 100.937 374.74 98.3438 374.74H57.5327C54.9394 374.74 52.8359 372.636 52.8359 370.042V331.214C52.8359 328.62 54.9394 326.517 57.5327 326.517Z" fill="#FF808F"/>
<path d="M139.203 335.959H172.023C174.108 335.959 175.798 337.65 175.798 339.734V370.955C175.798 373.039 174.108 374.73 172.023 374.73H139.203C137.119 374.73 135.429 373.039 135.429 370.955V339.734C135.429 337.65 137.119 335.959 139.203 335.959Z" fill="#FF7F18"/>
<path d="M122.145 335.959H154.965C157.049 335.959 158.739 337.65 158.739 339.734V370.955C158.739 373.039 157.049 374.73 154.965 374.73H122.145C120.061 374.73 118.37 373.039 118.37 370.955V339.734C118.37 337.65 120.061 335.959 122.145 335.959Z" fill="#FF602D"/>
<path d="M110.139 287.745H77.3284C75.2437 287.745 73.5537 289.435 73.5537 291.52V322.741C73.5537 324.826 75.2437 326.516 77.3284 326.516H110.139C112.223 326.516 113.913 324.826 113.913 322.741V291.52C113.913 289.435 112.223 287.745 110.139 287.745Z" fill="#FBB872"/>
<path d="M94.3773 287.745H127.197C129.281 287.745 130.972 289.436 130.972 291.52V322.741C130.972 324.825 129.281 326.516 127.197 326.516H94.3773C92.293 326.516 90.6025 324.825 90.6025 322.741V291.52C90.6025 289.436 92.293 287.745 94.3773 287.745Z" fill="#FBD978"/>
<path d="M159.249 61.5569H135.563C132.97 61.5569 130.866 59.4435 130.866 56.8595V36.3117C130.866 33.718 132.97 31.6143 135.563 31.6143H159.249C161.842 31.6143 163.945 33.718 163.945 36.3117V56.8595C163.945 59.4532 161.832 61.5569 159.249 61.5569ZM135.563 33.3146C133.921 33.3146 132.576 34.6594 132.576 36.3021V56.8499C132.576 58.4925 133.911 59.8374 135.563 59.8374H159.249C160.891 59.8374 162.236 58.4925 162.236 56.8499V36.3021C162.236 34.6594 160.901 33.3146 159.249 33.3146H135.563Z" fill="#FF7F18"/>
<path d="M576.821 133.085H553.135C550.542 133.085 548.438 130.972 548.438 128.388V107.84C548.438 105.246 550.542 103.143 553.135 103.143H576.821C579.414 103.143 581.518 105.256 581.518 107.84V128.388C581.518 130.981 579.414 133.085 576.821 133.085ZM553.135 104.843C551.493 104.843 550.148 106.188 550.148 107.83V128.378C550.148 130.021 551.483 131.366 553.135 131.366H576.821C578.463 131.366 579.808 130.03 579.808 128.378V107.83C579.808 106.188 578.463 104.843 576.821 104.843H553.135Z" fill="#FF7F18"/>
<path d="M576.821 174.767H553.135C550.542 174.767 548.438 172.663 548.438 170.069V149.522C548.438 146.928 550.542 144.824 553.135 144.824H576.821C579.414 144.824 581.518 146.928 581.518 149.522V170.069C581.518 172.663 579.414 174.767 576.821 174.767ZM553.135 146.534C551.493 146.534 550.148 147.879 550.148 149.522V170.069C550.148 171.712 551.483 173.057 553.135 173.057H576.821C578.463 173.057 579.808 171.712 579.808 170.069V149.522C579.808 147.879 578.463 146.534 576.821 146.534H553.135Z" fill="#FF7F18"/>
<path d="M198.773 61.5569H175.087C172.494 61.5569 170.391 59.4435 170.391 56.8595V36.3117C170.391 33.718 172.504 31.6143 175.087 31.6143H198.773C201.366 31.6143 203.47 33.718 203.47 36.3117V56.8595C203.47 59.4532 201.357 61.5569 198.773 61.5569ZM175.087 33.3146C173.445 33.3146 172.1 34.6594 172.1 36.3021V56.8499C172.1 58.4925 173.435 59.8374 175.087 59.8374H198.773C200.415 59.8374 201.76 58.4925 201.76 56.8499V36.3021C201.76 34.6594 200.425 33.3146 198.773 33.3146H175.087Z" fill="#FF7F18"/>
<path d="M641.442 356.68H594.465C593.994 356.68 593.61 356.296 593.61 355.825C593.61 355.354 593.994 354.97 594.465 354.97H641.442C645.217 354.97 648.29 351.896 648.29 348.121V301.137C648.29 300.666 648.674 300.282 649.145 300.282C649.616 300.282 650 300.666 650 301.137V348.121C650 352.837 646.158 356.68 641.442 356.68ZM38.6788 356.68H8.55794C3.84195 356.68 0 352.837 0 348.121V301.137C0 300.666 0.384195 300.282 0.854833 300.282C1.32547 300.282 1.70967 300.666 1.70967 301.137V348.121C1.70967 351.896 4.78323 354.97 8.54833 354.97H38.6788C39.1495 354.97 39.5336 355.354 39.5336 355.825C39.5336 356.296 39.1495 356.68 38.6788 356.68ZM649.145 56.3983C648.674 56.3983 648.29 56.014 648.29 55.5433V8.55916C648.29 4.78391 645.217 1.70991 641.442 1.70991H594.465C593.994 1.70991 593.61 1.32566 593.61 0.854956C593.61 0.38425 593.994 0 594.465 0H641.442C646.158 0 650 3.8425 650 8.55916V55.5433C650 56.014 649.616 56.3983 649.145 56.3983ZM0.854833 56.3983C0.384195 56.3983 0 56.014 0 55.5433V8.55916C0 3.8425 3.84195 0 8.55794 0H55.5354C56.006 0 56.3902 0.38425 56.3902 0.854956C56.3902 1.32566 56.006 1.70991 55.5354 1.70991H8.55794C4.78323 1.70991 1.71927 4.78391 1.71927 8.55916V55.5433C1.71927 56.014 1.33508 56.3983 0.864438 56.3983H0.854833Z" fill="white"/>
<path d="M634.709 347.305H621.81C621.339 347.305 620.955 346.92 620.955 346.45C620.955 345.979 621.339 345.595 621.81 345.595H634.709C637.024 345.595 638.916 343.712 638.916 341.387V328.486C638.916 328.015 639.3 327.631 639.771 327.631C640.241 327.631 640.625 328.015 640.625 328.486V341.387C640.625 344.653 637.974 347.305 634.709 347.305ZM28.1997 347.305H15.3004C12.0347 347.305 9.38379 344.653 9.38379 341.387V328.486C9.38379 328.015 9.76798 327.631 10.2386 327.631C10.7093 327.631 11.0935 328.015 11.0935 328.486V341.387C11.0935 343.702 12.976 345.595 15.3004 345.595H28.1997C28.6704 345.595 29.0546 345.979 29.0546 346.45C29.0546 346.92 28.6704 347.305 28.1997 347.305ZM639.771 29.0593C639.3 29.0593 638.916 28.6751 638.916 28.2044V15.3032C638.916 12.9881 637.033 11.0957 634.709 11.0957H621.81C621.339 11.0957 620.955 10.7114 620.955 10.2407C620.955 9.76999 621.339 9.38574 621.81 9.38574H634.709C637.974 9.38574 640.625 12.0371 640.625 15.3032V28.2044C640.625 28.6751 640.241 29.0593 639.771 29.0593ZM10.2386 29.0593C9.76798 29.0593 9.38379 28.6751 9.38379 28.2044V15.3032C9.38379 12.0371 12.0347 9.38574 15.3004 9.38574H28.1997C28.6704 9.38574 29.0546 9.76999 29.0546 10.2407C29.0546 10.7114 28.6704 11.0957 28.1997 11.0957H15.3004C12.9856 11.0957 11.0935 12.9785 11.0935 15.3032V28.2044C11.0935 28.6751 10.7093 29.0593 10.2386 29.0593Z" fill="#FF7F18"/>
<path d="M265.92 244.316C265.555 244.316 265.21 244.239 264.873 244.057C263.192 243.144 261.204 228.85 258.957 201.559C258.813 199.81 257.833 199.109 257.036 198.83C255.883 198.417 254.558 198.686 254.087 199.186C253.319 199.983 253.492 204.335 253.684 208.936C253.741 210.291 253.799 211.741 253.837 213.249C253.895 215.276 253.953 217.38 253.991 219.378C253.991 219.705 253.732 219.983 253.405 219.983C253.04 219.955 252.8 219.724 252.79 219.397C252.752 217.399 252.694 215.305 252.637 213.278C252.598 211.77 252.531 210.329 252.483 208.975C252.224 202.586 252.147 199.464 253.223 198.341C254.087 197.438 255.941 197.159 257.439 197.687C258.361 198.014 259.946 198.936 260.157 201.453C262.107 225.132 264.249 241.838 265.488 243.019C266.794 243.72 269.657 240.906 270.905 239.359C273.306 232.616 277.283 231.376 279.444 231.242C282.316 231.05 284.64 232.52 285.38 233.989C285.802 234.825 285.726 235.67 285.178 236.324C284.967 236.573 284.583 236.602 284.333 236.391C284.083 236.18 284.054 235.795 284.266 235.546C284.352 235.44 284.621 235.132 284.314 234.527C283.757 233.413 281.749 232.279 279.53 232.443C277.648 232.558 274.18 233.682 272.01 239.859C271.991 239.926 271.952 239.984 271.914 240.032C271.53 240.522 268.446 244.316 265.93 244.316H265.92ZM251.167 188.292C251.09 188.292 251.004 188.273 250.927 188.244C243.435 184.949 235.108 180.79 235.021 180.742C234.858 180.646 224.005 173.691 217.579 158.926L215.687 154.603C215.552 154.296 215.687 153.95 215.994 153.816C216.292 153.681 216.647 153.816 216.782 154.123L218.674 158.446C224.956 172.874 235.502 179.628 235.607 179.695C235.636 179.704 243.935 183.854 251.407 187.14C251.715 187.274 251.849 187.63 251.715 187.927C251.619 188.148 251.398 188.283 251.167 188.283V188.292ZM238.815 149.378C235.175 149.378 231.189 147.725 227.789 144.69C223.111 140.521 220.749 134.814 221.757 130.155C221.824 129.829 222.141 129.627 222.468 129.694C222.794 129.762 222.996 130.079 222.929 130.405C222.007 134.651 224.226 139.906 228.586 143.787C232.803 147.552 237.912 149.032 241.927 147.668C242.244 147.562 242.58 147.725 242.686 148.042C242.792 148.359 242.628 148.695 242.312 148.801C241.207 149.176 240.026 149.358 238.815 149.358V149.378ZM275.371 128.253C275.208 128.253 275.045 128.186 274.93 128.061C273.085 126.063 271.722 123.786 270.982 121.481C270.444 119.79 270.214 118.08 270.319 116.399C270.339 116.073 270.588 115.804 270.953 115.832C271.28 115.852 271.539 116.13 271.52 116.467C271.433 118.004 271.635 119.56 272.135 121.116C272.807 123.229 274.113 125.4 275.813 127.245C276.034 127.485 276.025 127.869 275.784 128.09C275.669 128.196 275.525 128.253 275.381 128.253H275.371ZM496.159 127.562C495.89 127.562 495.611 127.552 495.323 127.533C493.661 127.398 491.99 127.245 490.328 127.091L488.772 126.947C484.354 126.543 479.936 126.14 475.518 125.727L475.278 125.708C462.407 124.517 449.546 123.325 436.676 122.134C417.082 120.309 397.497 118.484 377.903 116.659C377.577 116.63 377.327 116.332 377.366 116.005C377.394 115.679 377.702 115.448 378.019 115.467C397.613 117.293 417.197 119.118 436.791 120.943C449.661 122.144 462.522 123.335 475.393 124.517L475.633 124.536C480.051 124.939 484.469 125.352 488.888 125.746L490.444 125.89C492.105 126.044 493.767 126.198 495.419 126.332C497.167 126.467 499.443 126.207 500.308 124.171C500.692 123.258 500.692 122.163 500.298 120.914C500.02 120.03 499.52 119.022 498.982 118.224C498.79 117.955 498.867 117.581 499.136 117.389C499.405 117.206 499.78 117.273 499.972 117.542C500.577 118.436 501.134 119.55 501.441 120.54C501.931 122.067 501.922 123.441 501.412 124.632C500.606 126.534 498.762 127.552 496.168 127.552L496.159 127.562ZM433.016 126.918C433.016 126.918 432.978 126.918 432.959 126.918C413.365 125.093 393.78 123.268 374.186 121.443C372.352 121.414 370.095 120.645 368.606 119.944C364.678 118.08 361.249 114.68 358.674 110.107C358.511 109.819 358.617 109.454 358.905 109.291C359.193 109.127 359.558 109.233 359.721 109.521C362.171 113.873 365.427 117.101 369.125 118.858C370.498 119.512 372.563 120.223 374.254 120.251C393.886 122.086 413.48 123.911 433.064 125.727C433.391 125.756 433.641 126.054 433.602 126.38C433.573 126.688 433.314 126.928 433.007 126.928L433.016 126.918ZM502.239 112.326C501.989 112.326 501.739 112.326 501.47 112.297C500.01 112.182 498.541 112.048 497.081 111.913L490.876 111.346C490.549 111.318 490.3 111.02 490.328 110.693C490.357 110.357 490.684 110.136 490.982 110.146L497.186 110.712C498.646 110.847 500.106 110.981 501.557 111.097C503.122 111.212 505.168 110.981 505.936 109.166C506.282 108.349 506.282 107.36 505.927 106.245C505.677 105.448 505.226 104.545 504.736 103.815C504.553 103.536 504.62 103.171 504.889 102.979C505.168 102.797 505.533 102.864 505.725 103.133C506.282 103.95 506.782 104.977 507.07 105.871C507.512 107.273 507.512 108.532 507.041 109.627C506.301 111.375 504.601 112.307 502.229 112.307L502.239 112.326ZM448.259 107.398C448.259 107.398 448.221 107.398 448.202 107.398L428.598 105.573C428.271 105.544 428.022 105.246 428.06 104.92C428.089 104.593 428.387 104.353 428.713 104.382L448.317 106.207C448.643 106.236 448.893 106.534 448.855 106.86C448.826 107.168 448.566 107.408 448.259 107.408V107.398ZM283.382 77.9743C283.324 77.9743 283.257 77.9743 283.199 77.9455C282.882 77.8398 282.71 77.5036 282.806 77.1962C284.89 70.6447 282.028 64.7465 279.261 60.9424C272.74 51.999 259.946 45.2458 249.486 45.2266H249.419C241.485 45.2266 234.186 47.6762 227.722 52.5177C227.462 52.7099 227.078 52.6618 226.886 52.3929C226.684 52.1335 226.742 51.7492 227.011 51.5571C233.686 46.5619 241.226 44.0258 249.419 44.0258H249.486C260.282 44.045 273.499 51.0096 280.222 60.2316C284.429 66.0049 285.716 71.9896 283.939 77.5516C283.862 77.8014 283.622 77.9647 283.372 77.9647L283.382 77.9743ZM344.152 68.2528C343.931 68.2528 343.72 68.1279 343.614 67.9165C342.25 65.1019 340.886 62.2873 339.522 59.4727C338.84 58.0605 338.466 56.3122 338.562 54.9097C338.591 54.5447 338.639 54.1892 338.716 53.8626C339.474 50.6157 342.471 49.0019 346.918 49.4437L354.602 50.7022C354.929 50.7598 355.15 51.0672 355.092 51.3938C355.034 51.7204 354.727 51.9414 354.4 51.8837L346.822 50.6349C344.575 50.414 340.713 50.5773 339.878 54.1316C339.811 54.4102 339.772 54.6984 339.753 54.9865C339.676 56.1969 339.993 57.7147 340.598 58.9443C341.962 61.7589 343.316 64.5832 344.69 67.3882C344.834 67.686 344.709 68.0414 344.411 68.1855C344.325 68.2239 344.238 68.2432 344.152 68.2432V68.2528ZM368.932 68.2528C368.712 68.2528 368.5 68.1279 368.395 67.9165C365.542 62.0952 362.709 56.2738 359.894 50.4332C359.27 49.1459 358.924 47.5417 359.011 46.2545C359.039 45.9086 359.087 45.5916 359.155 45.2938C359.856 42.3063 362.603 40.8269 366.666 41.24L373.648 42.3831C373.975 42.4408 374.196 42.7482 374.138 43.0748C374.081 43.4014 373.764 43.6224 373.447 43.5647L366.56 42.4312C364.543 42.2294 361.066 42.3735 360.307 45.5724C360.25 45.8318 360.211 46.0816 360.192 46.3409C360.115 47.4264 360.413 48.8001 360.951 49.9144C363.765 55.7454 366.589 61.5764 369.451 67.3882C369.595 67.686 369.47 68.0414 369.173 68.1951C369.086 68.2336 369 68.2528 368.904 68.2528H368.932Z" fill="white"/>
<path fill-rule="evenodd" clip-rule="evenodd" d="M406.748 25.7731C397.719 44.2652 425.957 32.5455 423.412 15.6674C421.318 1.83438 409.062 21.0469 406.748 25.7731Z" fill="white"/>
<path fill-rule="evenodd" clip-rule="evenodd" d="M397.651 21.1241C400.715 33.5641 410.963 14.3228 402.319 8.41501C395.24 3.58307 396.864 17.9444 397.651 21.1241Z" fill="white"/>
<path fill-rule="evenodd" clip-rule="evenodd" d="M408.361 47.6181C400.927 45.5335 407.977 56.6287 413.644 53.8429C418.283 51.5663 410.263 48.1464 408.361 47.6181Z" fill="white"/>
<path fill-rule="evenodd" clip-rule="evenodd" d="M466.941 370.821H431.038C430.25 370.821 429.606 370.177 429.606 369.389C429.606 368.602 430.25 367.958 431.038 367.958H466.941C467.728 367.958 468.372 368.602 468.372 369.389C468.372 370.177 467.728 370.821 466.941 370.821Z" fill="white"/>
<path fill-rule="evenodd" clip-rule="evenodd" d="M428.156 369.39C427.407 369.39 427.081 370.004 427.446 370.754L428.07 372.06C428.771 373.53 430.548 374.731 432.018 374.731H466.105C467.575 374.731 469.352 373.53 470.053 372.06L470.677 370.754C471.033 370.004 470.716 369.39 469.966 369.39H428.156Z" fill="#FBB872"/>
<path fill-rule="evenodd" clip-rule="evenodd" d="M568.954 374.73H465.731C465.145 374.73 464.741 374.25 464.847 373.664L479.706 288.87C479.811 288.284 480.378 287.794 480.964 287.794H584.187C584.773 287.794 585.177 288.274 585.071 288.87L570.212 373.664C570.107 374.25 569.54 374.73 568.954 374.73Z" fill="#FBD978"/>
<path fill-rule="evenodd" clip-rule="evenodd" d="M568.954 374.73H465.731C465.145 374.73 464.741 374.25 464.847 373.664L477.132 303.548C484.566 307.333 493.604 315.373 501.806 332.088C518.605 366.325 547.276 384.586 573.929 352.405L570.203 373.654C570.097 374.24 569.53 374.721 568.944 374.721L568.954 374.73Z" fill="#FBB872"/>
<path fill-rule="evenodd" clip-rule="evenodd" d="M481.762 288.86L467.969 367.564C467.969 367.564 467.566 369.38 465.587 369.38L479.696 288.86C479.802 288.274 480.369 287.784 480.955 287.784H483.02C482.434 287.784 481.867 288.265 481.762 288.86Z" fill="white"/>
<path d="M455.54 370.82H460.659C460.928 370.82 461.139 371.032 461.139 371.301V372.761C461.139 373.03 460.919 373.241 460.659 373.241H455.54C455.271 373.241 455.06 373.02 455.06 372.761V371.301C455.06 371.032 455.271 370.82 455.54 370.82Z" fill="white"/>
<path d="M447.175 370.82H452.294C452.563 370.82 452.774 371.041 452.774 371.3V372.751C452.774 373.02 452.553 373.231 452.294 373.231H447.175C446.906 373.231 446.694 373.02 446.694 372.751V371.291C446.694 371.022 446.906 370.811 447.175 370.811V370.82Z" fill="#4A3D82"/>
<path fill-rule="evenodd" clip-rule="evenodd" d="M448.116 371.301V372.761C448.116 373.03 448.337 373.241 448.596 373.241H447.165C446.896 373.241 446.685 373.02 446.685 372.761V371.301C446.685 371.032 446.905 370.82 447.165 370.82H448.596C448.327 370.82 448.116 371.041 448.116 371.301Z" fill="#6558A6"/>
<path fill-rule="evenodd" clip-rule="evenodd" d="M456.491 371.301V372.761C456.491 373.03 456.712 373.241 456.971 373.241H455.54C455.271 373.241 455.06 373.02 455.06 372.761V371.301C455.06 371.032 455.28 370.82 455.54 370.82H456.971C456.702 370.82 456.491 371.041 456.491 371.301Z" fill="#4A3D82"/>
<path d="M442.516 372.77C442.924 372.77 443.255 372.439 443.255 372.031C443.255 371.622 442.924 371.291 442.516 371.291C442.107 371.291 441.776 371.622 441.776 372.031C441.776 372.439 442.107 372.77 442.516 372.77Z" fill="#4A3D82"/>
<path fill-rule="evenodd" clip-rule="evenodd" d="M438.972 371.291C438.569 371.291 438.232 371.627 438.232 372.031C438.232 372.434 438.559 372.77 438.972 372.77C439.385 372.77 439.712 372.444 439.712 372.031C439.712 371.618 439.385 371.291 438.972 371.291Z" fill="white"/>
<path d="M435.427 372.77C435.836 372.77 436.167 372.439 436.167 372.031C436.167 371.622 435.836 371.291 435.427 371.291C435.019 371.291 434.688 371.622 434.688 372.031C434.688 372.439 435.019 372.77 435.427 372.77Z" fill="#FF80A9"/>
<path fill-rule="evenodd" clip-rule="evenodd" d="M528.393 321.607C523.063 321.607 518.231 325.93 517.607 331.262C516.983 336.593 520.796 340.916 526.126 340.916C531.457 340.916 536.288 336.593 536.913 331.262C537.537 325.93 533.724 321.607 528.393 321.607Z" fill="white"/>
<path fill-rule="evenodd" clip-rule="evenodd" d="M494.679 171.375C481.492 171.375 470.802 182.067 470.802 195.256C470.802 208.445 481.492 219.137 494.679 219.137C507.867 219.137 518.557 208.445 518.557 195.256C518.557 182.067 507.867 171.375 494.679 171.375Z" fill="#C7E9E3"/>
<path d="M494.68 219.983C481.041 219.983 469.947 208.888 469.947 195.247C469.947 181.606 481.041 170.511 494.68 170.511C508.319 170.511 519.412 181.606 519.412 195.247C519.412 208.888 508.319 219.983 494.68 219.983ZM494.68 172.23C481.992 172.23 471.667 182.557 471.667 195.247C471.667 207.937 481.992 218.263 494.68 218.263C507.368 218.263 517.703 207.937 517.703 195.247C517.703 182.557 507.377 172.23 494.68 172.23Z" fill="#4C466A"/>
<path fill-rule="evenodd" clip-rule="evenodd" d="M535.788 162.317C532.936 159.463 528.268 159.463 525.425 162.317L518.413 169.329L528.777 179.694L535.788 172.682C538.641 169.829 538.641 165.16 535.788 162.317Z" fill="#4C466A"/>
<path fill-rule="evenodd" clip-rule="evenodd" d="M518.404 169.339L504.333 183.412C501.48 186.265 501.48 190.924 504.333 193.777C507.185 196.63 511.844 196.63 514.696 193.777L528.768 179.704L518.404 169.339Z" fill="white"/>
<path fill-rule="evenodd" clip-rule="evenodd" d="M510.23 187.879C509.548 187.197 508.443 187.197 507.761 187.879L500.346 195.285C499.664 195.967 499.664 197.072 500.346 197.754C501.028 198.436 502.133 198.436 502.815 197.754L510.23 190.348C510.912 189.665 510.912 188.561 510.23 187.879Z" fill="white"/>
<path fill-rule="evenodd" clip-rule="evenodd" d="M530.929 177.552L520.565 167.187C519.384 166.005 517.443 166.005 516.262 167.187C515.081 168.369 515.081 170.309 516.262 171.491L526.626 181.856C527.807 183.037 529.747 183.037 530.929 181.856C532.11 180.674 532.11 178.734 530.929 177.552Z" fill="#4C466A"/>
<path fill-rule="evenodd" clip-rule="evenodd" d="M521.391 232.673H578.828C580.941 232.673 582.67 234.402 582.67 236.515V267.716C582.67 269.83 580.941 271.559 578.828 271.559H573.497L568.935 276.42C568.426 276.967 567.581 276.967 567.072 276.42L562.5 271.559H521.401C519.287 271.559 517.559 269.83 517.559 267.716V236.515C517.559 234.402 519.297 232.673 521.401 232.673H521.391Z" fill="#FF808F"/>
<path d="M567.994 277.688C567.398 277.688 566.851 277.448 566.438 277.006L562.125 272.414H521.391C518.798 272.414 516.694 270.301 516.694 267.717V236.516C516.694 233.922 518.807 231.818 521.391 231.818H578.828C581.422 231.818 583.525 233.932 583.525 236.516V267.717C583.525 270.311 581.412 272.414 578.828 272.414H573.862L569.55 277.006C569.137 277.448 568.58 277.688 567.994 277.688ZM521.391 233.538C519.749 233.538 518.404 234.883 518.404 236.525V267.727C518.404 269.369 519.749 270.714 521.391 270.714H562.49C562.73 270.714 562.951 270.81 563.115 270.983L567.687 275.844C567.946 276.122 568.157 275.997 568.301 275.844L572.864 270.983C573.027 270.81 573.248 270.714 573.488 270.714H578.819C580.461 270.714 581.806 269.379 581.806 267.727V236.525C581.806 234.883 580.461 233.538 578.819 233.538H521.382H521.391Z" fill="white"/>
<path fill-rule="evenodd" clip-rule="evenodd" d="M139.529 262.52H179.409C181.522 262.52 183.251 260.791 183.251 258.677V227.476C183.251 225.363 181.522 223.634 179.409 223.634H174.078L169.516 218.773C168.997 218.225 168.162 218.225 167.653 218.773L163.081 223.634H139.529C137.416 223.634 135.688 225.363 135.688 227.476V258.677C135.688 260.791 137.426 262.52 139.529 262.52Z" fill="#E4D9E1"/>
<path d="M179.409 263.375H139.53C136.936 263.375 134.833 261.261 134.833 258.677V227.476C134.833 224.882 136.946 222.779 139.53 222.779H162.706L167.019 218.187C167.835 217.313 169.305 217.313 170.131 218.187L174.443 222.769H179.409C182.003 222.769 184.106 224.882 184.106 227.466V258.668C184.106 261.261 182.003 263.365 179.409 263.365V263.375ZM139.53 224.489C137.887 224.489 136.543 225.833 136.543 227.476V258.677C136.543 260.32 137.878 261.665 139.53 261.665H179.409C181.052 261.665 182.396 260.32 182.396 258.677V227.476C182.396 225.833 181.052 224.489 179.409 224.489H174.079C173.838 224.489 173.617 224.393 173.454 224.22L168.892 219.359C168.748 219.205 168.536 219.08 168.277 219.359L163.705 224.22C163.542 224.393 163.321 224.489 163.081 224.489H139.53Z" fill="#E4D9E1"/>
<path fill-rule="evenodd" clip-rule="evenodd" d="M135.563 258.552H175.442C177.555 258.552 179.284 256.823 179.284 254.71V223.508C179.284 221.395 177.555 219.666 175.442 219.666H170.111L165.549 214.805C165.03 214.258 164.195 214.258 163.686 214.805L159.114 219.666H135.563C133.45 219.666 131.721 221.395 131.721 223.508V254.71C131.721 256.823 133.459 258.552 135.563 258.552Z" fill="#FF808F"/>
<path d="M175.442 259.407H135.563C132.97 259.407 130.866 257.303 130.866 254.709V223.508C130.866 220.915 132.979 218.811 135.563 218.811H158.74L163.052 214.219C163.878 213.345 165.338 213.345 166.164 214.219L170.477 218.801H175.442C178.036 218.801 180.139 220.915 180.139 223.499V254.7C180.139 257.294 178.026 259.397 175.442 259.397V259.407ZM135.563 220.521C133.921 220.521 132.576 221.866 132.576 223.508V254.709C132.576 256.352 133.921 257.697 135.563 257.697H175.442C177.085 257.697 178.43 256.352 178.43 254.709V223.508C178.43 221.866 177.085 220.521 175.442 220.521H170.112C169.872 220.521 169.651 220.425 169.487 220.252L164.925 215.391C164.781 215.237 164.57 215.112 164.31 215.391L159.738 220.252C159.575 220.425 159.354 220.521 159.114 220.521H135.563Z" fill="white"/>
<path d="M576.821 216.016H553.135C550.542 216.016 548.438 213.903 548.438 211.318V190.771C548.438 188.177 550.542 186.073 553.135 186.073H576.821C579.414 186.073 581.518 188.177 581.518 190.771V211.318C581.518 213.912 579.414 216.016 576.821 216.016ZM553.135 187.774C551.493 187.774 550.148 189.118 550.148 190.761V211.309C550.148 212.952 551.483 214.296 553.135 214.296H576.821C578.463 214.296 579.808 212.952 579.808 211.309V190.761C579.808 189.118 578.463 187.774 576.821 187.774H553.135Z" fill="#FF7F18"/>
<path fill-rule="evenodd" clip-rule="evenodd" d="M147.406 42.6133C149.596 42.6133 151.373 44.3904 151.373 46.5807C151.373 48.7709 149.596 50.548 147.406 50.548C145.216 50.548 143.439 48.7709 143.439 46.5807C143.439 44.3904 145.216 42.6133 147.406 42.6133Z" fill="white"/>
<path d="M154.053 53.9194C153.841 53.9194 153.62 53.8425 153.457 53.6792C153.121 53.3526 153.111 52.8051 153.438 52.4689C154.984 50.8838 155.83 48.7993 155.83 46.5898C155.83 44.3804 154.984 42.2862 153.438 40.7108C153.111 40.3746 153.111 39.827 153.457 39.5004C153.793 39.1738 154.331 39.1738 154.667 39.5196C156.521 41.4217 157.549 43.9385 157.549 46.5994C157.549 49.2604 156.521 51.7772 154.667 53.6792C154.494 53.8522 154.274 53.9386 154.053 53.9386V53.9194Z" fill="white"/>
<path d="M140.75 53.9194C140.529 53.9194 140.308 53.833 140.135 53.6601C138.282 51.758 137.254 49.2412 137.254 46.5803C137.254 43.9193 138.272 41.4121 140.135 39.5005C140.462 39.1643 141.009 39.1546 141.346 39.4813C141.682 39.8079 141.691 40.3554 141.365 40.6916C139.818 42.2767 138.973 44.3612 138.973 46.5707C138.973 48.7801 139.818 50.8647 141.365 52.4497C141.691 52.7859 141.691 53.3335 141.346 53.6601C141.182 53.8234 140.961 53.9002 140.75 53.9002V53.9194Z" fill="white"/>
<path d="M193.337 55.0822H180.514C178.891 55.0822 177.575 53.7661 177.575 52.1426V41.0186C177.575 39.4048 178.891 38.0791 180.514 38.0791H193.337C194.96 38.0791 196.276 39.3952 196.276 41.0186V52.1426C196.276 53.7661 194.96 55.0822 193.337 55.0822ZM180.514 39.7986C179.842 39.7986 179.294 40.3462 179.294 41.0186V52.1426C179.294 52.8055 179.852 53.3722 180.514 53.3722H193.337C194.009 53.3722 194.557 52.8247 194.557 52.1426V41.0186C194.557 40.3462 194.009 39.7986 193.337 39.7986H180.514Z" fill="white"/>
<path d="M178.939 54.362C178.699 54.362 178.459 54.266 178.295 54.0642C177.988 53.7088 178.026 53.1612 178.382 52.8538L194.345 39.0112C194.701 38.7038 195.238 38.7423 195.555 39.0977C195.863 39.4531 195.824 39.9911 195.469 40.3081L179.506 54.1507C179.342 54.2948 179.141 54.362 178.949 54.362H178.939Z" fill="white"/>
<path fill-rule="evenodd" clip-rule="evenodd" d="M194.912 39.6641L178.948 53.5067C179.332 53.9485 179.899 54.2271 180.523 54.2271H193.346C194.489 54.2271 195.43 53.2857 195.43 52.1426V41.0185C195.43 40.4998 195.238 40.0291 194.921 39.6641H194.912Z" fill="white"/>
<path d="M184.971 44.2753H181.744C181.273 44.2753 180.889 43.8911 180.889 43.4204C180.889 42.9497 181.273 42.5654 181.744 42.5654H184.971C185.441 42.5654 185.826 42.9497 185.826 43.4204C185.826 43.8911 185.441 44.2753 184.971 44.2753Z" fill="white"/>
<path d="M183.357 45.8888C182.886 45.8888 182.502 45.5045 182.502 45.0338V41.8061C182.502 41.3354 182.886 40.9512 183.357 40.9512C183.827 40.9512 184.212 41.3354 184.212 41.8061V45.0338C184.212 45.5045 183.827 45.8888 183.357 45.8888Z" fill="white"/>
<path d="M192.587 50.8457H189.36C188.889 50.8457 188.505 50.4614 188.505 49.9907C188.505 49.52 188.889 49.1357 189.36 49.1357H192.587C193.058 49.1357 193.442 49.52 193.442 49.9907C193.442 50.4614 193.058 50.8457 192.587 50.8457Z" fill="#FF602D"/>
<path fill-rule="evenodd" clip-rule="evenodd" d="M66.6766 348.467H72.2091V342.501C72.2091 342.261 72.4012 342.069 72.6413 342.069H75.9261C76.1663 342.069 76.3584 342.261 76.3584 342.501V358.746C76.3584 358.986 76.1663 359.178 75.9261 359.178H72.6413C72.4012 359.178 72.2091 358.986 72.2091 358.746V352.079H66.6766V358.746C66.6766 358.986 66.4846 359.178 66.2444 359.178H62.9596C62.7194 359.178 62.5273 358.986 62.5273 358.746V342.501C62.5273 342.261 62.7194 342.069 62.9596 342.069H66.2444C66.4846 342.069 66.6766 342.261 66.6766 342.501V348.467ZM79.3359 342.069H85.3197C86.3282 342.069 87.548 342.108 88.5277 342.396C89.5458 342.694 90.4295 343.241 91.1595 344.01C91.9183 344.807 92.4465 345.758 92.8019 346.795C93.2341 348.044 93.359 349.456 93.359 350.772C93.359 351.973 93.2341 353.222 92.8403 354.365C92.4465 355.499 91.8702 356.555 90.9962 357.401C90.3142 358.073 89.4402 358.505 88.5277 358.803C87.5865 359.101 86.4819 359.168 85.5022 359.168H79.3455C79.1054 359.168 78.9133 358.976 78.9133 358.736V342.492C78.9133 342.252 79.1054 342.06 79.3455 342.06L79.3359 342.069ZM83.0626 345.672V355.566H85.07C85.6367 355.566 86.3954 355.566 86.9429 355.422C87.3655 355.316 87.7497 355.134 88.0763 354.846C88.4413 354.519 88.6718 353.933 88.8063 353.472C89.0752 352.598 89.1232 351.531 89.1232 350.619C89.1232 349.764 89.0848 348.688 88.8159 347.862C88.6526 347.353 88.3933 346.844 87.9995 346.469C87.6345 346.123 87.1831 345.921 86.6932 345.816C85.9632 345.652 84.8587 345.672 84.1095 345.672H83.0722H83.0626Z" fill="white"/>
<path fill-rule="evenodd" clip-rule="evenodd" d="M132.999 359.005H128.734C128.571 359.005 128.437 358.87 128.437 358.707V356.843C128.437 356.785 128.456 356.728 128.485 356.68L133.316 349.571C133.373 349.485 133.46 349.446 133.566 349.446H135.362C135.525 349.446 135.659 349.581 135.659 349.744V356.545H136.754C136.918 356.545 137.052 356.68 137.052 356.843V358.716C137.052 358.88 136.918 359.014 136.754 359.014H135.659V360.964C135.659 361.128 135.525 361.262 135.362 361.262H133.287C133.124 361.262 132.989 361.128 132.989 360.964V359.014L132.999 359.005ZM132.999 356.536V353.99L131.299 356.536H132.999ZM140.846 353.971L144.89 349.581C144.947 349.523 145.024 349.485 145.111 349.485H148.146C148.271 349.485 148.367 349.552 148.424 349.667C148.472 349.783 148.453 349.898 148.367 349.984L144.313 354.163L148.616 360.791C148.674 360.887 148.684 360.993 148.626 361.099C148.568 361.195 148.472 361.252 148.367 361.252H145.447C145.341 361.252 145.245 361.204 145.187 361.108L142.316 356.199L140.856 357.698V360.955C140.856 361.118 140.721 361.252 140.558 361.252H138.291C138.128 361.252 137.993 361.118 137.993 360.955V349.783C137.993 349.619 138.128 349.485 138.291 349.485H140.558C140.721 349.485 140.856 349.619 140.856 349.783V353.971H140.846Z" fill="white"/>
<path fill-rule="evenodd" clip-rule="evenodd" d="M103.963 303.73V305.796H108.352C108.516 305.796 108.65 305.93 108.65 306.093V307.986C108.65 308.149 108.516 308.284 108.352 308.284H103.963V312.731C103.963 312.895 103.828 313.029 103.665 313.029H101.398C101.235 313.029 101.101 312.895 101.101 312.731V301.559C101.101 301.396 101.235 301.261 101.398 301.261H109.073C109.236 301.261 109.37 301.396 109.37 301.559V303.452C109.37 303.615 109.236 303.749 109.073 303.749H103.953L103.963 303.73ZM113.299 306.891L109.908 301.703C109.851 301.607 109.841 301.502 109.899 301.396C109.947 301.3 110.043 301.242 110.158 301.242H112.79C112.895 301.242 112.982 301.29 113.039 301.377L114.989 304.326L116.939 301.377C116.997 301.29 117.083 301.242 117.189 301.242H119.83C119.945 301.242 120.041 301.3 120.089 301.396C120.137 301.492 120.137 301.607 120.08 301.703L116.68 306.891L120.416 312.549C120.474 312.645 120.483 312.75 120.435 312.856C120.378 312.952 120.282 313.01 120.176 313.01H117.467C117.362 313.01 117.275 312.962 117.218 312.875L114.989 309.475L112.761 312.875C112.703 312.962 112.617 313.01 112.511 313.01H109.803C109.687 313.01 109.591 312.952 109.543 312.856C109.495 312.76 109.495 312.645 109.562 312.549L113.308 306.881L113.299 306.891Z" fill="white"/>
<path fill-rule="evenodd" clip-rule="evenodd" d="M542.387 260.493V242.221C542.387 241.491 542.713 240.877 543.28 240.512C543.847 240.156 544.5 240.166 545.057 240.54L558.782 249.676C559.33 250.041 559.637 250.646 559.637 251.357C559.637 252.068 559.33 252.673 558.782 253.038L545.057 262.174C544.49 262.548 543.847 262.558 543.28 262.202C542.713 261.847 542.387 261.223 542.387 260.493Z" fill="white"/>
<path d="M155.502 251.694C155.032 251.694 154.648 251.309 154.648 250.839V248.12C149.759 247.688 145.907 243.567 145.907 238.552C145.907 238.082 146.291 237.697 146.762 237.697C147.233 237.697 147.617 238.082 147.617 238.552C147.617 242.904 151.151 246.439 155.502 246.439C159.853 246.439 163.388 242.904 163.388 238.552C163.388 238.082 163.772 237.697 164.243 237.697C164.714 237.697 165.098 238.082 165.098 238.552C165.098 243.557 161.246 247.678 156.357 248.12V250.839C156.357 251.309 155.973 251.694 155.502 251.694Z" fill="white"/>
<path fill-rule="evenodd" clip-rule="evenodd" d="M155.503 227.207C158.452 227.207 160.872 229.628 160.872 232.577V238.562C160.872 241.52 158.461 243.931 155.503 243.931C152.554 243.931 150.134 241.52 150.134 238.562V232.577C150.134 229.628 152.545 227.207 155.503 227.207Z" fill="white"/>
<path d="M571.634 167.13C571.423 167.13 571.202 167.043 571.039 166.89C570.702 166.563 570.693 166.015 571.019 165.679C572.566 164.094 573.411 162.01 573.411 159.8C573.411 157.591 572.566 155.497 571.019 153.921C570.693 153.585 570.702 153.037 571.039 152.711C571.375 152.384 571.922 152.394 572.249 152.73C574.102 154.632 575.13 157.149 575.13 159.81C575.13 162.471 574.112 164.988 572.249 166.89C572.076 167.062 571.855 167.149 571.634 167.149V167.13Z" fill="white"/>
<path d="M558.331 167.129C558.11 167.129 557.889 167.043 557.716 166.87C555.863 164.968 554.835 162.451 554.835 159.79C554.835 157.129 555.853 154.622 557.716 152.71C558.043 152.374 558.59 152.365 558.927 152.691C559.263 153.018 559.272 153.565 558.946 153.902C557.399 155.487 556.554 157.571 556.554 159.781C556.554 161.99 557.399 164.075 558.946 165.66C559.272 165.996 559.272 166.543 558.927 166.87C558.763 167.033 558.542 167.11 558.331 167.11V167.129Z" fill="white"/>
<path d="M568.167 126.658H561.799C560.752 126.658 559.897 125.803 559.897 124.756V122.028H558.562C557.793 122.028 557.111 121.73 556.689 121.202C556.189 120.568 556.199 119.751 556.718 119.127L563.134 111.442C563.969 110.443 565.977 110.443 566.812 111.442L573.228 119.127C573.747 119.751 573.766 120.568 573.257 121.202C572.844 121.73 572.162 122.028 571.384 122.028H570.049V124.756C570.049 125.803 569.194 126.658 568.147 126.658H568.167ZM558.043 120.231C558.11 120.231 558.283 120.327 558.562 120.327H560.752C561.222 120.327 561.607 120.712 561.607 121.182V124.766C561.607 124.862 561.693 124.948 561.789 124.948H568.157C568.253 124.948 568.339 124.862 568.339 124.766V121.182C568.339 120.712 568.724 120.327 569.194 120.327H571.384C571.672 120.327 571.845 120.231 571.913 120.155L565.496 112.556C565.429 112.47 565.256 112.383 564.968 112.383C564.68 112.383 564.517 112.47 564.44 112.556L558.024 120.241L558.043 120.231Z" fill="white"/>
<path d="M564.978 163.239C564.507 163.239 564.123 162.855 564.123 162.384V157.207C564.123 156.736 564.507 156.352 564.978 156.352C565.448 156.352 565.833 156.736 565.833 157.207V162.384C565.833 162.855 565.448 163.239 564.978 163.239Z" fill="white"/>
<path d="M567.571 160.645H562.394C561.923 160.645 561.539 160.261 561.539 159.791C561.539 159.32 561.923 158.936 562.394 158.936H567.571C568.042 158.936 568.426 159.32 568.426 159.791C568.426 160.261 568.042 160.645 567.571 160.645Z" fill="white"/>
<path d="M94.5315 371.079H61.3467C58.7726 371.079 56.6787 368.985 56.6787 366.411V334.844C56.6787 332.27 58.7726 330.176 61.3467 330.176H94.5315C97.1056 330.176 99.1995 332.27 99.1995 334.844V366.411C99.1995 368.985 97.1056 371.079 94.5315 371.079ZM61.3467 331.876C59.7139 331.876 58.3884 333.202 58.3884 334.835V366.401C58.3884 368.034 59.7139 369.36 61.3467 369.36H94.5315C96.1643 369.36 97.4898 368.034 97.4898 366.401V334.835C97.4898 333.202 96.1643 331.876 94.5315 331.876H61.3467Z" fill="#D66982"/>
<path d="M124.133 323.74H97.451C95.2899 323.74 93.5322 321.982 93.5322 319.82V294.441C93.5322 292.279 95.2899 290.512 97.451 290.512H124.133C126.294 290.512 128.052 292.27 128.052 294.441V319.82C128.052 321.982 126.294 323.74 124.133 323.74ZM97.451 292.231C96.2312 292.231 95.2419 293.221 95.2419 294.441V319.82C95.2419 321.04 96.2312 322.03 97.451 322.03H124.133C125.353 322.03 126.342 321.04 126.342 319.82V294.441C126.342 293.221 125.353 292.231 124.133 292.231H97.451Z" fill="#FBB872"/>
<path d="M151.891 371.963H125.209C123.048 371.963 121.29 370.205 121.29 368.044V342.664C121.29 340.503 123.048 338.735 125.209 338.735H151.891C154.052 338.735 155.82 340.493 155.82 342.664V368.044C155.82 370.205 154.062 371.963 151.891 371.963ZM125.209 340.445C123.989 340.445 123 341.435 123 342.655V368.034C123 369.254 123.989 370.244 125.209 370.244H151.891C153.111 370.244 154.1 369.254 154.1 368.034V342.655C154.1 341.435 153.111 340.445 151.891 340.445H125.209Z" fill="#FF7F18"/>
<path fill-rule="evenodd" clip-rule="evenodd" d="M131.856 165.535C134.622 166.582 137.378 166.092 138.003 164.43C138.627 162.768 136.898 160.578 134.132 159.531C131.366 158.484 128.619 158.974 127.985 160.636C127.351 162.297 129.089 164.488 131.856 165.535Z" fill="white"/>
<path d="M571.845 207.264H558.119C557.649 207.264 557.265 206.879 557.265 206.409C557.265 205.938 557.649 205.554 558.119 205.554H571.845C572.315 205.554 572.7 205.938 572.7 206.409C572.7 206.879 572.315 207.264 571.845 207.264Z" fill="white"/>
<path d="M571.845 201.894H558.119C557.649 201.894 557.265 201.51 557.265 201.04C557.265 200.569 557.649 200.185 558.119 200.185H571.845C572.315 200.185 572.7 200.569 572.7 201.04C572.7 201.51 572.315 201.894 571.845 201.894Z" fill="white"/>
<path d="M571.845 196.515H558.119C557.649 196.515 557.265 196.13 557.265 195.66C557.265 195.189 557.649 194.805 558.119 194.805H571.845C572.315 194.805 572.7 195.189 572.7 195.66C572.7 196.13 572.315 196.515 571.845 196.515Z" fill="white"/>
<path d="M457.586 334.854H437.3C437.06 334.854 436.868 334.662 436.868 334.422C436.868 334.182 437.06 333.99 437.3 333.99H440.211V326.353H436.503C436.263 326.353 436.071 326.161 436.071 325.921C436.071 325.68 436.263 325.488 436.503 325.488H447.798C448.039 325.488 448.231 325.68 448.231 325.921C448.231 326.161 448.039 326.353 447.798 326.353H441.065V333.99H454.868V326.353H453.485C453.244 326.353 453.052 326.161 453.052 325.921C453.052 325.68 453.244 325.488 453.485 325.488H459.132C459.372 325.488 459.564 325.68 459.564 325.921C459.564 326.161 459.372 326.353 459.132 326.353H455.722V333.99H457.576C457.816 333.99 458.008 334.182 458.008 334.422C458.008 334.662 457.816 334.854 457.576 334.854H457.586ZM433.487 334.854H432.748C432.508 334.854 432.315 334.662 432.315 334.422C432.315 334.182 432.508 333.99 432.748 333.99H433.487C433.727 333.99 433.919 334.182 433.919 334.422C433.919 334.662 433.727 334.854 433.487 334.854Z" fill="#C7E9E3"/>
<path d="M421.942 161.769H384.301C384.061 161.769 383.869 161.577 383.869 161.337C383.869 161.097 384.061 160.905 384.301 160.905H393.137V153.268H386.644C386.404 153.268 386.212 153.076 386.212 152.836C386.212 152.595 386.404 152.403 386.644 152.403H410.57C410.81 152.403 411.002 152.595 411.002 152.836C411.002 153.076 410.81 153.268 410.57 153.268H393.992V160.905H417.687V153.268H415.084C414.844 153.268 414.652 153.076 414.652 152.836C414.652 152.595 414.844 152.403 415.084 152.403H424.545C424.785 152.403 424.978 152.595 424.978 152.836C424.978 153.076 424.785 153.268 424.545 153.268H418.552V160.905H421.952C422.192 160.905 422.384 161.097 422.384 161.337C422.384 161.577 422.192 161.769 421.952 161.769H421.942ZM381.602 161.769H380.363C380.123 161.769 379.931 161.577 379.931 161.337C379.931 161.097 380.123 160.905 380.363 160.905H381.602C381.842 160.905 382.034 161.097 382.034 161.337C382.034 161.577 381.842 161.769 381.602 161.769Z" fill="#C7E9E3"/>
<path d="M498.099 244.229H492.451C492.211 244.229 492.019 244.037 492.019 243.797C492.019 243.557 492.211 243.365 492.451 243.365H493.834V235.728H480.032V243.365H486.765C487.005 243.365 487.197 243.557 487.197 243.797C487.197 244.037 487.005 244.229 486.765 244.229H475.47C475.23 244.229 475.038 244.037 475.038 243.797C475.038 243.557 475.23 243.365 475.47 243.365H479.177V235.728H476.267C476.027 235.728 475.835 235.536 475.835 235.296C475.835 235.055 476.027 234.863 476.267 234.863H496.553C496.793 234.863 496.985 235.055 496.985 235.296C496.985 235.536 496.793 235.728 496.553 235.728H494.689V243.365H498.099C498.339 243.365 498.531 243.557 498.531 243.797C498.531 244.037 498.339 244.229 498.099 244.229ZM472.454 235.737H471.714C471.474 235.737 471.282 235.545 471.282 235.305C471.282 235.065 471.474 234.873 471.714 234.873H472.454C472.694 234.873 472.886 235.065 472.886 235.305C472.886 235.545 472.694 235.737 472.454 235.737Z" fill="#C7E9E3"/>
<path fill-rule="evenodd" clip-rule="evenodd" d="M295.993 58.2047C295.993 55.3324 298.317 53.0077 301.189 53.0077C301.535 53.0077 301.814 52.7291 301.814 52.3833C301.814 52.0375 301.535 51.7589 301.189 51.7589C298.317 51.7589 295.993 49.4342 295.993 46.5619C295.993 46.2161 295.714 45.9375 295.369 45.9375C295.023 45.9375 294.744 46.2161 294.744 46.5619C294.744 49.4342 292.42 51.7589 289.548 51.7589C289.202 51.7589 288.924 52.0375 288.924 52.3833C288.924 52.7291 289.202 53.0077 289.548 53.0077C292.42 53.0077 294.744 55.3324 294.744 58.2047C294.744 58.5505 295.023 58.8291 295.369 58.8291C295.714 58.8291 295.993 58.5505 295.993 58.2047Z" fill="white"/>
<path fill-rule="evenodd" clip-rule="evenodd" d="M281.854 40.5096C281.854 38.7997 283.237 37.4164 284.947 37.4164C285.149 37.4164 285.322 37.2531 285.322 37.0417C285.322 36.8304 285.158 36.6671 284.947 36.6671C283.237 36.6671 281.854 35.2838 281.854 33.5739C281.854 33.3721 281.691 33.1992 281.48 33.1992C281.268 33.1992 281.105 33.3625 281.105 33.5739C281.105 35.2838 279.722 36.6671 278.012 36.6671C277.811 36.6671 277.638 36.8304 277.638 37.0417C277.638 37.2531 277.801 37.4164 278.012 37.4164C279.722 37.4164 281.105 38.7997 281.105 40.5096C281.105 40.7113 281.268 40.8842 281.48 40.8842C281.691 40.8842 281.854 40.7209 281.854 40.5096Z" fill="white"/>
<path fill-rule="evenodd" clip-rule="evenodd" d="M599.93 326.045C599.93 323.173 602.254 320.849 605.126 320.849C605.472 320.849 605.75 320.57 605.75 320.224C605.75 319.878 605.472 319.6 605.126 319.6C602.254 319.6 599.93 317.275 599.93 314.403C599.93 314.057 599.651 313.778 599.305 313.778C598.959 313.778 598.681 314.057 598.681 314.403C598.681 317.275 596.357 319.6 593.485 319.6C593.139 319.6 592.86 319.878 592.86 320.224C592.86 320.57 593.139 320.849 593.485 320.849C596.357 320.849 598.681 323.173 598.681 326.045C598.681 326.391 598.959 326.67 599.305 326.67C599.651 326.67 599.93 326.391 599.93 326.045Z" fill="white"/>
<path fill-rule="evenodd" clip-rule="evenodd" d="M53.5565 193.739C53.5565 190.867 55.8809 188.542 58.7527 188.542C59.0985 188.542 59.377 188.263 59.377 187.917C59.377 187.572 59.0985 187.293 58.7527 187.293C55.8809 187.293 53.5565 184.968 53.5565 182.096C53.5565 181.75 53.2779 181.472 52.9322 181.472C52.5864 181.472 52.3079 181.75 52.3079 182.096C52.3079 184.968 49.9835 187.293 47.1116 187.293C46.7658 187.293 46.4873 187.572 46.4873 187.917C46.4873 188.263 46.7658 188.542 47.1116 188.542C49.9835 188.542 52.3079 190.867 52.3079 193.739C52.3079 194.085 52.5864 194.363 52.9322 194.363C53.2779 194.363 53.5565 194.085 53.5565 193.739Z" fill="white"/>
<path fill-rule="evenodd" clip-rule="evenodd" d="M519.69 63.449C519.69 61.7391 521.073 60.3558 522.783 60.3558C522.985 60.3558 523.158 60.1925 523.158 59.9812C523.158 59.7698 522.994 59.6065 522.783 59.6065C521.073 59.6065 519.69 58.2232 519.69 56.5133C519.69 56.3116 519.527 56.1387 519.316 56.1387C519.104 56.1387 518.941 56.302 518.941 56.5133C518.941 58.2232 517.558 59.6065 515.848 59.6065C515.647 59.6065 515.474 59.7698 515.474 59.9812C515.474 60.1925 515.637 60.3558 515.848 60.3558C517.558 60.3558 518.941 61.7391 518.941 63.449C518.941 63.6508 519.104 63.8237 519.316 63.8237C519.527 63.8237 519.69 63.6604 519.69 63.449Z" fill="white"/>
<path fill-rule="evenodd" clip-rule="evenodd" d="M483.077 148.724C483.077 147.015 484.46 145.631 486.17 145.631C486.371 145.631 486.544 145.468 486.544 145.257C486.544 145.045 486.381 144.882 486.17 144.882C484.46 144.882 483.077 143.499 483.077 141.789C483.077 141.587 482.914 141.414 482.702 141.414C482.491 141.414 482.328 141.577 482.328 141.789C482.328 143.499 480.945 144.882 479.235 144.882C479.033 144.882 478.86 145.045 478.86 145.257C478.86 145.468 479.024 145.631 479.235 145.631C480.945 145.631 482.328 147.015 482.328 148.724C482.328 148.926 482.491 149.099 482.702 149.099C482.914 149.099 483.077 148.936 483.077 148.724Z" fill="#C7E9E3"/>
<path fill-rule="evenodd" clip-rule="evenodd" d="M410.666 207.706C410.666 205.996 412.049 204.613 413.759 204.613C413.96 204.613 414.133 204.449 414.133 204.238C414.133 204.027 413.97 203.863 413.759 203.863C412.049 203.863 410.666 202.48 410.666 200.77C410.666 200.568 410.502 200.396 410.291 200.396C410.08 200.396 409.917 200.559 409.917 200.77C409.917 202.48 408.533 203.863 406.824 203.863C406.622 203.863 406.449 204.027 406.449 204.238C406.449 204.449 406.612 204.613 406.824 204.613C408.533 204.613 409.917 205.996 409.917 207.706C409.917 207.908 410.08 208.081 410.291 208.081C410.502 208.081 410.666 207.917 410.666 207.706Z" fill="#C7E9E3"/>
<path fill-rule="evenodd" clip-rule="evenodd" d="M487.072 188.513C487.072 186.804 488.455 185.42 490.165 185.42C490.366 185.42 490.539 185.257 490.539 185.046C490.539 184.834 490.376 184.671 490.165 184.671C488.455 184.671 487.072 183.288 487.072 181.578C487.072 181.376 486.909 181.203 486.697 181.203C486.486 181.203 486.323 181.366 486.323 181.578C486.323 183.288 484.94 184.671 483.23 184.671C483.028 184.671 482.855 184.834 482.855 185.046C482.855 185.257 483.019 185.42 483.23 185.42C484.94 185.42 486.323 186.804 486.323 188.513C486.323 188.715 486.486 188.888 486.697 188.888C486.909 188.888 487.072 188.725 487.072 188.513Z" fill="white"/>
<path fill-rule="evenodd" clip-rule="evenodd" d="M606.672 282.76C606.672 281.05 608.055 279.666 609.764 279.666C609.966 279.666 610.139 279.503 610.139 279.292C610.139 279.08 609.976 278.917 609.764 278.917C608.055 278.917 606.672 277.534 606.672 275.824C606.672 275.622 606.508 275.449 606.297 275.449C606.086 275.449 605.922 275.613 605.922 275.824C605.922 277.534 604.539 278.917 602.83 278.917C602.628 278.917 602.455 279.08 602.455 279.292C602.455 279.503 602.618 279.666 602.83 279.666C604.539 279.666 605.922 281.05 605.922 282.76C605.922 282.961 606.086 283.134 606.297 283.134C606.508 283.134 606.672 282.971 606.672 282.76Z" fill="white"/>
<path fill-rule="evenodd" clip-rule="evenodd" d="M92.9265 217.514C92.9265 215.805 94.3096 214.421 96.0193 214.421C96.221 214.421 96.3939 214.258 96.3939 214.047C96.3939 213.835 96.2306 213.672 96.0193 213.672C94.3096 213.672 92.9265 212.289 92.9265 210.579C92.9265 210.377 92.7632 210.204 92.5519 210.204C92.3406 210.204 92.1773 210.367 92.1773 210.579C92.1773 212.289 90.7942 213.672 89.0846 213.672C88.8828 213.672 88.71 213.835 88.71 214.047C88.71 214.258 88.8732 214.421 89.0846 214.421C90.7942 214.421 92.1773 215.805 92.1773 217.514C92.1773 217.716 92.3406 217.889 92.5519 217.889C92.7632 217.889 92.9265 217.726 92.9265 217.514Z" fill="white"/>
<path fill-rule="evenodd" clip-rule="evenodd" d="M292.67 224.412C292.67 222.702 294.053 221.319 295.762 221.319C295.964 221.319 296.137 221.155 296.137 220.944C296.137 220.733 295.974 220.569 295.762 220.569C294.053 220.569 292.67 219.186 292.67 217.476C292.67 217.274 292.506 217.102 292.295 217.102C292.084 217.102 291.92 217.265 291.92 217.476C291.92 219.186 290.537 220.569 288.828 220.569C288.626 220.569 288.453 220.733 288.453 220.944C288.453 221.155 288.616 221.319 288.828 221.319C290.537 221.319 291.92 222.702 291.92 224.412C291.92 224.614 292.084 224.787 292.295 224.787C292.506 224.787 292.67 224.623 292.67 224.412Z" fill="white"/>
<path fill-rule="evenodd" clip-rule="evenodd" d="M274.92 214.402C274.92 211.53 277.244 209.205 280.116 209.205C280.462 209.205 280.74 208.926 280.74 208.581C280.74 208.235 280.462 207.956 280.116 207.956C277.244 207.956 274.92 205.631 274.92 202.759C274.92 202.413 274.641 202.135 274.295 202.135C273.95 202.135 273.671 202.413 273.671 202.759C273.671 205.631 271.347 207.956 268.475 207.956C268.129 207.956 267.851 208.235 267.851 208.581C267.851 208.926 268.129 209.205 268.475 209.205C271.347 209.205 273.671 211.53 273.671 214.402C273.671 214.748 273.95 215.026 274.295 215.026C274.641 215.026 274.92 214.748 274.92 214.402Z" fill="white"/>
<path fill-rule="evenodd" clip-rule="evenodd" d="M491.029 207.264C491.029 204.392 493.354 202.067 496.225 202.067C496.571 202.067 496.85 201.789 496.85 201.443C496.85 201.097 496.571 200.818 496.225 200.818C493.354 200.818 491.029 198.494 491.029 195.621C491.029 195.276 490.751 194.997 490.405 194.997C490.059 194.997 489.781 195.276 489.781 195.621C489.781 198.494 487.456 200.818 484.584 200.818C484.238 200.818 483.96 201.097 483.96 201.443C483.96 201.789 484.238 202.067 484.584 202.067C487.456 202.067 489.781 204.392 489.781 207.264C489.781 207.61 490.059 207.889 490.405 207.889C490.751 207.889 491.029 207.61 491.029 207.264Z" fill="white"/>
</g>
<defs>
<clipPath id="clip0_3355_7778">
<rect width="650" height="384" fill="white"/>
</clipPath>
</defs>
</svg>
