<svg width="67" height="66" viewBox="0 0 67 66" fill="none" xmlns="http://www.w3.org/2000/svg">
<g clip-path="url(#clip0_3353_7587)">
<path d="M50.4587 62.712C50.1392 64.478 47.9029 65.9848 45.9933 66.0017L5.09682 65.9933C2.3968 65.6363 0.987456 64.0083 0.793945 61.5402V4.61976C0.989282 2.04893 2.24163 0.39901 5.095 0L32.2121 0.0723943L50.2889 13.3694L50.4569 15.3173C50.1045 15.0698 50.0443 14.7903 49.6062 14.5041C48.75 13.9452 47.64 13.8105 46.6195 14.0495C45.9313 14.2112 45.3635 14.9099 44.7173 14.989C42.9227 15.2095 36.8783 15.1742 35.0782 14.9351C33.521 14.728 31.2883 13.0478 31.2883 11.5275V2.27116L31.0145 2.01862H5.27573C4.70798 2.01862 3.54144 2.72236 3.31506 3.24091V62.754C3.88464 63.6733 4.89236 63.9679 5.99866 63.9831C18.8398 63.3719 32.5224 64.771 45.2649 63.9831C46.9007 63.882 48.0234 63.5487 48.2698 61.8718V40.4044C49.1206 40.5105 49.7559 40.2984 50.4605 39.901V62.7136L50.4587 62.712ZM45.3471 12.9619L33.4809 4.03893V11.1942C33.4809 11.8541 34.9121 12.9619 35.5803 12.9619H45.3471Z" fill="black"/>
<path d="M39.5398 28.0842L48.5399 35.9954L65.3059 24.1968C66.3575 23.8298 67.2629 25.0234 66.5291 25.8433L49.104 38.2261C48.0908 39.0982 47.105 37.1032 46.5299 37.5257C46.1739 37.7884 45.1023 39.243 44.8358 39.6774C43.7934 41.3694 43.0723 43.7971 42.8149 45.7265C42.6451 46.9875 42.8295 50.092 42.2453 50.9254C42.0518 51.2015 41.5826 51.5029 41.3179 51.7537C32.9312 53.7858 24.34 57.19 15.9552 59.005C15.1702 59.175 13.843 59.6531 13.832 58.478C16.4243 50.9456 18.4416 43.0294 21.2019 35.5593C21.4209 34.965 21.6784 33.9751 22.08 33.507C23.1918 32.2073 25.7494 32.7595 27.365 32.6568C31.0527 32.4211 34.6801 31.2375 37.6813 29.2879C37.8 29.1297 36.2884 28.5101 36.8635 27.2727L47.1615 16.0617C48.1985 15.6778 49.1898 16.8243 48.5271 17.6594L39.6803 27.3451L39.5416 28.0825L39.5398 28.0842ZM19.4256 55.8937L40.3302 49.8361C40.4014 44.9941 41.1225 39.977 44.792 36.2799L39.1345 31.0523C38.7329 30.8672 37.3509 31.948 36.889 32.1837C34.2219 33.5424 30.9705 34.4835 27.9109 34.6788C27.1386 34.7276 24.2488 34.5088 23.8909 34.8438L17.4175 54.5468L30.2111 43.3543C30.4448 43.0294 29.8953 42.26 30.0942 41.4047C30.9212 37.8423 37.1045 39.5545 35.2771 43.1557C34.5395 44.6103 33.4935 44.1742 32.3324 44.4806C31.73 44.6389 24.2871 51.3497 23.1607 52.3531L19.4256 55.8937Z" fill="black"/>
<path d="M10.1555 19.8247C9.77758 19.3044 9.85061 18.4206 10.5206 18.1377L40.146 18.0098C42.3513 18.2455 41.1811 20.2035 39.5965 20.2035C30.1437 20.2001 20.5905 19.7843 11.1103 20.1176L10.1555 19.8247Z" fill="black"/>
<path d="M37.4972 23.2314C37.6159 23.3123 35.9893 25.2635 35.5767 25.2484L11.1067 25.2635C9.17158 25.0918 10.0661 23.2331 10.57 23.2331H37.4972V23.2314Z" fill="black"/>
<path d="M10.1554 28.6577C10.5005 28.3412 11.8605 28.2991 12.3826 28.2755C19.1117 27.9775 26.0927 28.5129 32.851 28.2755L34.5707 28.5331C32.8254 29.6645 30.0761 30.3463 27.9201 30.4777C22.4726 30.806 16.6234 30.2285 11.1339 30.4541C10.1244 30.5467 9.51465 29.2453 10.1554 28.6577Z" fill="black"/>
<path d="M15.7725 61.2806L22.7991 59.2586C28.358 59.6391 34.6891 58.7586 40.1548 59.2502C42.0206 59.4185 41.5003 61.2806 40.6916 61.2806H15.7725Z" fill="black"/>
<path d="M19.6067 33.502L18.7596 35.4987C16.3133 35.3724 13.5074 35.7462 11.1068 35.5324C9.22097 35.3657 9.93112 33.502 10.7526 33.502H19.6067Z" fill="black"/>
<path d="M50.5333 26.836C50.9915 26.4353 52.9084 24.6591 53.3118 24.6187C54.2721 24.5227 54.6865 25.383 54.4364 26.1407C54.3414 26.4319 50.2777 30.1695 49.8195 30.4675C48.6913 31.1998 47.5485 30.5213 47.9848 29.2805C48.1637 28.7687 49.9966 27.3074 50.5351 26.8343L50.5333 26.836Z" fill="black"/>
<path d="M51.4922 23.3482L46.6891 27.5875C45.5774 28.1279 44.6336 26.9881 45.3437 26.0083C46.3332 24.6446 48.8379 23.0923 50.0245 21.7387C51.2038 21.0905 52.2426 22.3566 51.4904 23.3482H51.4922Z" fill="black"/>
<path d="M17.7808 38.7207L17.2532 40.64L16.9666 40.7528C15.2852 40.4801 12.1398 41.1114 10.6501 40.6669C9.58944 40.3504 9.83589 38.7207 10.5698 38.7207H17.7808Z" fill="black"/>
<path d="M16.1375 43.7712C16.227 43.8487 15.7706 45.347 15.63 45.576C15.2156 46.2478 14.8852 45.7898 14.228 45.7831C13.3809 45.7764 10.7648 45.9986 10.2372 45.6333C9.56179 45.0558 10.0583 43.7695 10.9346 43.7695H16.1375V43.7712Z" fill="black"/>
<path d="M33.8457 56.2306L40.5164 54.2002C42.059 54.2086 41.3087 56.2306 40.6916 56.2306H33.8457Z" fill="black"/>
<path d="M14.495 48.9902L13.836 51.0206C12.6639 50.8338 9.80691 51.6301 9.91097 49.9162C9.9274 49.635 10.3655 48.9902 10.57 48.9902H14.495Z" fill="black"/>
<path d="M10.1609 54.4202C10.6063 53.9825 12.054 53.9437 12.6765 54.1188C12.9248 54.2485 12.315 56.0348 12.1288 56.1509C11.1065 56.7806 9.0856 55.4775 10.1609 54.4202Z" fill="black"/>
<path d="M10.5699 61.2808C9.58412 61.0299 9.63158 59.0669 11.4845 59.2437C11.9647 59.2891 11.9482 60.1477 12.3864 60.4457L13.7629 61.2808C12.903 61.1411 11.3184 61.471 10.5681 61.2808H10.5699Z" fill="black"/>
</g>
<defs>
<clipPath id="clip0_3353_7587">
<rect width="66" height="66" fill="white" transform="translate(0.793945)"/>
</clipPath>
</defs>
</svg>
