<svg width="67" height="66" viewBox="0 0 67 66" fill="none" xmlns="http://www.w3.org/2000/svg">
<g clip-path="url(#clip0_3353_7634)">
<path d="M34.7628 56.1003V33.6404H30.2952C30.0777 33.6404 29.8377 33.9906 29.8054 34.2206C29.5212 36.2771 30.1294 39.0851 29.7849 41.1192C29.6654 41.8218 29.2197 42.2699 28.5254 42.4285L2.51745 42.4796C1.79079 42.4753 0.941407 42.0134 0.849902 41.2544L0.804688 25.3963C0.819759 24.7417 1.34726 24.2137 1.94796 24.0263L28.5243 24.0008C29.2197 24.1594 29.6654 24.6075 29.7838 25.3101C30.0853 27.0888 29.6073 29.5061 29.8097 31.354C29.8334 31.5669 29.9184 31.9373 30.1865 31.9373H34.7617V9.90325H30.4018C30.2672 9.90325 29.7838 10.1736 29.8118 10.3844C29.6643 12.4813 29.9981 14.8114 29.814 16.8796C29.6159 19.0969 27.1786 18.3166 25.6047 18.3709L14.6866 7.66472C12.316 5.72743 10.5731 7.67217 8.97879 9.3689L1.06844 1.54734C0.460197 0.811808 1.54749 -0.0120738 2.30107 -0.000364906L28.6556 0.0283752C29.3543 0.263618 29.7117 0.728782 29.7989 1.45261C30.0454 3.50486 29.5965 5.90093 29.8635 7.98831C30.0078 8.14692 30.1994 8.17885 30.4007 8.20227C32.0381 8.38642 34.2009 7.95957 35.779 8.20652C36.3205 8.29168 36.6015 8.79729 36.5972 9.31355V56.5835C36.622 57.1168 36.4142 57.6118 35.8705 57.781C34.1309 57.9663 32.1048 57.6107 30.4007 57.8013C30.1983 57.8236 30.0078 57.8566 29.8635 58.0152C29.5965 60.1026 30.0454 62.4987 29.7989 64.5509C29.7117 65.2747 29.3543 65.7399 28.6556 65.9752L2.19772 65.9996C1.62177 65.9368 1.09104 65.5983 0.902652 65.0448L0.933871 48.3575C1.15456 48.003 1.4969 47.739 1.89952 47.6092L28.8247 47.6549C29.2886 47.7976 29.7074 48.3777 29.7849 48.8344L29.8129 55.6191C29.7838 55.8299 30.2683 56.1003 30.4028 56.1003H34.7628ZM22.7918 2.80126C17.9635 3.13869 18.2789 10.3226 23.0824 10.3269C28.0894 10.3322 27.9667 2.43828 22.7918 2.80126ZM11.1598 26.4267C10.5602 26.5203 9.87554 27.142 9.79696 27.7423C10.0316 31.1848 9.45247 35.103 9.78188 38.489C9.90353 39.7333 11.2826 40.4327 12.3752 39.7653L21.515 34.5388C22.3612 33.8118 22.359 32.6143 21.515 31.8905C18.4824 30.4556 15.3949 27.9872 12.3752 26.664C11.9306 26.4692 11.6712 26.3468 11.1598 26.4267ZM21.9521 58.3356C19.349 56.3004 15.6554 58.6209 16.5371 61.827C17.5038 65.3386 22.8058 64.8713 23.1406 61.2682C23.4323 58.1249 22.9102 54.5504 23.1406 51.3603C23.0426 50.1798 22.0791 49.4049 20.9283 49.2899C19.5073 49.1484 15.6361 49.1122 14.2646 49.2985C13.6908 49.3762 12.9189 49.8381 12.6035 50.3171C12.5421 50.4108 12.2633 50.9984 12.2633 51.0452V58.3367C11.9576 58.2696 11.7842 58.0301 11.4763 57.8907C7.02489 55.8767 4.51765 62.9202 9.13704 64.1422C11.0317 64.6435 13.4475 63.1661 13.4475 61.1575V53.866H21.9521V58.3367V58.3356Z" fill="black"/>
<path d="M51.3108 14.1772C52.3895 14.222 53.4962 14.8862 54.0355 15.809C54.2799 16.2263 54.4101 17.1641 54.7256 17.3621C55.041 17.5601 56.2435 17.6857 56.7247 17.8336C64.6512 20.2627 66.6449 31.7385 62.6897 38.2103C62.4949 38.5286 62.004 39.3482 61.681 39.4483L47.924 39.4153C47.1597 39.0981 47.7949 37.3928 48.0295 36.8074C49.6842 32.6603 54.0097 32.5996 55.1863 28.3429C55.3543 27.7372 55.8333 26.1533 54.7837 26.2353L49.2697 27.9214C48.6744 28.2045 49.0436 29.269 48.1437 29.4691C47.7044 29.567 45.7527 29.5532 45.2575 29.4936C44.8021 29.4393 44.4673 29.186 44.1906 28.8453C43.9452 28.543 42.8137 26.6057 42.7072 26.2683C42.5532 25.7861 42.6437 25.3029 43.057 24.9707C44.041 24.1799 45.8915 23.5678 46.9627 22.7652C48.1469 21.8775 45.8582 20.8407 46.9799 19.8018C47.2491 19.5527 48.6712 18.782 49.0792 18.5777C49.8112 18.2115 50.6251 18.054 51.2591 17.7527C52.2872 17.2641 50.9932 15.4312 51.0126 14.6382C51.018 14.4189 51.0998 14.2613 51.3119 14.1783L51.3108 14.1772Z" fill="black"/>
<path d="M1.03013 3.52745C1.17869 3.47955 1.33264 3.51467 1.4489 3.61792L15.8206 17.8283L15.8766 18.3211L15.5515 18.4255C11.269 18.1083 6.40525 18.8289 2.19171 18.4255C1.6093 18.3701 1.17654 18.0859 0.89987 17.5739C0.834202 13.2331 0.818054 8.86991 0.856809 4.5227C0.858962 4.23637 0.628584 3.65837 1.03013 3.52745Z" fill="black"/>
<path d="M42.9699 44.8433L43.5318 44.707L66.2488 44.7134C66.533 44.7592 66.6859 45.0434 66.7289 45.3031C66.8151 45.8247 66.8151 48.0686 66.7289 48.5901C66.6783 48.8946 66.4889 49.1958 66.1487 49.1873L43.2164 49.1788C42.9214 49.1234 42.8676 48.9776 42.8321 48.7072C42.7341 47.9802 42.7675 46.1632 42.8321 45.3979C42.8482 45.2031 42.8482 45.0083 42.9699 44.8422V44.8433Z" fill="black"/>
<path d="M45.7154 40.6919L63.7688 40.6738C65.0241 40.759 65.4751 43.3967 64.2081 43.5425L45.1545 43.5383C44.5054 43.4446 44.5807 42.0725 44.6895 41.5946C44.7734 41.2284 45.3332 40.7441 45.7154 40.693V40.6919Z" fill="black"/>
<path d="M12.234 8.11972C12.7895 8.0186 13.3482 8.07501 13.7724 8.4646L23.2491 17.7221C23.4525 18.0989 23.445 18.3682 22.9799 18.4257C22.0078 18.5439 19.4435 18.5247 18.4467 18.4268C18.2938 18.4119 18.1409 18.4385 18.0171 18.3193L9.90332 10.2625C10.3867 9.72704 11.5752 8.24107 12.2351 8.12079L12.234 8.11972Z" fill="black"/>
<path d="M21.9519 52.8008H13.4473V51.2574C13.4473 50.8209 14.1836 50.4899 14.5722 50.4537C16.5746 50.2664 18.8837 50.5953 20.9195 50.4686C21.2284 50.4111 21.9519 51.0317 21.9519 51.2574V52.8008Z" fill="black"/>
<path d="M9.54374 58.7874C12.3126 58.3148 13.2319 62.034 10.8334 62.9366C7.78577 64.0841 6.63926 59.2834 9.54374 58.7874Z" fill="black"/>
<path d="M19.3396 58.7874C22.5896 58.2392 22.8179 63.0186 19.8434 63.1155C17.1941 63.2017 16.7559 59.2228 19.3396 58.7874Z" fill="black"/>
<path d="M11.3749 27.5895C11.4976 27.5672 11.6064 27.5565 11.7172 27.6278L20.5879 32.6999C20.8656 32.8734 21.082 33.1736 20.8634 33.4653L11.5568 38.8578C11.2522 38.8503 10.9454 38.7226 10.9647 38.3841L11.0239 27.7854C11.0745 27.7013 11.2748 27.6076 11.376 27.5895H11.3749Z" fill="black"/>
<path d="M22.7899 3.96702C26.3156 3.60298 26.6353 9.10085 23.0827 9.13597C19.7918 9.16897 19.5431 4.30232 22.7899 3.96702Z" fill="black"/>
</g>
<defs>
<clipPath id="clip0_3353_7634">
<rect width="66" height="66" fill="white" transform="translate(0.793945)"/>
</clipPath>
</defs>
</svg>
