<svg width="67" height="66" viewBox="0 0 67 66" fill="none" xmlns="http://www.w3.org/2000/svg">
<g clip-path="url(#clip0_3353_7608)">
<path d="M66.0955 -2.81408e-05C66.5022 0.327219 66.8334 0.637142 66.7902 1.24351L66.7218 25.1499C66.5382 25.6254 66.2233 25.8217 65.7553 25.8814C64.4793 26.0412 60.1042 26.0739 58.8857 25.8698C57.7843 25.685 57.9733 24.4319 57.9841 23.5252H54.3414C53.7817 23.5252 53.6233 22.4145 53.5711 22.3644C53.5189 22.3144 52.3257 22.3125 52.1349 22.3394C51.6796 22.4029 50.5548 23.531 49.9662 23.8428C46.2138 25.8429 41.2141 24.7302 38.7881 21.042C38.5577 20.6897 37.7154 18.9091 37.6164 18.8417C37.4347 18.7185 36.8048 18.8744 36.5384 18.8186C41.691 25.4617 39.3262 35.7566 31.8591 39.0271C21.7859 43.4392 11.8604 32.6901 16.0538 22.0526C15.9332 21.9448 14.2792 23.1075 13.9481 23.2538C8.84043 25.4964 5.25895 18.1526 9.76909 14.9609C16.0934 11.5788 22.3349 6.45637 28.6591 3.25897C29.604 2.78157 30.6119 2.4755 31.6539 2.3446C37.4185 2.71805 43.6942 1.86721 49.3993 2.3446C50.9615 2.4755 52.2375 3.20892 53.5855 3.96736C53.4109 3.48612 53.8627 2.35038 54.3432 2.35038H57.9859C57.9859 1.40329 57.7915 0.548592 58.6734 -0.00195312H66.0973L66.0955 -2.81408e-05ZM64.5837 2.3523H60.1852V23.5233H64.5837V2.3523ZM53.5855 19.9948V6.68929C52.1943 5.8192 50.7473 4.92986 49.115 4.70656C43.5754 5.04921 37.5462 4.24264 32.0642 4.69886C30.925 4.79318 30.1457 5.16855 29.1577 5.70755C22.9612 9.09552 16.977 13.6077 10.7805 17.0765C9.0204 18.8706 10.2946 21.6888 12.7891 21.1363C13.6205 20.9515 17.3334 18.4529 18.343 17.8138C19.6317 16.9976 20.7763 15.9254 22.1441 15.2632C24.0968 14.318 26.1323 14.01 28.2668 14.0928C28.6861 12.2101 29.9154 10.7529 31.7871 10.5797C35.2552 10.2582 39.1426 10.8319 42.6557 10.5816C43.8579 10.6856 44.0847 12.3468 43.0031 12.8723L31.8231 12.9724C29.8362 13.6462 30.1871 16.2199 32.2046 16.4682C34.044 16.6934 36.2576 16.2796 38.1222 16.4605C39.3586 16.5818 39.8553 18.4625 40.5176 19.4866C42.5747 22.657 46.8455 23.4059 49.7773 21.1478C50.049 20.938 50.8319 19.9967 51.0389 19.9967H53.5819L53.5855 19.9948ZM57.9841 4.70463H55.7848V21.1709H57.9841V4.70463ZM28.8103 16.6472C17.7239 14.6876 12.6685 31.1982 22.7848 36.5419C32.9011 41.8857 41.7324 28.6476 34.6109 20.0718C33.2359 18.4163 33.3565 19.0535 31.5567 18.7801C30.4517 18.6107 29.3034 17.7002 28.8103 16.6472Z" fill="black"/>
<path d="M0.793945 40.7247C1.1107 40.2858 1.27448 40.0548 1.8216 39.9875C3.08681 39.8277 7.48177 39.7969 8.6912 39.999C9.79264 40.1838 9.60366 41.437 9.59287 42.3436H13.2355C13.905 42.3436 14.13 43.847 13.9932 44.4014C16.0557 43.9548 18.3432 42.9693 20.3985 42.6536C21.4981 42.4842 22.5546 42.5939 23.6434 42.8287C29.4242 44.08 35.5721 46.3957 41.2593 48.1013L42.6343 49.3794L53.2635 42.8056C58.2668 40.0606 62.4764 47.2389 57.8942 50.8463C51.7769 54.3921 45.9476 58.6059 39.7943 62.0709C38.5147 62.7908 37.415 63.3953 35.9266 63.5204C30.2233 63.9978 23.9476 63.1469 18.183 63.5204C16.6622 63.3933 15.316 62.633 13.9968 61.8976C14.1714 62.3789 13.7197 63.5146 13.2391 63.5146H9.59647C9.60726 64.4213 9.79624 65.6744 8.6948 65.8592C7.48537 66.0614 3.09041 66.0306 1.8252 65.8708C1.27807 65.8015 1.1125 65.5724 0.797545 65.1335V40.7267L0.793945 40.7247ZM7.39359 42.3417H2.99323V63.5127H7.39179V42.3417H7.39359ZM11.7921 44.694H9.59287V61.1604H11.7921V44.694ZM14.0058 46.7672L14.013 59.1526C15.4096 60.1016 17.0078 61.0429 18.7283 61.1681C24.8708 60.9274 31.1501 61.632 37.2224 60.7908L56.8792 48.7327C58.6015 46.7826 57.0286 43.9683 54.5863 44.8095L43.4135 51.6798C43.1994 52.342 43.2786 52.9484 43.0644 53.6587C42.3841 55.9225 40.012 57.2122 37.8758 56.7136L24.5451 52.8868C23.2619 52.2438 23.8072 50.3593 25.1786 50.5864L38.2879 54.3594C40.9083 54.9446 42.2401 51.2544 39.7709 49.98L22.4304 45.0001C19.5652 44.8769 16.8188 46.3091 14.004 46.7634L14.0058 46.7672Z" fill="black"/>
<path d="M28.29 21.1711C30.0969 21.0267 31.9579 23.1384 31.5583 25.0364C31.3927 25.8218 30.5163 26.0913 29.8846 25.7121C29.0243 25.1943 29.8144 23.7082 28.2216 23.5196C27.1328 23.3906 24.7103 23.2116 25.0505 24.996C25.3096 26.3589 27.7285 25.7602 28.7543 25.8931C32.7497 26.4109 32.397 32.9693 28.29 32.9347C28.8137 36.1244 25.5634 36.1205 26.0889 32.9347C24.2964 33.1252 22.2987 30.8229 22.853 28.9557C23.1121 28.0798 24.4187 27.9489 24.8381 28.7594C25.3186 29.6891 24.7517 30.4399 26.2905 30.5881C27.3433 30.6901 29.6668 30.8826 29.3284 29.1078C29.0693 27.7449 26.6522 28.3436 25.6246 28.2107C21.6292 27.6929 21.9819 21.1345 26.0889 21.1692C25.5634 17.9833 28.8155 17.9795 28.29 21.1692V21.1711Z" fill="black"/>
</g>
<defs>
<clipPath id="clip0_3353_7608">
<rect width="66" height="66" fill="white" transform="translate(0.793945)"/>
</clipPath>
</defs>
</svg>
