<svg width="67" height="66" viewBox="0 0 67 66" fill="none" xmlns="http://www.w3.org/2000/svg">
<g clip-path="url(#clip0_3353_7511)">
<path d="M26.2036 66.0001C26.8999 61.9576 24.7648 62.7562 21.9268 61.5319C17.8942 59.7928 14.2114 57.3013 11.1787 54.1201L12.8452 52.4767C16.2541 56.5522 21.1777 59.0932 26.2036 60.7168L26.2102 57.4168C25.9726 57.1792 22.8277 57.9184 23.2402 56.9284C25.2499 55.5457 30.9556 47.2 32.6485 46.8667C34.9255 46.4212 35.536 47.0449 36.9385 48.5035C39.5158 51.1864 41.6113 54.3841 44.3569 56.9284C44.7727 57.9184 41.6278 57.1792 41.3869 57.4168L41.3935 60.7168L49.6402 57.0868V48.8368H57.8902L60.8602 42.5668H43.3702V25.4068H61.5202L58.537 18.1501C54.5011 19.8331 50.2012 19.5856 47.3401 15.9919C45.0631 13.1341 45.2248 10.3555 45.9706 6.96971C40.4464 4.53431 34.5361 3.80501 28.54 4.59701L28.1902 2.64341C34.678 1.21451 41.5321 2.48831 47.4721 5.29991C54.115 -2.59039 66.0742 5.20751 61.5895 14.7511C61.2991 15.3682 60.4972 15.8929 60.3322 16.4869C60.1144 17.2624 61.8139 19.909 62.2396 20.8957C62.5894 21.7009 63.487 24.8557 63.6586 25.0867C64.1404 25.7368 66.0016 25.288 66.8035 25.4068V42.5668L63.2263 42.6229L60.5401 48.3517C60.2728 49.2493 62.0284 48.7048 62.5135 48.8368V64.0168H50.1385C49.1815 63.1027 49.8085 61.4461 49.6435 60.2152C49.594 59.8357 49.7755 59.5519 49.1584 59.7334C48.3136 59.9842 46.8979 61.027 45.9046 61.4329C45.1522 61.7431 41.905 62.71 41.7136 62.8519C41.0635 63.3337 41.5123 65.1949 41.3935 65.9968H26.2135L26.2036 66.0001ZM52.8445 4.36931C45.1819 5.65631 46.063 18.3811 55.6594 16.7509C62.7148 15.5497 61.4542 2.92391 52.8445 4.36931ZM63.1636 27.7201H46.9936L52.2802 33.8185C53.9434 33.967 56.8441 34.4356 58.2334 33.5149C59.6227 32.5942 61.7545 29.0302 63.1636 27.7201ZM45.6736 30.0301V38.9401L50.2969 35.1418C50.2969 34.6765 46.4458 30.535 45.6736 30.0301ZM64.4836 38.9401V30.0301C63.7114 30.535 59.857 34.6765 59.8603 35.1418L64.4836 38.9401ZM47.6536 40.2601H62.5036L57.9826 36.3661C55.9861 36.3034 53.9137 36.1252 51.9502 36.4684L47.6536 40.2568V40.2601ZM27.8536 55.4401H39.7336L34.7176 49.2427C34.4041 49.0645 33.1831 49.0678 32.8729 49.2427L27.8569 55.4401H27.8536ZM60.5236 51.1501H51.9436V61.7101H60.5236V51.1501ZM39.0736 57.4201H28.5136V63.6901H30.4969V59.7301H37.0969V63.6934H39.0769V57.4234L39.0736 57.4201ZM34.7869 61.7068H32.8036V63.6901H34.7869V61.7068Z" fill="black"/>
<path d="M0.793945 29.6998C1.03815 28.6669 3.19635 27.8749 3.36135 27.6472C3.57255 27.3535 3.98505 24.5452 4.25565 23.7565C5.24565 20.8591 6.65475 18.0838 8.24865 15.4834C11.6179 16.0279 9.00435 18.2059 8.14635 20.0605C7.05405 22.4332 5.87925 25.0732 5.74065 27.7198H11.5156C12.0205 27.7198 12.9478 28.8616 13.1623 29.3665L24.7156 23.4298H30.4906V28.5448C36.0973 30.3235 36.4966 37.9927 30.4906 39.2698V44.8798H25.0456L13.4329 38.9926L11.3506 40.2598V51.1498H5.08395V45.0448C5.08395 44.497 3.83655 40.9264 3.45375 40.4908C2.92905 39.8902 1.17015 39.8176 0.793945 38.2798L0.793945 29.6998ZM28.5139 25.7398H26.5339V42.5698H28.5139V25.7398ZM24.2239 26.3998L13.8685 31.3168C13.489 31.6039 13.4956 36.2437 13.9906 36.8014L24.2239 41.9131V26.4031V26.3998ZM3.10395 30.0298V37.7848L3.59895 38.2798H10.8589L11.3539 37.7848V30.5248C11.3539 30.4654 10.5883 29.6998 10.5289 29.6998H3.92895C3.82005 29.6998 3.42735 30.1354 3.10395 30.0298ZM30.4939 36.9598C33.3814 36.2833 33.4639 31.6831 30.4939 31.3498V36.9598ZM9.37395 40.5898H6.07395C5.85285 40.7878 7.06395 43.2892 7.06395 43.7248V48.8398H9.37395V40.5898Z" fill="black"/>
<path d="M21.5841 0C24.3726 1.1055 26.4021 3.3759 26.4087 6.4911C26.4087 7.3623 25.9434 8.2368 25.9797 9.0321C26.0292 10.1508 26.8839 10.5699 26.0127 12.1836C24.8016 14.4309 22.6995 13.4574 21.9636 13.9095C21.8547 13.9755 21.2904 15.8004 20.6007 16.005C22.8942 17.9322 23.4948 20.5293 23.2341 23.43H10.3641C10.0869 20.4897 10.6149 17.8893 12.9975 16.005C12.3078 15.7971 11.7435 13.9755 11.6379 13.9095C10.737 13.3551 8.30156 14.5167 7.32806 11.7843C6.80336 10.3158 7.45346 9.9495 7.42376 8.745C7.40396 7.854 7.01786 7.0917 7.05416 6.1248C7.16306 3.1944 9.40046 0.9636 12.0141 0.0033H21.5841V0ZM24.2208 7.59C24.6432 5.5803 23.178 2.6631 21.0693 2.3298C19.6173 2.0988 13.6542 2.1054 12.255 2.3859C9.98126 2.8446 9.10676 5.5374 9.37736 7.59C12.3375 7.0653 14.7498 7.7055 16.7991 4.9566C18.7725 7.7946 21.2739 7.0191 24.2208 7.59ZM19.8813 9.6228L16.7991 8.0157C15.7266 9.1575 13.8489 8.7516 13.6443 10.3752C13.179 14.1108 14.2086 15.4506 18.0993 14.8269C20.6238 14.421 19.8978 11.5071 19.8813 9.6228ZM11.3541 9.57L9.41036 9.933L9.51926 11.2431L11.3574 11.55V9.5667L11.3541 9.57ZM22.2441 11.55L23.9007 11.3916C25.0029 10.6689 23.3331 9.1278 22.2441 9.5667V11.55ZM20.9241 21.12C20.5413 15.8235 12.8193 15.6849 12.6741 21.12H20.9241Z" fill="black"/>
<path d="M36.9752 25.1064C39.7241 25.7202 37.424 28.6077 36.0974 29.2182C35.2097 29.6274 34.4012 28.8057 34.1504 27.9345L36.9752 25.1097V25.1064Z" fill="black"/>
<path d="M41.3841 32.9999L41.0739 35.1647L37.0908 35.3132V32.9966L41.3841 32.9999Z" fill="black"/>
<path d="M35.6093 38.6167L38.3912 41.4613L37.2131 42.8737L34.1309 40.0951L35.6093 38.6167Z" fill="black"/>
<path d="M50.5251 6.31287C50.9211 6.21717 57.5574 9.36867 57.8841 9.73167C58.3263 10.2168 58.3428 10.6392 58.0524 11.2233C57.8643 11.6028 52.2972 14.5134 51.6141 14.7048C50.6043 14.9853 49.8519 14.8071 49.6374 13.6851C49.4823 12.8667 49.5252 7.48767 49.7925 6.92997C49.9113 6.67917 50.2512 6.37557 50.5185 6.30957L50.5251 6.31287ZM54.5841 10.8867L51.9474 9.23997V11.8767L54.5841 10.8834V10.8867Z" fill="black"/>
<path d="M58.2142 53.1265H53.9209V55.4398H58.2142V53.1265Z" fill="black"/>
<path d="M58.2142 57.4165H53.9209V59.7298H58.2142V57.4165Z" fill="black"/>
</g>
<defs>
<clipPath id="clip0_3353_7511">
<rect width="66" height="66" fill="white" transform="translate(0.793945)"/>
</clipPath>
</defs>
</svg>
