<svg width="105" height="23" viewBox="0 0 105 23" fill="none" xmlns="http://www.w3.org/2000/svg">
<path d="M0 15.149L5.0911 22.9544L21.0959 0H10.5485L0 15.149Z" fill="white"/>
<path d="M15.7004 7.73777L26.0705 22.9544L31.4023 15.3461L21.0956 0L15.7004 7.73777Z" fill="white"/>
<path d="M10.4275 22.9538H20.9748L15.7006 15.1484L10.4275 22.9538Z" fill="white"/>
<path d="M39.3746 18.4766H36.8434L41.4521 5.38565H44.3796L48.9947 18.4766H46.4634L42.967 8.07031H42.8647L39.3746 18.4766ZM39.4577 13.3438H46.3612V15.2486H39.4577V13.3438ZM53.4419 18.6747C52.8198 18.6747 52.2594 18.5639 51.7608 18.3423C51.2665 18.1165 50.8745 17.7841 50.5847 17.3452C50.2992 16.9062 50.1564 16.3651 50.1564 15.7216C50.1564 15.1676 50.2587 14.7095 50.4632 14.3473C50.6678 13.9851 50.9469 13.6953 51.3006 13.478C51.6543 13.2607 52.0527 13.0966 52.4959 12.9858C52.9434 12.8707 53.4057 12.7876 53.883 12.7365C54.4583 12.6768 54.9249 12.6236 55.2828 12.5767C55.6408 12.5256 55.9007 12.4489 56.0627 12.3466C56.2289 12.2401 56.312 12.076 56.312 11.8544V11.8161C56.312 11.3345 56.1692 10.9616 55.8837 10.6974C55.5982 10.4332 55.187 10.3011 54.65 10.3011C54.0833 10.3011 53.6337 10.4247 53.3013 10.6719C52.9732 10.919 52.7516 11.2109 52.6365 11.5476L50.476 11.2408C50.6465 10.6442 50.9277 10.1456 51.3198 9.74503C51.7118 9.3402 52.1912 9.03764 52.758 8.83736C53.3248 8.63281 53.9512 8.53054 54.6373 8.53054C55.1103 8.53054 55.5811 8.58594 56.0499 8.69673C56.5186 8.80753 56.9469 8.99077 57.3347 9.24645C57.7225 9.49787 58.0336 9.84091 58.2679 10.2756C58.5066 10.7102 58.6259 11.2536 58.6259 11.9055V18.4766H56.4015V17.1278H56.3248C56.1841 17.4006 55.986 17.6562 55.7303 17.8949C55.4789 18.1293 55.1614 18.3189 54.7779 18.4638C54.3986 18.6044 53.9533 18.6747 53.4419 18.6747ZM54.0428 16.9744C54.5073 16.9744 54.91 16.8828 55.2509 16.6996C55.5918 16.5121 55.8539 16.2649 56.0371 15.9581C56.2246 15.6513 56.3184 15.3168 56.3184 14.9545V13.7976C56.2459 13.8572 56.1223 13.9126 55.9476 13.9638C55.7772 14.0149 55.5854 14.0597 55.3723 14.098C55.1593 14.1364 54.9483 14.1705 54.7395 14.2003C54.5307 14.2301 54.3496 14.2557 54.1962 14.277C53.851 14.3239 53.5421 14.4006 53.2694 14.5071C52.9966 14.6136 52.7814 14.7628 52.6238 14.9545C52.4661 15.142 52.3873 15.3849 52.3873 15.6832C52.3873 16.1094 52.5428 16.4311 52.8539 16.6484C53.165 16.8658 53.5613 16.9744 54.0428 16.9744ZM64.5961 18.6491C63.8248 18.6491 63.1344 18.451 62.525 18.0547C61.9157 17.6584 61.4341 17.0831 61.0804 16.3288C60.7267 15.5746 60.5499 14.6584 60.5499 13.5803C60.5499 12.4893 60.7289 11.5689 61.0868 10.8189C61.449 10.0646 61.937 9.49574 62.5506 9.11222C63.1642 8.72443 63.8482 8.53054 64.6025 8.53054C65.1777 8.53054 65.6507 8.62855 66.0215 8.82457C66.3922 9.01633 66.6863 9.24858 66.9036 9.52131C67.1209 9.78977 67.2892 10.0433 67.4086 10.282H67.5044V5.38565H69.8248V18.4766H67.5492V16.9297H67.4086C67.2892 17.1683 67.1167 17.4219 66.8908 17.6903C66.665 17.9545 66.3667 18.1804 65.9959 18.3679C65.6252 18.5554 65.1586 18.6491 64.5961 18.6491ZM65.2417 16.7507C65.7317 16.7507 66.1493 16.6186 66.4945 16.3544C66.8397 16.0859 67.1017 15.7131 67.2807 15.2358C67.4597 14.7585 67.5492 14.2024 67.5492 13.5675C67.5492 12.9325 67.4597 12.3807 67.2807 11.9119C67.106 11.4432 66.8461 11.0788 66.5009 10.8189C66.16 10.5589 65.7402 10.429 65.2417 10.429C64.726 10.429 64.2956 10.5632 63.9505 10.8317C63.6053 11.1001 63.3453 11.4709 63.1706 11.9439C62.9959 12.4169 62.9086 12.9581 62.9086 13.5675C62.9086 14.1811 62.9959 14.7287 63.1706 15.2102C63.3496 15.6875 63.6117 16.0646 63.9569 16.3416C64.3063 16.6143 64.7346 16.7507 65.2417 16.7507ZM74.6044 12.7237V18.4766H72.2905V5.38565H74.5533V10.3267H74.6683C74.8984 9.77273 75.2543 9.33594 75.7358 9.01634C76.2216 8.69247 76.8395 8.53054 77.5895 8.53054C78.2713 8.53054 78.8658 8.6733 79.3729 8.95881C79.88 9.24432 80.272 9.66193 80.549 10.2116C80.8303 10.7614 80.9709 11.4325 80.9709 12.2251V18.4766H78.657V12.5831C78.657 11.9226 78.4865 11.4091 78.1456 11.0426C77.8089 10.6719 77.3359 10.4865 76.7266 10.4865C76.3175 10.4865 75.951 10.576 75.6271 10.755C75.3075 10.9297 75.0561 11.1832 74.8729 11.5156C74.6939 11.848 74.6044 12.2507 74.6044 12.7237ZM86.1548 18.6747C85.5327 18.6747 84.9723 18.5639 84.4737 18.3423C83.9794 18.1165 83.5874 17.7841 83.2976 17.3452C83.0121 16.9062 82.8693 16.3651 82.8693 15.7216C82.8693 15.1676 82.9716 14.7095 83.1761 14.3473C83.3807 13.9851 83.6598 13.6953 84.0135 13.478C84.3672 13.2607 84.7656 13.0966 85.2088 12.9858C85.6563 12.8707 86.1186 12.7876 86.5959 12.7365C87.1712 12.6768 87.6378 12.6236 87.9957 12.5767C88.3537 12.5256 88.6136 12.4489 88.7756 12.3466C88.9418 12.2401 89.0249 12.076 89.0249 11.8544V11.8161C89.0249 11.3345 88.8821 10.9616 88.5966 10.6974C88.3111 10.4332 87.8999 10.3011 87.3629 10.3011C86.7962 10.3011 86.3466 10.4247 86.0142 10.6719C85.6861 10.919 85.4645 11.2109 85.3494 11.5476L83.1889 11.2408C83.3594 10.6442 83.6406 10.1456 84.0327 9.74503C84.4247 9.3402 84.9041 9.03764 85.4709 8.83736C86.0376 8.63281 86.6641 8.53054 87.3501 8.53054C87.8232 8.53054 88.294 8.58594 88.7628 8.69673C89.2315 8.80753 89.6598 8.99077 90.0476 9.24645C90.4354 9.49787 90.7464 9.84091 90.9808 10.2756C91.2195 10.7102 91.3388 11.2536 91.3388 11.9055V18.4766H89.1143V17.1278H89.0376C88.897 17.4006 88.6989 17.6562 88.4432 17.8949C88.1918 18.1293 87.8743 18.3189 87.4908 18.4638C87.1115 18.6044 86.6662 18.6747 86.1548 18.6747ZM86.7557 16.9744C87.2202 16.9744 87.6229 16.8828 87.9638 16.6996C88.3047 16.5121 88.5668 16.2649 88.75 15.9581C88.9375 15.6513 89.0312 15.3168 89.0312 14.9545V13.7976C88.9588 13.8572 88.8352 13.9126 88.6605 13.9638C88.4901 14.0149 88.2983 14.0597 88.0852 14.098C87.8722 14.1364 87.6612 14.1705 87.4524 14.2003C87.2436 14.2301 87.0625 14.2557 86.9091 14.277C86.5639 14.3239 86.255 14.4006 85.9822 14.5071C85.7095 14.6136 85.4943 14.7628 85.3366 14.9545C85.179 15.142 85.1001 15.3849 85.1001 15.6832C85.1001 16.1094 85.2557 16.4311 85.5668 16.6484C85.8778 16.8658 86.2741 16.9744 86.7557 16.9744ZM95.9794 12.7237V18.4766H93.6655V8.65838H95.8771V10.3267H95.9922C96.218 9.77699 96.5781 9.3402 97.0724 9.01634C97.571 8.69247 98.1868 8.53054 98.9197 8.53054C99.5973 8.53054 100.188 8.67543 100.69 8.9652C101.197 9.25497 101.589 9.67472 101.866 10.2244C102.148 10.7741 102.286 11.4411 102.282 12.2251V18.4766H99.968V12.5831C99.968 11.9268 99.7976 11.4134 99.4567 11.0426C99.12 10.6719 98.6534 10.4865 98.0568 10.4865C97.652 10.4865 97.2919 10.576 96.9766 10.755C96.6655 10.9297 96.4205 11.1832 96.2415 11.5156C96.0668 11.848 95.9794 12.2507 95.9794 12.7237Z" fill="white"/>
</svg>
