<svg width="316" height="317" viewBox="0 0 316 317" fill="none" xmlns="http://www.w3.org/2000/svg">
<g clip-path="url(#clip0_2506_5236)">
<path d="M44.3438 183.81C41.471 180.595 22.5232 159.091 21.5274 142.662C21.3886 140.377 21.1735 136.826 23.0957 133.206C26.9349 125.974 34.3079 127.864 37.4913 122.442C41.6878 115.291 31.121 108.159 32.3909 91.6181C32.6962 87.6513 33.1698 81.4741 37.5971 76.785C42.5396 71.5501 47.3225 73.5578 52.4403 69.0297C58.8227 63.3843 55.3843 56.7239 59.763 47.1203C64.3759 37.0023 76.6376 25.8623 89.4753 27.6326C100.668 29.1761 108.054 39.9489 110.687 48.2342C114.578 60.4759 110.042 73.395 103.118 81.1814C93.1653 92.3734 78.8027 92.3734 78.9258 97.7139C79.0403 102.687 91.4981 102.898 94.0466 111.329C95.8265 117.217 92.14 125.017 86.7551 128.705C79.2902 133.819 71.9102 128.738 67.9947 133.213C63.8884 137.904 70.0991 145.664 69.4537 155.07C68.9211 162.829 63.6472 172.82 44.3421 183.811L44.3438 183.81Z" fill="white"/>
<path d="M44.3441 184.191C44.2382 184.191 44.1342 184.148 44.0596 184.064C38.9245 178.32 22.0967 158.363 21.1477 142.686C21.0037 140.32 20.7886 136.743 22.7611 133.029C24.8984 129.005 28.1616 127.692 31.0432 126.535C33.4719 125.558 35.7654 124.636 37.1636 122.251C39.1014 118.951 37.7465 115.676 35.8712 111.141C33.8571 106.271 31.3502 100.21 32.0129 91.5905C32.3269 87.4972 32.8023 81.3114 37.3215 76.5252C40.0018 73.686 42.6734 72.91 45.2583 72.1582C47.5101 71.5034 49.8365 70.8278 52.1889 68.7457C55.7297 65.6138 56.1478 62.2307 56.6769 57.9469C57.0725 54.7509 57.5183 51.1288 59.4197 46.9628C64.4507 35.9284 77.0871 25.5367 89.5293 27.2551C100.287 28.7379 108.09 38.8022 111.053 48.1182C115.326 61.5569 109.605 74.4638 103.406 81.4326C98.0577 87.447 91.3769 90.2948 86.4968 92.3735C82.2951 94.1646 79.2574 95.4586 79.3095 97.7036C79.3563 99.7251 81.8701 100.967 84.7811 102.405C88.4294 104.206 92.9712 106.448 94.4146 111.22C96.1685 117.023 92.8307 125.009 86.9739 129.021C83.0029 131.74 79.1134 131.65 75.6819 131.572C72.6633 131.503 70.0542 131.442 68.2864 133.464C66.0988 135.964 67.0234 139.402 68.1927 143.757C69.0983 147.126 70.1236 150.946 69.839 155.098C69.1451 165.207 60.6323 174.981 44.5349 184.144C44.4759 184.177 44.4117 184.194 44.3458 184.194L44.3441 184.191ZM86.7761 27.8284C75.5761 27.8284 64.6675 37.2847 60.1119 47.278C58.2608 51.3401 57.8202 54.8999 57.4333 58.0404C56.9059 62.3069 56.4514 65.9932 52.6955 69.3156C50.2147 71.5103 47.8033 72.2102 45.4717 72.8892C42.8712 73.6445 40.4147 74.3599 37.8766 77.0466C33.5413 81.6388 33.0799 87.6618 32.7728 91.6494C32.124 100.089 34.5926 106.056 36.5755 110.851C38.4613 115.409 39.9498 119.01 37.8211 122.636C36.2893 125.244 33.8796 126.213 31.3277 127.24C28.434 128.404 25.4414 129.606 23.4342 133.386C21.5624 136.911 21.7705 140.358 21.9093 142.64C22.8513 158.192 40.3696 178.762 44.4239 183.328C60.1119 174.343 68.4061 164.828 69.0775 155.044C69.3533 151.018 68.3454 147.265 67.4554 143.953C66.2757 139.56 65.2574 135.768 67.7122 132.963C69.7159 130.675 72.4881 130.739 75.6993 130.812C79.0145 130.89 82.7756 130.975 86.5437 128.394C92.0517 124.621 95.3236 116.857 93.6859 111.44C92.3397 106.985 88.1449 104.913 84.4445 103.087C81.3114 101.54 78.6068 100.205 78.5496 97.7226C78.4854 94.9632 81.7209 93.5843 86.1984 91.6753C91.0108 89.6244 97.6014 86.8147 102.837 80.9285C108.902 74.1087 114.504 61.4841 110.328 48.3486C107.438 39.2612 99.855 29.4463 89.4269 28.0086C88.5439 27.8873 87.6609 27.8284 86.7779 27.8284H86.7761Z" fill="black"/>
<path d="M42.8344 181.104C42.6505 181.104 42.4875 180.969 42.458 180.782C39.9928 164.771 40.7075 148.261 44.5814 131.709C47.6781 118.473 52.7906 105.182 59.7767 92.2019C71.6689 70.1072 85.0635 56.3947 85.1971 56.2579C85.3446 56.1072 85.5857 56.1055 85.7349 56.2527C85.8841 56.3999 85.8876 56.6407 85.7401 56.7897C85.6065 56.9248 72.2779 70.5766 60.4377 92.5813C49.5187 112.874 37.6646 144.628 43.2126 180.664C43.2438 180.872 43.1016 181.066 42.8934 181.097C42.8743 181.1 42.8535 181.102 42.8344 181.102V181.104Z" fill="black"/>
<path d="M44.3434 183.81C10.5039 149.316 6.05584 130.341 9.31037 119.111C10.2819 115.759 13.0559 109.159 12.6725 99.6836C12.1746 87.3933 6.84866 82.2122 3.78669 73.0105C-2.20366 55.0143 4.3054 33.1759 15.554 19.5952C23.411 10.1094 40.2995 -3.46269 55.6753 1.41357C62.1774 3.47494 70.1593 9.39227 70.0795 15.8605C69.9668 25.1175 52.5127 26.6437 49.0777 40.3284C47.2041 47.796 51.8292 49.4763 49.7717 57.3875C46.531 69.8544 33.5372 71.4844 33.8113 79.3609C34.0767 86.9897 46.4564 87.4072 48.219 96.6625C50.2314 107.219 36.1429 114.068 39.1285 123.845C40.9067 129.667 46.2673 128.437 49.0483 134.929C52.4312 142.83 46.3437 148.962 44.0364 163.473C42.7422 171.61 43.5471 178.549 44.3434 183.812V183.81Z" fill="white"/>
<path d="M44.3454 184.191C44.2448 184.191 44.1459 184.151 44.0731 184.077C28.6418 168.348 18.0438 154.493 12.5738 142.898C8.23679 133.705 7.01547 125.665 8.94633 119.005C9.099 118.48 9.28983 117.889 9.51188 117.205C10.6725 113.628 12.6137 107.64 12.2928 99.6974C11.9667 91.6338 9.57607 86.7333 7.04496 81.5435C5.77681 78.9451 4.46701 76.2567 3.42612 73.13C-3.01529 53.7774 5.04471 31.6879 15.2611 19.3526C22.851 10.1891 39.9286 -3.97894 55.7918 1.05148C61.9348 3.00025 70.5465 8.88294 70.4615 15.8656C70.406 20.4456 66.4193 23.1272 61.8047 26.2331C56.8431 29.5711 51.2205 33.356 49.4475 40.4218C48.5524 43.9868 49.17 46.159 49.8223 48.4577C50.5058 50.8655 51.2136 53.3547 50.1397 57.4844C48.4084 64.1414 44.0418 67.689 40.1905 70.8175C36.7694 73.596 34.0683 75.7907 34.1915 79.3487C34.3147 82.8894 37.1615 84.7707 40.4577 86.9498C43.8354 89.1827 47.6624 91.7117 48.5923 96.5915C49.6158 101.963 46.6215 106.358 43.7244 110.61C40.7977 114.906 38.0341 118.963 39.4914 123.736C40.338 126.511 41.993 127.578 43.91 128.813C45.8079 130.038 47.9591 131.425 49.3972 134.782C51.4946 139.679 50.0721 143.857 48.1031 149.64C46.8002 153.466 45.3221 157.805 44.4114 163.536C43.1692 171.348 43.8701 178.142 44.7184 183.756C44.7427 183.919 44.6594 184.08 44.512 184.153C44.4582 184.18 44.3992 184.193 44.342 184.193L44.3454 184.191ZM48.8716 0.757004C35.477 0.757004 22.2472 12.1084 15.8457 19.8376C5.75946 32.0153 -2.20339 53.8121 4.14781 72.891C5.17309 75.9709 6.47247 78.6351 7.72848 81.2126C10.2943 86.4752 12.7196 91.445 13.0527 99.6679C13.3805 107.745 11.4115 113.813 10.2353 117.439C10.015 118.118 9.82589 118.703 9.67669 119.216C7.79961 125.695 9.00531 133.552 13.2626 142.574C18.5989 153.885 28.8708 167.385 43.799 182.706C43.0252 177.265 42.4892 170.795 43.6636 163.413C44.5848 157.618 46.0733 153.248 47.3866 149.392C49.3018 143.769 50.6845 139.707 48.7016 135.078C47.3554 131.934 45.3967 130.672 43.5023 129.449C41.5454 128.186 39.6961 126.994 38.768 123.954C37.2049 118.833 40.2009 114.434 43.0998 110.179C45.9085 106.056 48.8143 101.792 47.8498 96.73C46.9806 92.1656 43.4537 89.834 40.0431 87.5803C36.7157 85.3804 33.5722 83.3035 33.4351 79.3713C33.2981 75.4356 36.2716 73.0209 39.7134 70.2233C43.4745 67.1676 47.7387 63.7049 49.4076 57.2887C50.4295 53.3582 49.7806 51.0769 49.0936 48.6604C48.4413 46.3669 47.7682 43.9954 48.712 40.233C50.5561 32.8831 56.3088 29.0133 61.3831 25.5973C65.8208 22.6109 69.6513 20.0334 69.7034 15.8517C69.7745 9.94827 62.4206 3.94606 55.5645 1.7721C53.3509 1.07054 51.1112 0.753539 48.8751 0.753539L48.8716 0.757004Z" fill="black"/>
<path d="M42.2761 180.132C42.1321 180.132 41.9951 180.051 41.9309 179.912C33.4268 161.557 27.1276 142.142 23.2069 122.208C19.8049 104.903 18.4119 88.1018 19.1804 73.622C20.3601 51.38 26.347 35.6183 31.1628 26.3127C36.3899 16.2103 41.4191 11.3011 41.4694 11.2526C41.6204 11.1071 41.8615 11.1123 42.0072 11.2613C42.153 11.412 42.1495 11.6528 41.9986 11.7983C41.9482 11.8468 36.9918 16.6919 31.8203 26.6973C27.0478 35.9319 21.113 51.5757 19.942 73.6618C18.2436 105.675 26.7217 145.276 42.6231 179.593C42.7116 179.784 42.6283 180.011 42.4375 180.098C42.3854 180.122 42.3316 180.132 42.2779 180.132H42.2761Z" fill="black"/>
<path d="M199.944 233.115L135.221 233.518C134.801 233.518 134.664 233.906 134.664 234.277V288.997C134.664 294.235 97.3202 307.847 96.9611 307.156L96.916 312.947C96.9126 314.024 97.8667 314.982 99.0828 314.982H154.745C157.264 314.982 159.75 314.422 162.029 313.473L191.866 300.989C197.237 298.742 200.626 293.914 200.626 288.65V233.875C200.626 233.503 200.362 233.116 199.944 233.116V233.115Z" fill="black"/>
<path d="M154.745 315.361H99.0846C98.3837 315.361 97.7297 315.093 97.2405 314.604C96.7842 314.149 96.5344 313.56 96.5361 312.947L96.5812 307.154C96.5812 306.979 96.7027 306.828 96.8727 306.787C96.949 306.768 97.0271 306.775 97.0965 306.801C99.2529 306.705 127.314 296.34 133.255 290.618C134.104 289.802 134.281 289.286 134.281 288.997V234.277C134.281 233.584 134.648 233.137 135.219 233.137L199.94 232.733H199.942C200.6 232.733 201.006 233.324 201.006 233.873V288.648C201.006 294.072 197.475 299.052 192.012 301.339L162.175 313.823C159.757 314.829 157.186 315.361 154.743 315.361H154.745ZM97.3394 307.535L97.2977 312.95C97.2977 313.357 97.4677 313.755 97.78 314.067C98.1235 314.412 98.5867 314.601 99.0846 314.601H154.745C157.088 314.601 159.557 314.09 161.884 313.121L191.719 300.637C196.897 298.47 200.244 293.764 200.244 288.648V233.873C200.244 233.721 200.149 233.496 199.944 233.494L135.221 233.897C135.065 233.897 135.042 234.135 135.042 234.277V288.997C135.042 294.332 102.063 306.395 97.7349 307.445C97.5961 307.48 97.4625 307.511 97.3376 307.533L97.3394 307.535Z" fill="black"/>
<path d="M127.371 230.494V285.225C127.371 290.621 123.877 295.537 118.386 297.866L98.2589 306.402C96.9439 306.96 97.3915 308.711 98.8504 308.711H154.151C156.637 308.711 159.094 308.223 161.344 307.282L183.645 297.952C189.176 295.638 192.704 290.703 192.704 285.281V230.495C192.704 230.272 192.5 230.09 192.246 230.09H127.829C127.576 230.09 127.371 230.272 127.371 230.495V230.494Z" fill="white"/>
<path d="M154.15 309.091H98.849C97.8446 309.091 97.2599 308.434 97.1281 307.786C96.9771 307.05 97.3623 306.369 98.11 306.052L118.237 297.516C123.555 295.26 126.99 290.436 126.99 285.225V230.494C126.99 230.061 127.366 229.707 127.828 229.707H192.245C192.706 229.707 193.083 230.059 193.083 230.494V285.281C193.083 290.829 189.435 295.941 183.789 298.304L161.488 307.634C159.207 308.588 156.671 309.092 154.148 309.092L154.15 309.091ZM127.751 230.497V285.225C127.751 290.743 124.134 295.841 118.536 298.216L98.4084 306.752C97.9244 306.958 97.8168 307.343 97.8758 307.634C97.9469 307.98 98.2748 308.33 98.8508 308.33H154.152C156.572 308.33 159.009 307.847 161.197 306.93L183.498 297.601C188.86 295.357 192.325 290.521 192.325 285.279V230.492C192.325 230.492 192.295 230.466 192.248 230.466H127.831C127.786 230.466 127.76 230.487 127.755 230.495L127.751 230.497Z" fill="black"/>
<path d="M9.07324 261.449L288.449 261.697C290.892 261.697 292.948 260.051 293.258 257.638L315.556 84.322C316.097 80.1179 313.013 76.1476 308.755 76.1476L296.99 76.1892L163.296 86.0456L32.9496 77.1055L9.07324 261.449Z" fill="black"/>
<path d="M288.451 262.078L9.07466 261.83C8.96536 261.83 8.86127 261.783 8.78841 261.7C8.71555 261.619 8.68259 261.509 8.69647 261.4L32.5746 77.0587C32.6006 76.8595 32.7776 76.7175 32.9788 76.7279L163.297 85.6645L296.964 75.8098L308.755 75.7682C310.799 75.7682 312.683 76.6291 314.06 78.1933C315.54 79.8736 316.224 82.1255 315.934 84.3705L293.636 257.686C293.308 260.229 291.128 262.076 288.449 262.076L288.451 262.078ZM9.50663 261.069L288.451 261.317C290.741 261.317 292.604 259.749 292.882 257.591L315.179 84.2752C315.441 82.245 314.825 80.2131 313.49 78.6974C312.258 77.2995 310.579 76.5304 308.757 76.5304L296.993 76.572L163.325 86.4284C163.308 86.4284 163.288 86.4284 163.271 86.4284L33.2824 77.5143L9.50663 261.069Z" fill="black"/>
<path d="M6.75718 261.198H280.521C282.962 261.198 285.023 259.387 285.335 256.968L307.805 85.28C308.419 80.5233 304.712 76.3087 299.911 76.3087L29.3203 76.747C26.8794 76.747 24.8184 78.5572 24.5062 80.9771L1.94304 255.727C1.56832 258.629 3.8288 261.198 6.75718 261.198Z" fill="white"/>
<path d="M280.521 261.579H6.75706C5.25296 261.579 3.82173 260.933 2.82768 259.803C1.83362 258.674 1.3739 257.17 1.56646 255.679L24.1296 80.9286C24.4644 78.3285 26.6971 76.3676 29.3202 76.3676L299.911 75.9293C302.307 75.9293 304.588 76.96 306.172 78.7563C307.756 80.5561 308.49 82.9501 308.183 85.3285L285.713 257.018C285.379 259.618 283.146 261.579 280.523 261.579H280.521ZM299.911 76.6898L29.3202 77.128C27.0771 77.128 25.1705 78.8031 24.8842 81.0256L2.32111 255.776C2.1563 257.051 2.55011 258.336 3.40017 259.301C4.2485 260.264 5.47329 260.818 6.75706 260.818H280.521C282.762 260.818 284.671 259.143 284.957 256.921L307.428 85.2315C307.707 83.0714 307.041 80.8957 305.601 79.2604C304.163 77.6269 302.09 76.6915 299.913 76.6915L299.911 76.6898Z" fill="black"/>
<path d="M275.596 248.942H13.7138C12.2063 248.942 10.7907 248.313 9.83303 247.215C8.94307 246.196 8.551 244.913 8.73142 243.603L30.3144 86.858C30.6388 84.5073 32.7796 82.7352 35.2968 82.7352H293.801C296.204 82.7352 298.456 83.7365 299.982 85.4843C301.395 87.1022 302.016 89.1376 301.729 91.2145L280.578 244.821C280.256 247.172 278.113 248.944 275.596 248.944V248.942ZM35.2985 83.494C33.1612 83.494 31.3431 84.9837 31.0708 86.9602L9.4878 243.705C9.33861 244.795 9.66475 245.864 10.4073 246.714C11.2209 247.646 12.4266 248.18 13.7138 248.18H275.596C277.733 248.18 279.551 246.69 279.824 244.715L300.975 91.1089C301.23 89.2519 300.675 87.4313 299.408 85.9814C298.027 84.3999 295.985 83.494 293.801 83.494H35.2985Z" fill="black"/>
<path d="M90.9156 90.0661C90.9816 88.8656 90.5756 87.6912 89.7828 86.7869C87.7184 84.4346 82.9771 80.5214 75.0749 81.9349C64.0102 83.9132 57.888 92.5484 55.4281 100.879C47.5103 127.706 17.9385 117.108 5.77911 133.218C-4.17878 146.411 2.43263 179.268 25.4451 177.07C48.4575 174.871 78.8846 134.302 78.8846 134.302L89.9493 107.477L90.9174 90.0678L90.9156 90.0661Z" fill="black"/>
<path d="M26.3142 165.235L23.7119 160.872C23.7119 160.872 43.9608 137.112 61.9752 133.234L84.1896 138.349C84.1896 138.349 94.3019 141.155 99.0189 147.457C103.736 153.761 110.012 167.977 110.012 167.977L105.119 170.165L110.731 219.137C110.731 219.137 98.5314 228.349 87.3088 229.562C76.0863 230.774 54.1286 231.987 43.6381 239.016C43.6381 239.016 31.1959 229.077 30.4639 224.471C30.4639 224.471 41.931 183.822 26.3159 165.235H26.3142Z" fill="white"/>
<path d="M43.6351 239.396C43.5501 239.396 43.4668 239.368 43.3974 239.313C42.8839 238.902 30.8303 229.226 30.0843 224.528C30.0757 224.474 30.0791 224.419 30.0948 224.365C30.2093 223.961 41.3277 183.695 26.0214 165.478C26.0075 165.462 25.9971 165.445 25.9867 165.427L23.3845 161.064C23.3012 160.923 23.3168 160.747 23.4209 160.622C23.6239 160.383 43.9612 136.719 61.8941 132.859C61.9496 132.847 62.0051 132.849 62.0606 132.859L84.2751 137.975C84.7088 138.094 94.5834 140.892 99.3229 147.227C104.012 153.492 110.296 167.677 110.36 167.821C110.445 168.012 110.36 168.235 110.167 168.322L105.528 170.395L111.108 219.092C111.123 219.225 111.066 219.357 110.958 219.439C110.835 219.53 98.5457 228.729 87.3492 229.938C85.8902 230.095 84.2352 230.255 82.4812 230.423C70.7001 231.554 52.899 233.265 43.8484 239.33C43.7843 239.373 43.7097 239.394 43.6368 239.394L43.6351 239.396ZM30.8511 224.49C31.6214 228.606 42.0217 237.213 43.6576 238.545C52.9337 232.5 70.6497 230.797 82.4067 229.667C84.1571 229.499 85.8104 229.34 87.2642 229.182C97.5326 228.074 108.797 220.076 110.323 218.96L104.737 170.207C104.718 170.042 104.808 169.884 104.959 169.817L109.506 167.783C108.514 165.571 102.94 153.334 98.7105 147.682C94.1254 141.554 84.1848 138.74 84.0842 138.713L61.9704 133.622C45.1947 137.29 26.214 158.581 24.1773 160.911L26.6234 165.013C34.7528 174.714 35.4606 190.398 34.6209 201.849C33.757 213.636 31.1252 223.482 30.8494 224.488L30.8511 224.49Z" fill="black"/>
<path d="M35.8022 228.706C35.8022 228.706 28.169 233.288 23.4121 248.561H88.6745L87.3074 229.562L35.8022 228.706Z" fill="black"/>
<path d="M43.6348 239.396C43.5498 239.396 43.4665 239.368 43.3971 239.312C43.3607 239.283 39.6551 236.316 36.2028 232.914C36.0536 232.766 36.0519 232.526 36.1994 232.377C36.3468 232.228 36.588 232.226 36.7389 232.373C39.6864 235.278 42.8212 237.864 43.6574 238.545C52.9335 232.5 70.6495 230.797 82.4064 229.667C84.1569 229.499 85.8101 229.34 87.2639 229.182C90.9366 228.786 95.1088 227.48 99.6662 225.299C99.8553 225.209 100.084 225.288 100.174 225.477C100.265 225.666 100.185 225.893 99.9958 225.985C95.3604 228.202 91.1048 229.532 87.3472 229.938C85.8882 230.095 84.2332 230.255 82.4793 230.423C70.6998 231.554 52.897 233.265 43.8465 239.33C43.7823 239.373 43.7077 239.394 43.6348 239.394V239.396Z" fill="black"/>
<path d="M90.6559 186.458C90.6455 186.458 90.6351 186.458 90.623 186.458C90.413 186.441 90.2569 186.258 90.276 186.048L91.5771 170.532C91.5945 170.323 91.7784 170.165 91.9883 170.186C92.1982 170.203 92.3543 170.387 92.3352 170.596L91.0341 186.112C91.0168 186.311 90.8502 186.46 90.6542 186.46L90.6559 186.458Z" fill="black"/>
<path d="M90.2993 204.735C87.4993 205.43 76.4571 202.871 75.758 202.177C75.758 202.177 82.0572 200.829 83.5439 199.786C85.0307 198.743 85.4678 197.701 85.2059 196.744C84.9439 195.788 74.162 197.249 71.6257 198.118C69.0893 198.988 66.1367 201.132 63.8623 201.829C63.3558 201.984 61.8013 202.208 59.6051 202.437C59.6536 202.035 32.2278 203.048 24.8375 200.813C24.8375 200.813 37.3265 188.059 44.8174 181.01C46.2382 179.673 46.6026 177.562 45.7004 175.836C40.1542 165.216 31.3795 163.489 27.202 163.307C19.5462 173.789 11.9859 186.072 8.35662 191.494C1.30629 202.021 -2.69248 214.794 3.32042 216.773C17.8704 221.557 61.9783 213.712 64.1243 213.914C69.6358 214.436 76.2837 216.783 79.7828 216.088C83.282 215.394 96.5915 211.456 98.2188 207.576C99.4887 204.548 93.1011 204.042 90.301 204.739L90.2993 204.735Z" fill="white"/>
<path d="M17.4804 218.687C11.7017 218.687 6.62904 218.257 3.1993 217.131C1.84613 216.686 0.909327 215.73 0.411432 214.287C-1.40493 209.017 3.09174 198.667 8.03772 191.281C9.05606 189.76 10.3936 187.685 11.9428 185.28C15.9277 179.096 21.3837 170.626 26.8935 163.082C26.9681 162.978 27.0896 162.916 27.2179 162.926C31.869 163.129 40.498 165.051 46.0373 175.66C47.0105 177.525 46.6167 179.838 45.078 181.288C38.4804 187.494 27.8754 198.262 25.5629 200.616C31.2202 202.002 45.7042 201.969 53.6237 201.95C58.1533 201.941 59.3035 201.95 59.6748 202.047C62.1105 201.792 63.3769 201.579 63.7499 201.465C64.8671 201.124 66.1561 200.419 67.5196 199.674C68.8468 198.948 70.2208 198.198 71.5011 197.76C73.8448 196.958 83.7992 195.508 85.253 196.277C85.4629 196.388 85.5427 196.538 85.5722 196.646C85.8012 197.481 85.6728 198.757 83.7611 200.098C82.6126 200.904 78.8862 201.846 76.9779 202.293C79.8005 203.194 87.8535 204.952 90.2077 204.368C92.5098 203.796 96.9128 204.003 98.3006 205.619C98.6528 206.028 98.9841 206.726 98.5678 207.722C96.8468 211.827 83.3308 215.768 79.856 216.459C77.6805 216.892 74.4 216.204 70.9268 215.475C68.6369 214.995 66.2688 214.498 64.0882 214.292C63.677 214.259 61.0782 214.607 57.789 215.056C48.735 216.291 31.1438 218.688 17.4821 218.688L17.4804 218.687ZM27.3879 163.695C21.9319 171.18 16.5332 179.561 12.583 185.691C11.032 188.097 9.69274 190.176 8.67093 191.702C2.74651 200.547 -0.353625 209.733 1.13138 214.037C1.54774 215.243 2.32321 216.042 3.43697 216.407C14.8053 220.145 44.8524 216.049 57.6832 214.299C61.826 213.734 63.677 213.485 64.1576 213.532C66.3816 213.743 68.7722 214.244 71.0812 214.729C74.4763 215.441 77.6822 216.113 79.705 215.711C83.5668 214.943 96.368 210.992 97.8634 207.425C98.0838 206.899 98.0387 206.481 97.7212 206.112C96.5779 204.78 92.4855 204.583 90.3898 205.104C87.451 205.835 76.284 203.237 75.4877 202.447C75.3888 202.348 75.3506 202.204 75.3905 202.069C75.4304 201.936 75.5397 201.834 75.6768 201.804C77.4081 201.434 82.1564 200.294 83.3239 199.474C84.5296 198.629 85.0448 197.772 84.8575 196.926C83.7368 196.405 74.2039 197.637 71.7474 198.478C70.5278 198.896 69.1833 199.63 67.884 200.341C66.4839 201.106 65.162 201.829 63.9719 202.192C63.4289 202.359 61.852 202.586 59.6435 202.814C59.5637 202.819 59.4874 202.806 59.4198 202.769C58.9618 202.698 56.481 202.705 53.6254 202.71C44.7813 202.733 29.978 202.764 24.7267 201.176C24.6001 201.137 24.5012 201.035 24.4682 200.907C24.4353 200.779 24.4717 200.642 24.5654 200.547C24.6903 200.419 37.1446 187.706 44.5575 180.733C45.85 179.517 46.1813 177.575 45.3642 176.011C40.0799 165.895 31.921 163.939 27.3897 163.697L27.3879 163.695ZM59.2255 202.399C59.2255 202.409 59.2254 202.418 59.2237 202.428C59.2237 202.418 59.2237 202.409 59.2255 202.399Z" fill="black"/>
<path d="M106.756 166.683C106.756 166.683 111.541 175.819 116.772 183.555C118.775 186.519 122.755 187.39 125.829 185.558C129.486 183.377 133.912 180.569 136.344 178.407C140.979 174.286 150.012 164.679 152.446 161.194C156.851 154.883 153.723 154.809 155.685 148.219C156.627 145.058 157.392 136.49 158.806 136.111C161.119 135.491 164.039 138.898 163.44 145.59C162.947 151.086 165.674 152.638 166.396 155.354C167.6 159.881 167.55 162.197 167.55 162.197C167.55 162.197 138.996 197.248 125.581 207.884C121.473 211.141 115.859 211.801 111.064 209.663L107.473 208.065L102.756 166.203L106.755 166.681L106.756 166.683Z" fill="white"/>
<path d="M116.888 211.29C114.87 211.29 112.835 210.869 110.909 210.012L107.318 208.413C107.195 208.357 107.11 208.241 107.095 208.108L102.378 166.247C102.364 166.132 102.405 166.016 102.487 165.935C102.57 165.853 102.685 165.814 102.801 165.827L106.8 166.305C106.925 166.321 107.034 166.396 107.091 166.506C107.14 166.598 111.928 175.713 117.085 183.342C118.973 186.134 122.727 186.964 125.633 185.23C129.042 183.197 133.624 180.314 136.089 178.121C140.804 173.929 149.801 164.313 152.132 160.975C154.677 157.331 154.639 155.886 154.585 153.887C154.547 152.461 154.504 150.844 155.318 148.112C155.64 147.026 155.946 145.28 156.266 143.43C157.139 138.415 157.665 136.022 158.704 135.744C159.578 135.508 160.515 135.763 161.343 136.457C163.261 138.067 164.184 141.493 163.815 145.624C163.494 149.203 164.588 151.058 165.553 152.695C166.046 153.53 166.511 154.32 166.76 155.257C167.964 159.782 167.93 162.11 167.926 162.205C167.924 162.29 167.895 162.372 167.841 162.437C167.555 162.789 139.109 197.643 125.815 208.182C123.228 210.233 120.08 211.29 116.884 211.29H116.888ZM107.828 207.807L111.22 209.317C115.937 211.418 121.348 210.755 125.345 207.587C138.21 197.387 165.421 164.201 167.168 162.063C167.158 161.526 167.047 159.28 166.028 155.451C165.806 154.615 165.366 153.87 164.901 153.08C163.877 151.344 162.718 149.378 163.06 145.555C163.469 140.982 162.191 138.157 160.857 137.038C160.225 136.507 159.533 136.308 158.907 136.476C158.223 136.66 157.47 140.978 157.021 143.558C156.695 145.43 156.388 147.197 156.051 148.325C155.272 150.942 155.314 152.494 155.35 153.863C155.406 155.926 155.449 157.556 152.76 161.407C150.356 164.85 141.446 174.378 136.599 178.686C134.088 180.917 129.463 183.829 126.027 185.88C122.774 187.82 118.572 186.89 116.457 183.763C111.675 176.687 107.211 168.346 106.513 167.031L103.191 166.633L107.83 207.8L107.828 207.807Z" fill="black"/>
<path d="M174.907 166.801C172.107 167.757 168.92 165.871 167.806 162.595L150.532 112.069L160.629 108.62L177.927 159.219C179.032 162.467 177.682 165.853 174.905 166.803L174.907 166.801Z" fill="black"/>
<path d="M173.406 167.43C172.584 167.43 171.75 167.234 170.96 166.846C169.35 166.056 168.07 164.551 167.445 162.718L150.172 112.192C150.104 111.993 150.21 111.778 150.409 111.709L160.506 108.26C160.602 108.227 160.707 108.234 160.798 108.279C160.888 108.324 160.957 108.402 160.99 108.497L178.288 159.096C179.456 162.531 177.995 166.148 175.03 167.161C174.506 167.34 173.96 167.43 173.406 167.43ZM151.017 112.306L168.167 162.474C168.726 164.118 169.866 165.462 171.295 166.163C172.435 166.723 173.673 166.822 174.784 166.442C177.353 165.564 178.6 162.378 177.568 159.34L160.393 109.102L151.017 112.305V112.306Z" fill="black"/>
<path d="M158.843 65.0023L126.185 88.2715L113.463 101.45L108.474 110.269L108.441 110.338C107.459 111.865 108.019 115.383 109.876 118.962C111.713 122.501 114.273 124.952 116.09 125.092L116.034 125.12L125.637 126.15L143.595 123.285L181.718 109.672L229.098 117.778L229.433 117.787C217.494 115.61 201.431 99.7268 189.764 77.2492C178.112 54.7977 174.396 32.6094 179.506 21.6668L179.496 21.6616L159.105 64.4549L158.843 65.0023Z" fill="white"/>
<path d="M237.27 116.865C248.977 110.795 246.712 83.2681 232.211 55.3817C217.71 27.4953 196.464 9.80943 184.756 15.8792C173.049 21.949 175.314 49.4759 189.815 77.3623C204.317 105.249 225.563 122.935 237.27 116.865Z" fill="white"/>
<path d="M232.121 118.428C227.024 118.428 220.883 115.582 214.279 110.068C205.275 102.554 196.448 90.96 189.422 77.4242C178.781 56.9214 174.395 35.8903 178.248 23.8443C179.537 19.8186 181.68 17.0123 184.618 15.507C190.439 12.5241 198.651 15.0601 207.74 22.6473C216.744 30.1618 225.571 41.7557 232.597 55.2914C243.238 75.7942 247.624 96.8253 243.771 108.871C242.483 112.897 240.339 115.702 237.402 117.209C235.811 118.024 234.04 118.428 232.123 118.428H232.121ZM189.913 15.0462C188.126 15.0462 186.466 15.4152 184.967 16.1843C182.216 17.5944 180.2 20.2499 178.975 24.0764C175.179 35.9388 179.546 56.7413 190.099 77.0743C204.46 104.742 225.526 122.443 237.053 116.533C239.805 115.123 241.821 112.467 243.046 108.641C246.841 96.7785 242.475 75.9761 231.922 55.643C219.429 31.5753 201.863 15.0462 189.913 15.0462Z" fill="black"/>
<path d="M232.121 118.428C227.024 118.428 220.883 115.582 214.279 110.068C205.275 102.554 196.448 90.9599 189.422 77.4242C178.781 56.9214 174.395 35.8902 178.248 23.8442C179.537 19.8185 181.68 17.0123 184.618 15.507C188.529 13.5028 193.626 14.0016 199.357 16.9517C204.853 19.7787 210.814 24.7814 216.595 31.4193C216.733 31.5787 216.716 31.8177 216.556 31.9563C216.397 32.0932 216.157 32.0776 216.019 31.9182C204.264 18.4206 192.364 12.3941 184.965 16.1843C182.214 17.5943 180.198 20.2498 178.973 24.0764C175.177 35.9387 179.544 56.7412 190.097 77.0743C202.589 101.144 220.156 117.669 232.106 117.671C233.893 117.671 235.553 117.302 237.052 116.533C239.803 115.123 241.819 112.467 243.044 108.641C246.84 96.7785 242.473 75.976 231.92 55.643C228.773 49.5784 225.246 43.8793 221.44 38.7034C221.315 38.5336 221.352 38.2963 221.522 38.1716C221.692 38.0469 221.929 38.0833 222.054 38.253C225.885 43.4601 229.431 49.1938 232.597 55.2931C243.238 75.7959 247.624 96.827 243.771 108.873C242.483 112.899 240.339 115.703 237.402 117.21C235.811 118.026 234.04 118.43 232.123 118.43L232.121 118.428Z" fill="black"/>
<path d="M210.706 81.3726C213.416 79.9671 212.892 73.5933 209.534 67.1362C206.176 60.6792 201.257 56.584 198.546 57.9895C195.835 59.3949 196.36 65.7688 199.717 72.2259C203.075 78.6829 207.995 82.7781 210.706 81.3726Z" fill="white"/>
<path d="M209.519 82.0164C206.539 82.0164 202.379 78.1708 199.365 72.3661C196.867 67.5539 195.844 62.5962 196.76 59.7363C197.082 58.7282 197.627 58.0197 198.38 57.6351C201.329 56.1229 206.381 60.2265 209.882 66.9719C212.38 71.784 213.403 76.7417 212.487 79.6017C212.165 80.6098 211.62 81.3183 210.867 81.7029C210.454 81.9142 210.001 82.0147 209.517 82.0147L209.519 82.0164ZM199.738 58.0803C199.37 58.0803 199.032 58.1548 198.729 58.3107C198.163 58.6 197.745 59.1577 197.486 59.9667C196.629 62.643 197.634 67.372 200.044 72.0144C203.239 78.1708 208.039 82.297 210.522 81.0256C211.087 80.7363 211.506 80.1785 211.764 79.3695C212.619 76.6932 211.617 71.9642 209.207 67.3218C206.403 61.9189 202.365 58.0803 199.738 58.0803Z" fill="black"/>
<path d="M229.481 111.958C225.01 111.958 219.627 109.465 213.84 104.634C205.958 98.0552 198.231 87.9077 192.083 76.0609C182.767 58.1132 178.93 39.6994 182.304 29.1501C183.435 25.6163 185.317 23.1531 187.9 21.8296C193.828 18.7913 202.563 22.2904 211.864 31.4297C212.013 31.577 212.016 31.8177 211.869 31.9667C211.721 32.1157 211.48 32.1174 211.331 31.9719C202.279 23.0786 193.863 19.628 188.249 22.507C185.853 23.7351 184.098 26.0477 183.031 29.3822C179.714 39.7497 183.532 57.9347 192.76 75.711C203.68 96.7508 219.028 111.201 229.462 111.203C231.02 111.203 232.466 110.881 233.773 110.21C236.168 108.982 237.924 106.67 238.991 103.335C242.308 92.9693 238.49 74.7842 229.262 57.0063C226.476 51.6398 223.353 46.6024 219.981 42.0345C219.856 41.8647 219.892 41.6274 220.061 41.5027C220.231 41.378 220.468 41.4144 220.593 41.5824C223.99 46.1832 227.134 51.2535 229.937 56.6563C239.251 74.6041 243.09 93.0178 239.714 103.567C238.583 107.101 236.701 109.564 234.118 110.888C232.72 111.605 231.164 111.958 229.477 111.958H229.481Z" fill="black"/>
<path d="M125.635 126.532C125.621 126.532 125.607 126.532 125.595 126.53L115.993 125.499C115.935 125.494 115.882 125.475 115.835 125.445C113.852 125.128 111.354 122.637 109.537 119.137C107.62 115.442 107.046 111.839 108.106 110.155L108.13 110.105L113.132 101.263C113.148 101.236 113.167 101.21 113.189 101.187L125.911 88.0082C125.926 87.9909 125.945 87.977 125.964 87.9632L158.543 64.7512L179.152 21.4989C179.196 21.407 179.276 21.336 179.373 21.3031C179.47 21.2685 179.576 21.2771 179.668 21.3222C179.852 21.414 179.938 21.6409 179.852 21.828C174.631 33.0027 178.752 55.2048 190.103 77.0743C201.471 98.9785 217.305 115.189 229.502 117.413C229.698 117.449 229.834 117.63 229.813 117.827C229.792 118.024 229.622 118.16 229.424 118.168L229.089 118.16C229.07 118.16 229.053 118.158 229.036 118.154L181.755 110.065L143.727 123.646C143.705 123.654 143.682 123.659 143.66 123.663L125.701 126.528C125.682 126.532 125.661 126.533 125.64 126.533L125.635 126.532ZM116.281 124.765L125.624 125.768L143.498 122.916L181.586 109.315C181.649 109.292 181.715 109.287 181.779 109.297L224.35 116.582C212.846 111.542 199.403 96.6538 189.423 77.426C179.517 58.3401 175.093 38.9512 177.515 26.699L159.185 65.1669C159.157 65.2258 159.115 65.276 159.061 65.3124L126.431 88.5608L113.767 101.681L108.779 110.505C108.772 110.519 108.765 110.533 108.757 110.545C107.851 111.953 108.462 115.419 110.21 118.787C111.924 122.088 114.407 124.581 116.116 124.713C116.175 124.718 116.23 124.735 116.279 124.765H116.281Z" fill="black"/>
<path d="M158.904 64.8725L179.495 21.6617L179.505 21.6669C174.394 32.6095 178.11 54.7978 189.763 77.2493C201.43 99.7269 217.493 115.61 229.432 117.787L229.097 117.779L181.795 109.686L180.699 109.502C175.201 108.534 167.854 101.388 162.601 91.2112C157.209 80.7658 156.258 70.3481 158.644 65.3991L158.904 64.8725Z" fill="white"/>
<path d="M229.431 118.167H229.421L229.086 118.158C229.067 118.158 229.05 118.156 229.032 118.153L181.731 110.06L180.636 109.878C174.826 108.854 167.444 101.423 162.262 91.3861C156.376 79.9828 156.083 69.837 158.3 65.2362L158.562 64.7079L179.151 21.4989C179.194 21.407 179.274 21.336 179.371 21.3031C179.468 21.2685 179.574 21.2771 179.666 21.3222C179.85 21.414 179.937 21.6409 179.85 21.828C174.63 33.0027 178.75 55.2048 190.101 77.0743C201.469 98.9785 217.303 115.189 229.501 117.413C229.697 117.449 229.832 117.63 229.811 117.827C229.79 118.021 229.627 118.168 229.433 118.168L229.431 118.167ZM177.517 26.6973L159.247 65.037C159.247 65.037 159.247 65.0405 159.246 65.0422L158.985 65.5688C156.78 70.1419 157.429 80.3621 162.939 91.0379C168.017 100.875 175.18 108.144 180.764 109.128L181.857 109.31L224.35 116.58C212.846 111.541 199.403 96.6521 189.423 77.4242C179.517 58.3384 175.093 38.9494 177.515 26.6973H177.517Z" fill="black"/>
<path d="M125.116 126.476C125.102 126.476 125.088 126.476 125.074 126.474L115.991 125.499C115.933 125.494 115.88 125.475 115.833 125.445C113.85 125.128 111.352 122.637 109.535 119.137C107.618 115.442 107.044 111.839 108.104 110.155L108.128 110.105L113.13 101.263C113.234 101.081 113.467 101.017 113.649 101.12C113.833 101.223 113.897 101.456 113.793 101.637L108.781 110.503C108.774 110.517 108.767 110.531 108.758 110.543C107.853 111.951 108.463 115.417 110.212 118.785C111.926 122.087 114.409 124.579 116.117 124.711C116.176 124.716 116.232 124.733 116.28 124.763L125.157 125.716C125.367 125.738 125.518 125.925 125.496 126.135C125.475 126.331 125.31 126.474 125.118 126.474L125.116 126.476Z" fill="black"/>
<path d="M125.718 126.098C122.764 125.889 118.64 121.712 115.644 115.944C112.471 109.831 111.727 103.505 113.668 101.255L108.474 110.269L108.441 110.338C107.459 111.865 108.019 115.383 109.876 118.962C111.713 122.501 114.273 124.952 116.09 125.092L116.034 125.12L125.72 126.098H125.718Z" fill="white"/>
<path d="M125.718 126.478C125.709 126.478 125.699 126.478 125.69 126.478C125.616 126.473 125.541 126.466 125.465 126.455L115.994 125.499C115.935 125.494 115.882 125.475 115.835 125.445C113.852 125.128 111.354 122.637 109.537 119.137C107.62 115.442 107.046 111.839 108.106 110.155L108.13 110.105L112.696 102.176C112.873 101.722 113.101 101.327 113.378 101.005C113.507 100.856 113.727 100.83 113.887 100.943C114.046 101.057 114.095 101.274 113.996 101.443L113.363 102.543C112.339 105.298 113.352 110.704 115.98 115.767C118.85 121.297 122.746 125.328 125.545 125.698L125.753 125.719C125.959 125.74 126.112 125.924 126.095 126.13C126.077 126.327 125.911 126.478 125.716 126.478H125.718ZM116.279 124.763L122.908 125.433C120.352 123.814 117.549 120.439 115.307 116.119C113.139 111.941 112.058 107.615 112.238 104.497L108.783 110.505C108.776 110.519 108.769 110.533 108.76 110.545C107.855 111.953 108.465 115.419 110.214 118.787C111.928 122.088 114.41 124.581 116.119 124.713C116.177 124.718 116.232 124.735 116.281 124.763H116.279Z" fill="black"/>
<path d="M142.938 123.389L143.698 123.237C139.563 124.096 133.044 117.874 128.443 109.006C123.751 99.9641 122.855 90.934 126.184 88.2698L125.759 88.7098L113.702 101.213C111.72 103.43 112.455 109.793 115.645 115.941C118.725 121.874 123.076 126.09 126.039 126.074L142.939 123.387L142.938 123.389Z" fill="black"/>
<path d="M126.022 126.457C122.871 126.457 118.47 122.21 115.308 116.117C112.074 109.888 111.262 103.373 113.418 100.962L125.245 88.6976C125.455 88.4222 125.689 88.1797 125.947 87.9736C126.103 87.8488 126.331 87.8662 126.466 88.0134C126.601 88.1624 126.598 88.3893 126.459 88.5331L125.774 89.2433C123.364 92.4739 124.565 100.706 128.782 108.831C133.332 117.6 139.675 123.616 143.57 122.875L143.625 122.864C143.832 122.821 144.031 122.956 144.073 123.161C144.114 123.367 143.982 123.566 143.778 123.609C143.759 123.614 143.738 123.618 143.719 123.621L143.014 123.762C143.014 123.762 143.004 123.763 142.999 123.765L126.098 126.452C126.074 126.455 126.048 126.457 126.022 126.457ZM124.23 90.8456L113.975 101.48C112.06 103.621 112.938 109.902 115.982 115.769C118.966 121.518 123.177 125.684 126.006 125.698L140.922 123.327C136.897 121.912 131.932 116.559 128.105 109.185C124.469 102.18 123.073 95.0359 124.23 90.8474V90.8456Z" fill="black"/>
<path d="M198.555 57.9729C195.838 59.3656 196.237 65.7922 199.705 72.1911C205.522 82.9206 210.144 81.6509 210.687 81.4552C210.697 81.4517 210.702 81.4655 210.693 81.4707L200.71 89.4945C197.783 85.3856 194.981 80.8177 192.422 75.8843C189.969 71.157 187.917 66.4418 186.279 61.8756L198.555 57.9729Z" fill="black"/>
<path d="M200.709 89.8756C200.692 89.8756 200.675 89.8756 200.657 89.8722C200.553 89.8583 200.46 89.8011 200.399 89.7162C197.394 85.4982 194.596 80.9043 192.084 76.061C189.672 71.4151 187.599 66.6861 185.92 62.0056C185.885 61.9086 185.89 61.8012 185.937 61.7094C185.984 61.6176 186.064 61.5466 186.163 61.5154L198.438 57.6126C198.628 57.5537 198.831 57.6473 198.907 57.8309C198.983 58.0128 198.905 58.2241 198.728 58.3142C198.142 58.6139 197.71 59.2011 197.444 60.0586C196.6 62.7851 197.642 67.5886 200.04 72.0128C205.713 82.4789 210.077 81.2733 210.558 81.1001C210.73 81.0377 210.933 81.1105 211.025 81.2698C211.118 81.4309 211.078 81.6509 210.934 81.7687L200.949 89.7925C200.881 89.8479 200.796 89.8756 200.709 89.8756ZM186.77 62.1199C188.413 66.648 190.427 71.2177 192.759 75.7111C195.191 80.3968 197.89 84.8469 200.786 88.9454L209.444 81.987C207.46 81.8917 203.733 80.421 199.368 72.3713C196.841 67.7081 195.8 62.7851 196.716 59.8299C196.834 59.4505 196.981 59.111 197.158 58.8148L186.77 62.1182V62.1199Z" fill="black"/>
<path d="M171.839 132.53C170.467 132.8 166.63 135.167 166.836 141.462C166.966 145.396 169.853 147.121 171.999 147.862C173.494 148.378 174.676 149.537 175.162 151.041L176.307 154.592C176.307 154.592 183.888 130.159 171.839 132.532V132.53Z" fill="white"/>
<path d="M176.307 154.971C176.142 154.971 175.994 154.864 175.944 154.708L174.799 151.157C174.355 149.78 173.29 148.709 171.876 148.221C168.486 147.052 166.561 144.654 166.456 141.474C166.252 135.265 169.945 132.516 171.767 132.158C174.077 131.702 175.873 132.167 177.107 133.537C181.615 138.541 176.874 154.048 176.671 154.705C176.622 154.864 176.475 154.971 176.31 154.973H176.308L176.307 154.971ZM173.406 132.745C172.945 132.745 172.447 132.797 171.914 132.903C170.87 133.109 167.012 135.162 167.218 141.448C167.338 145.094 169.952 146.752 172.124 147.502C173.743 148.06 175.014 149.34 175.524 150.923L176.284 153.281C177.309 149.52 180.071 137.964 176.539 134.043C175.757 133.175 174.725 132.745 173.406 132.745Z" fill="black"/>
<path d="M62.623 133.731C62.623 133.731 67.9056 136.295 71.0994 141.178C74.2932 146.061 83.8764 153.385 86.2097 152.654C88.5431 151.921 86.5775 146.917 85.5956 143.62C84.6119 140.324 81.923 137.978 81.923 137.978C81.923 137.978 84.2442 131.597 85.7188 127.751C86.4526 125.835 87.0459 123.815 87.4449 122.326C87.7815 121.072 89.0167 120.278 90.3056 120.481C92.613 120.845 96.0323 121.2 97.5121 120.425C99.1949 119.545 98.834 114.366 98.5027 111.544C98.3708 110.427 98.6588 109.298 99.325 108.388C99.665 107.922 100.061 107.008 100.17 106.64C100.17 106.64 100.047 106.188 97.8348 104.449C95.6229 102.71 95.3505 99.6542 95.1163 98.7257C93.7337 93.2328 90.8781 89.524 89.1277 88.4708C89.1277 88.4708 87.1014 101.747 82.4018 104.31C82.4018 104.31 80.4674 105.684 77.0585 103.578C77.0585 103.578 74.0174 102.479 72.9123 104.86C71.8072 107.24 75.3081 111.634 73.8335 117.403C73.0944 120.292 68.6429 132.021 62.623 133.731Z" fill="white"/>
<path d="M85.8727 153.078C82.7084 153.078 73.7099 145.867 70.7798 141.386C67.6831 136.651 62.5081 134.098 62.4561 134.072C62.3138 134.003 62.2288 133.854 62.2427 133.696C62.2566 133.538 62.3659 133.407 62.5185 133.364C68.0804 131.785 72.5493 120.886 73.4635 117.307C74.2772 114.125 73.5225 111.347 72.9153 109.114C72.4209 107.292 72.0288 105.852 72.5649 104.698C73.5555 102.564 76.0207 102.798 77.1865 103.219C77.2108 103.228 77.235 103.24 77.2576 103.254C80.382 105.183 82.1116 104.047 82.1828 103.999C82.1932 103.992 82.207 103.983 82.2175 103.976C86.6985 101.532 88.73 88.5435 88.7491 88.4119C88.7682 88.2872 88.8497 88.178 88.9642 88.1243C89.0804 88.0706 89.214 88.0776 89.3233 88.1434C90.9922 89.1463 94.0108 92.7685 95.4854 98.6321C95.5201 98.7724 95.5565 98.9578 95.5999 99.1795C95.841 100.427 96.2903 102.75 98.0703 104.148C99.5605 105.32 100.437 106.169 100.537 106.538C100.556 106.607 100.555 106.68 100.534 106.748C100.421 107.12 100.012 108.088 99.6316 108.61C99.0262 109.438 98.759 110.463 98.8804 111.497C99.3176 115.21 99.4651 119.831 97.6886 120.76C96.1498 121.565 92.7929 121.255 90.2462 120.853C89.1446 120.678 88.0968 121.354 87.8123 122.421C87.4375 123.822 86.8321 125.906 86.074 127.883C84.7781 131.264 82.8021 136.672 82.3684 137.866C83.0189 138.484 85.1025 140.627 85.9612 143.508C86.0896 143.935 86.2336 144.393 86.3828 144.867C86.8824 146.449 87.4479 148.242 87.6284 149.718C87.8539 151.562 87.415 152.671 86.3238 153.012C86.1902 153.054 86.0393 153.075 85.8727 153.075V153.078ZM63.5559 133.8C65.1572 134.709 68.8975 137.116 71.4182 140.97C74.7213 146.021 84.124 152.91 86.0965 152.29C86.3533 152.209 87.1357 151.964 86.8737 149.813C86.702 148.406 86.1468 146.648 85.6576 145.099C85.5067 144.621 85.361 144.161 85.2326 143.728C84.2923 140.573 81.7005 138.285 81.6745 138.262C81.5565 138.158 81.5131 137.994 81.5669 137.847C81.5895 137.782 83.9054 131.418 85.3644 127.612C86.1104 125.667 86.7089 123.609 87.0784 122.225C87.4653 120.781 88.8792 119.866 90.3677 120.103C93.8061 120.644 96.2799 120.638 97.3382 120.086C98.393 119.533 98.6879 116.356 98.1275 111.586C97.9835 110.361 98.301 109.145 99.0192 108.161C99.2899 107.79 99.6091 107.082 99.7548 106.685C99.5987 106.479 99.099 105.921 97.6019 104.745C95.5999 103.171 95.0968 100.572 94.8557 99.3233C94.8158 99.1171 94.7828 98.9456 94.7498 98.8174C93.4782 93.761 90.9835 90.4005 89.4066 89.1308C88.9416 91.8036 86.8703 102.282 82.6026 104.634C82.3562 104.795 80.3039 106.01 76.8967 103.922C76.5637 103.811 74.1557 103.087 73.2606 105.019C72.8425 105.92 73.1998 107.241 73.6544 108.915C74.2841 111.234 75.0682 114.12 74.2043 117.496C73.6266 119.76 69.5498 131.207 63.5594 133.798L63.5559 133.8Z" fill="black"/>
<path d="M81.8722 143.062C81.7144 143.062 81.5686 142.965 81.5131 142.808C81.4767 142.704 80.6249 140.216 81.7629 137.33C81.8393 137.135 82.0613 137.039 82.2574 137.116C82.4534 137.192 82.5488 137.414 82.4725 137.609C81.4385 140.235 82.2244 142.534 82.2331 142.557C82.3025 142.754 82.1984 142.972 82.0006 143.042C81.959 143.057 81.9156 143.062 81.874 143.062H81.8722Z" fill="black"/>
<path d="M78.633 113.768C76.1158 113.768 74.001 111.212 73.0989 109.547C72.9983 109.362 73.0677 109.131 73.2533 109.032C73.4372 108.932 73.6697 109.001 73.7685 109.187C73.798 109.239 76.6831 114.465 80.1458 112.608C80.3314 112.507 80.5621 112.578 80.661 112.762C80.7599 112.947 80.6905 113.178 80.5066 113.276C79.8665 113.619 79.2367 113.768 78.633 113.768Z" fill="black"/>
<path d="M211.868 133.149C211.842 133.149 211.814 133.149 211.786 133.149C210.957 133.128 210.185 132.787 209.614 132.187C209.042 131.588 208.738 130.805 208.761 129.979C208.804 128.304 210.189 126.97 211.866 126.97C211.892 126.97 211.92 126.97 211.948 126.97C212.777 126.991 213.549 127.332 214.12 127.931C214.692 128.53 214.996 129.313 214.973 130.14C214.93 131.817 213.544 133.15 211.868 133.15V133.149ZM211.866 127.73C210.602 127.73 209.555 128.737 209.523 129.999C209.507 130.621 209.734 131.212 210.166 131.662C210.598 132.114 211.181 132.371 211.807 132.388C211.828 132.388 211.849 132.388 211.868 132.388C213.134 132.388 214.181 131.382 214.212 130.119C214.227 129.497 214 128.906 213.568 128.456C213.136 128.004 212.553 127.748 211.927 127.73C211.906 127.73 211.885 127.73 211.865 127.73H211.866Z" fill="black"/>
<path d="M66.7567 278.07C66.7289 278.07 66.7029 278.07 66.6751 278.07C65.8459 278.049 65.0739 277.708 64.5031 277.108C63.9306 276.509 63.6271 275.726 63.6496 274.9C63.6947 273.197 65.1121 271.853 66.8365 271.891C67.6657 271.911 68.4377 272.253 69.0085 272.852C69.581 273.45 69.8846 274.234 69.862 275.061C69.8186 276.736 68.4343 278.07 66.7567 278.07ZM66.7549 272.651C65.4885 272.651 64.4442 273.656 64.4112 274.92C64.3956 275.542 64.6228 276.133 65.0548 276.583C65.4868 277.035 66.0697 277.292 66.696 277.309C66.7168 277.309 66.7376 277.309 66.7567 277.309C68.0231 277.309 69.0675 276.303 69.1004 275.04C69.116 274.418 68.8888 273.827 68.4568 273.377C68.0248 272.925 67.4419 272.668 66.8157 272.653C66.7948 272.653 66.774 272.653 66.7549 272.653V272.651Z" fill="black"/>
<path d="M78.1186 288.725C78.0562 288.725 77.992 288.709 77.933 288.676C77.7491 288.574 77.6832 288.342 77.7855 288.158L79.0693 285.856C79.1716 285.672 79.4041 285.608 79.588 285.709C79.7719 285.811 79.8378 286.043 79.7355 286.227L78.4517 288.529C78.3823 288.654 78.2522 288.725 78.1186 288.725Z" fill="black"/>
<path d="M82.6127 280.668C82.5503 280.668 82.4861 280.652 82.4271 280.619C82.2432 280.517 82.1773 280.285 82.2797 280.102L83.5634 277.799C83.6658 277.616 83.8983 277.552 84.0821 277.652C84.266 277.754 84.332 277.986 84.2296 278.17L82.9458 280.472C82.8764 280.597 82.7463 280.668 82.6127 280.668Z" fill="black"/>
<path d="M86.2235 286.376C86.1628 286.376 86.1004 286.36 86.0414 286.329L83.7236 285.071C83.538 284.971 83.4704 284.74 83.571 284.555C83.6716 284.37 83.9023 284.302 84.088 284.403L86.4057 285.66C86.5913 285.761 86.659 285.991 86.5583 286.177C86.489 286.303 86.3588 286.376 86.2235 286.376Z" fill="black"/>
<path d="M78.1112 281.974C78.0505 281.974 77.9881 281.959 77.9291 281.927L75.6113 280.67C75.4257 280.569 75.3581 280.339 75.4587 280.154C75.5593 279.97 75.79 279.901 75.9757 280.001L78.2934 281.259C78.479 281.359 78.5467 281.59 78.446 281.775C78.3767 281.901 78.2465 281.974 78.1112 281.974Z" fill="black"/>
<path d="M244.436 56.0829C244.299 56.0829 244.167 56.0102 244.099 55.882C244 55.6966 244.072 55.4662 244.257 55.3675L266.843 43.3752C267.028 43.2765 267.259 43.3458 267.358 43.5328C267.457 43.7182 267.386 43.9486 267.2 44.0473L244.615 56.0396C244.557 56.0708 244.497 56.0847 244.436 56.0847V56.0829Z" fill="black"/>
<path d="M125.408 28.1229C125.27 28.1229 125.139 28.0501 125.071 27.9219C124.972 27.7366 125.043 27.5062 125.229 27.4075C153.84 12.2157 173.646 1.69582 173.646 1.69582C173.832 1.59535 174.062 1.66811 174.161 1.85346C174.26 2.0388 174.189 2.26919 174.003 2.36793C174.003 2.36793 154.197 12.8878 125.586 28.0796C125.529 28.1108 125.468 28.1246 125.408 28.1246V28.1229Z" fill="black"/>
<path d="M118.966 47.2417C118.829 47.2417 118.697 47.1689 118.63 47.0407C118.531 46.8554 118.602 46.625 118.787 46.5262L153.081 28.3135C153.267 28.2147 153.498 28.2857 153.597 28.4711C153.696 28.6564 153.624 28.8868 153.439 28.9856L119.145 47.1983C119.088 47.2295 119.027 47.2434 118.966 47.2434V47.2417Z" fill="black"/>
<path d="M146.271 212.054C146.134 212.054 146.002 211.981 145.934 211.853C145.835 211.668 145.906 211.437 146.092 211.338C175.36 195.799 195.734 184.977 195.734 184.977C195.92 184.877 196.15 184.949 196.249 185.135C196.348 185.32 196.277 185.551 196.091 185.649C196.091 185.649 175.718 196.471 146.449 212.011C146.392 212.042 146.332 212.056 146.271 212.056V212.054Z" fill="black"/>
<path d="M174.741 181.509C174.603 181.509 174.472 181.437 174.404 181.308C174.305 181.123 174.376 180.893 174.562 180.794C210.447 161.741 236.861 147.712 236.861 147.712C237.047 147.613 237.278 147.684 237.376 147.869C237.475 148.055 237.404 148.285 237.219 148.384C237.219 148.384 210.804 162.413 174.919 181.466C174.862 181.497 174.801 181.511 174.741 181.511V181.509Z" fill="black"/>
<path d="M150.571 255.887C152.039 255.887 153.23 254.703 153.23 253.243C153.23 251.783 152.039 250.6 150.571 250.6C149.102 250.6 147.911 251.783 147.911 253.243C147.911 254.703 149.102 255.887 150.571 255.887Z" fill="black"/>
<path d="M274.52 188.353H224.606C222.234 188.353 220.311 190.274 220.311 192.642V306.587C220.311 308.956 222.234 310.877 224.606 310.877H274.52C276.893 310.877 278.816 308.956 278.816 306.587V192.642C278.816 190.274 276.893 188.353 274.52 188.353Z" fill="white"/>
<path d="M274.52 311.258H224.606C222.028 311.258 219.929 309.163 219.929 306.587V192.642C219.929 190.068 222.026 187.972 224.606 187.972H274.52C277.098 187.972 279.197 190.067 279.197 192.642V306.587C279.197 309.162 277.1 311.258 274.52 311.258ZM224.606 188.734C222.448 188.734 220.69 190.487 220.69 192.644V306.589C220.69 308.744 222.446 310.499 224.606 310.499H274.52C276.678 310.499 278.436 308.746 278.436 306.589V192.644C278.436 190.489 276.68 188.734 274.52 188.734H224.606Z" fill="black"/>
<path d="M250.246 310.043C250.038 310.043 249.866 309.875 249.864 309.666L248.95 192.925C248.95 192.715 249.117 192.544 249.328 192.542H249.332C249.54 192.542 249.712 192.71 249.714 192.92L250.628 309.66C250.628 309.87 250.461 310.042 250.25 310.043H250.246Z" fill="black"/>
<path d="M235.955 214.093C231.299 214.093 227.51 210.31 227.51 205.66C227.51 201.011 231.299 197.228 235.955 197.228C240.611 197.228 244.4 201.011 244.4 205.66C244.4 210.31 240.611 214.093 235.955 214.093ZM235.955 197.986C231.718 197.986 228.271 201.428 228.271 205.658C228.271 209.889 231.718 213.331 235.955 213.331C240.191 213.331 243.638 209.889 243.638 205.658C243.638 201.428 240.191 197.986 235.955 197.986Z" fill="black"/>
<path d="M235.784 236.193C231.126 236.193 227.337 232.41 227.337 227.758C227.337 223.107 231.126 219.326 235.784 219.326C240.442 219.326 244.229 223.109 244.229 227.758C244.229 232.408 240.44 236.193 235.784 236.193ZM235.784 220.086C231.546 220.086 228.1 223.528 228.1 227.758C228.1 231.989 231.547 235.431 235.784 235.431C240.02 235.431 243.467 231.989 243.467 227.758C243.467 223.528 240.02 220.086 235.784 220.086Z" fill="black"/>
<path d="M235.726 258.178C231.07 258.178 227.281 254.395 227.281 249.746C227.281 245.096 231.07 241.313 235.726 241.313C240.383 241.313 244.171 245.096 244.171 249.746C244.171 254.395 240.383 258.178 235.726 258.178ZM235.726 242.072C231.49 242.072 228.043 245.514 228.043 249.744C228.043 253.974 231.49 257.416 235.726 257.416C239.963 257.416 243.41 253.974 243.41 249.744C243.41 245.514 239.963 242.072 235.726 242.072Z" fill="black"/>
<path d="M235.555 280.964C230.897 280.964 227.109 277.181 227.109 272.532C227.109 267.882 230.898 264.099 235.555 264.099C240.211 264.099 244 267.882 244 272.532C244 277.181 240.211 280.964 235.555 280.964ZM235.555 264.86C231.316 264.86 227.871 268.302 227.871 272.532C227.871 276.762 231.318 280.204 235.555 280.204C239.791 280.204 243.238 276.762 243.238 272.532C243.238 268.302 239.791 264.86 235.555 264.86Z" fill="black"/>
<path d="M235.555 304.495C230.897 304.495 227.109 300.712 227.109 296.062C227.109 291.413 230.898 287.63 235.555 287.63C240.211 287.63 244 291.413 244 296.062C244 300.712 240.211 304.495 235.555 304.495ZM235.555 288.389C231.316 288.389 227.871 291.831 227.871 296.061C227.871 300.291 231.318 303.733 235.555 303.733C239.791 303.733 243.238 300.291 243.238 296.061C243.238 291.831 239.791 288.389 235.555 288.389Z" fill="black"/>
<path d="M266.16 213.214C270.275 211.512 272.23 206.801 270.525 202.692C268.821 198.583 264.103 196.631 259.987 198.333C255.872 200.035 253.918 204.746 255.623 208.855C257.327 212.964 262.045 214.916 266.16 213.214Z" fill="white"/>
<path d="M265.988 235.315C270.104 233.613 272.058 228.902 270.353 224.793C268.649 220.684 263.931 218.732 259.816 220.434C255.7 222.136 253.746 226.847 255.451 230.956C257.155 235.066 261.873 237.017 265.988 235.315Z" fill="white"/>
<path d="M268.548 255.555C271.698 252.41 271.698 247.311 268.548 244.166C265.399 241.021 260.292 241.021 257.142 244.166C253.993 247.311 253.993 252.41 257.142 255.555C260.292 258.7 265.399 258.7 268.548 255.555Z" fill="white"/>
<path d="M270.517 274.48C271.54 270.152 268.855 265.814 264.52 264.793C260.185 263.771 255.841 266.452 254.818 270.781C253.794 275.109 256.479 279.447 260.814 280.468C265.15 281.49 269.493 278.809 270.517 274.48Z" fill="white"/>
<path d="M270.516 298.01C271.539 293.681 268.854 289.344 264.519 288.322C260.184 287.301 255.84 289.982 254.817 294.31C253.793 298.639 256.478 302.976 260.813 303.998C265.149 305.02 269.492 302.339 270.516 298.01Z" fill="white"/>
<path d="M310.968 206.381H255.884C255.884 206.381 255.641 311.173 255.655 311.847C255.714 314.528 268.107 316.669 283.459 316.669C298.81 316.669 311.136 314.54 311.246 311.862C311.299 310.563 310.966 206.381 310.966 206.381H310.968Z" fill="white"/>
<path d="M310.692 276.455C291.507 281.401 273.243 281.29 256.002 276.455V245.145C276.105 249.353 294.473 249.997 310.692 245.145V276.455Z" fill="black"/>
<path d="M283.463 317C269.855 317 255.353 315.162 255.277 311.755C255.262 311.084 255.496 210.462 255.504 206.18C255.504 205.97 255.674 205.801 255.886 205.801H310.968C311.178 205.801 311.348 205.97 311.35 206.18C311.364 210.438 311.681 310.461 311.629 311.753C311.491 315.16 297.014 317 283.463 317ZM256.266 206.561C256.25 213.492 256.025 311.017 256.039 311.739C256.086 313.868 267.36 316.241 283.463 316.241C299.565 316.241 310.781 313.859 310.87 311.724C310.92 310.487 310.613 213.467 310.59 206.563H256.266V206.561Z" fill="black"/>
<path d="M283.258 202.561C300.323 202.561 314.157 201.365 314.157 199.888C314.157 198.412 300.323 197.216 283.258 197.216C266.193 197.216 252.359 198.412 252.359 199.888C252.359 201.365 266.193 202.561 283.258 202.561Z" fill="black"/>
<path d="M313.923 199.661H252.359L252.396 210.706C252.387 210.734 252.38 210.817 252.38 210.845C252.38 212.321 265.938 213.738 283.003 213.738C300.069 213.738 313.902 212.555 313.902 211.079C313.902 211.039 313.89 210.893 313.871 210.855L313.923 199.663V199.661Z" fill="black"/>
<path d="M254.561 201.797H254.503C254.176 201.797 253.91 202.063 253.91 202.39V210.563C253.91 210.89 254.176 211.155 254.503 211.155H254.561C254.888 211.155 255.154 210.89 255.154 210.563V202.39C255.154 202.063 254.888 201.797 254.561 201.797Z" fill="white"/>
<path d="M258.033 202.561H257.976C257.648 202.561 257.383 202.827 257.383 203.154V211.326C257.383 211.654 257.648 211.919 257.976 211.919H258.033C258.361 211.919 258.627 211.654 258.627 211.326V203.154C258.627 202.827 258.361 202.561 258.033 202.561Z" fill="white"/>
<path d="M261.478 202.944H261.42C261.093 202.944 260.827 203.209 260.827 203.537V211.709C260.827 212.036 261.093 212.302 261.42 212.302H261.478C261.805 212.302 262.071 212.036 262.071 211.709V203.537C262.071 203.209 261.805 202.944 261.478 202.944Z" fill="white"/>
<path d="M265.048 203.199H264.991C264.663 203.199 264.397 203.464 264.397 203.791V211.964C264.397 212.291 264.663 212.556 264.991 212.556H265.048C265.376 212.556 265.641 212.291 265.641 211.964V203.791C265.641 203.464 265.376 203.199 265.048 203.199Z" fill="white"/>
<path d="M268.682 203.389H268.625C268.297 203.389 268.031 203.655 268.031 203.982V212.154C268.031 212.482 268.297 212.747 268.625 212.747H268.682C269.009 212.747 269.275 212.482 269.275 212.154V203.982C269.275 203.655 269.009 203.389 268.682 203.389Z" fill="white"/>
<path d="M272.124 203.58H272.067C271.739 203.58 271.474 203.845 271.474 204.172V212.345C271.474 212.672 271.739 212.937 272.067 212.937H272.124C272.452 212.937 272.718 212.672 272.718 212.345V204.172C272.718 203.845 272.452 203.58 272.124 203.58Z" fill="white"/>
<path d="M275.566 203.708H275.508C275.181 203.708 274.915 203.973 274.915 204.3V212.473C274.915 212.8 275.181 213.066 275.508 213.066H275.566C275.893 213.066 276.159 212.8 276.159 212.473V204.3C276.159 203.973 275.893 203.708 275.566 203.708Z" fill="white"/>
<path d="M279.329 203.644H279.272C278.944 203.644 278.679 203.909 278.679 204.236V212.409C278.679 212.736 278.944 213.001 279.272 213.001H279.329C279.657 213.001 279.923 212.736 279.923 212.409V204.236C279.923 203.909 279.657 203.644 279.329 203.644Z" fill="white"/>
<path d="M283.472 203.708H283.415C283.087 203.708 282.821 203.973 282.821 204.3V212.473C282.821 212.8 283.087 213.066 283.415 213.066H283.472C283.8 213.066 284.065 212.8 284.065 212.473V204.3C284.065 203.973 283.8 203.708 283.472 203.708Z" fill="white"/>
<path d="M312.039 211.093H312.096C312.424 211.093 312.689 210.827 312.689 210.5V202.327C312.689 202 312.424 201.735 312.096 201.735H312.039C311.711 201.735 311.446 202 311.446 202.327V210.5C311.446 210.827 311.711 211.093 312.039 211.093Z" fill="white"/>
<path d="M308.566 211.856H308.623C308.951 211.856 309.217 211.591 309.217 211.264V203.091C309.217 202.764 308.951 202.499 308.623 202.499H308.566C308.239 202.499 307.973 202.764 307.973 203.091V211.264C307.973 211.591 308.239 211.856 308.566 211.856Z" fill="white"/>
<path d="M305.122 212.238H305.179C305.507 212.238 305.772 211.972 305.772 211.645V203.472C305.772 203.145 305.507 202.88 305.179 202.88H305.122C304.794 202.88 304.529 203.145 304.529 203.472V211.645C304.529 211.972 304.794 212.238 305.122 212.238Z" fill="white"/>
<path d="M301.552 212.492H301.609C301.937 212.492 302.202 212.227 302.202 211.9V203.727C302.202 203.4 301.937 203.135 301.609 203.135H301.552C301.224 203.135 300.958 203.4 300.958 203.727V211.9C300.958 212.227 301.224 212.492 301.552 212.492Z" fill="white"/>
<path d="M297.918 212.683H297.975C298.303 212.683 298.568 212.418 298.568 212.09V203.918C298.568 203.59 298.303 203.325 297.975 203.325H297.918C297.59 203.325 297.324 203.59 297.324 203.918V212.09C297.324 212.418 297.59 212.683 297.918 212.683Z" fill="white"/>
<path d="M294.475 212.875H294.533C294.86 212.875 295.126 212.61 295.126 212.283V204.11C295.126 203.783 294.86 203.517 294.533 203.517H294.475C294.148 203.517 293.882 203.783 293.882 204.11V212.283C293.882 212.61 294.148 212.875 294.475 212.875Z" fill="white"/>
<path d="M291.034 213.001H291.091C291.419 213.001 291.685 212.736 291.685 212.409V204.236C291.685 203.909 291.419 203.644 291.091 203.644H291.034C290.706 203.644 290.441 203.909 290.441 204.236V212.409C290.441 212.736 290.706 213.001 291.034 213.001Z" fill="white"/>
<path d="M287.271 212.937H287.329C287.656 212.937 287.922 212.672 287.922 212.345V204.172C287.922 203.845 287.656 203.58 287.329 203.58H287.271C286.944 203.58 286.678 203.845 286.678 204.172V212.345C286.678 212.672 286.944 212.937 287.271 212.937Z" fill="white"/>
<path d="M283.006 214.15C274.878 214.15 267.154 213.838 261.26 213.272C252.004 212.383 252.004 211.351 252.004 210.909C252.004 210.852 252.015 210.805 252.025 210.769L251.999 199.918C251.999 199.708 252.169 199.537 252.379 199.537C252.589 199.537 252.759 199.706 252.761 199.916L252.787 210.833C252.787 210.853 252.787 210.874 252.781 210.895C253.654 211.948 265.394 213.388 283.006 213.388C301.721 213.388 312.629 212.059 313.504 211.077C313.495 211.044 313.49 211.013 313.49 210.987L313.54 199.914C313.54 199.705 313.712 199.537 313.922 199.537H313.924C314.134 199.537 314.304 199.708 314.302 199.92L314.251 210.912C314.269 210.961 314.283 211.021 314.283 211.094C314.283 211.567 314.283 212.551 304.885 213.365C299.037 213.871 291.267 214.15 283.004 214.15H283.006Z" fill="black"/>
<path d="M283.258 202.942C274.994 202.942 267.223 202.663 261.377 202.158C251.98 201.345 251.979 200.361 251.979 199.888C251.979 199.416 251.98 198.432 261.377 197.619C267.223 197.113 274.995 196.834 283.258 196.834C291.521 196.834 299.293 197.113 305.14 197.619C314.537 198.432 314.537 199.416 314.537 199.888C314.537 200.361 314.537 201.345 305.14 202.158C299.293 202.663 291.523 202.942 283.258 202.942ZM252.771 199.888C253.744 200.867 264.637 202.182 283.257 202.182C301.877 202.182 312.771 200.869 313.743 199.888C312.769 198.91 301.877 197.595 283.257 197.595C264.637 197.595 253.744 198.91 252.771 199.888Z" fill="white"/>
<path d="M246.921 306.056L246.645 307.911C246.105 311.545 242.716 314.055 239.076 313.515L210.526 309.283C207.738 308.869 205.812 306.277 206.227 303.494L206.827 299.452C207.287 296.36 210.17 294.226 213.267 294.685L241.597 298.884C245.051 299.395 247.434 302.607 246.921 306.054V306.056Z" fill="black"/>
<path d="M240.068 313.97C239.72 313.97 239.369 313.944 239.019 313.892L210.469 309.66C207.478 309.217 205.405 306.426 205.849 303.438L206.449 299.397C206.687 297.802 207.532 296.393 208.829 295.432C210.127 294.47 211.723 294.072 213.321 294.309L241.651 298.508C243.422 298.772 244.985 299.707 246.05 301.143C247.115 302.579 247.559 304.344 247.296 306.111L247.02 307.966C246.744 309.825 245.759 311.464 244.248 312.583C243.021 313.49 241.566 313.969 240.067 313.969L240.068 313.97ZM212.431 295.006C209.856 295.006 207.592 296.892 207.204 299.51L206.604 303.551C206.222 306.123 208.005 308.528 210.582 308.909L239.132 313.141C240.79 313.387 242.449 312.973 243.797 311.975C245.145 310.977 246.022 309.515 246.269 307.857L246.544 306.002C246.777 304.434 246.385 302.87 245.441 301.597C244.496 300.324 243.111 299.496 241.541 299.262L213.212 295.063C212.95 295.023 212.689 295.006 212.431 295.006Z" fill="black"/>
<path d="M206.571 301.183C205.57 307.5 209.539 309.084 214.537 309.825L225.846 311.502L228.016 296.901L216.707 295.224C211.707 294.483 207.65 295.309 206.569 301.183H206.571Z" fill="white"/>
<path d="M217.81 308.524C217.791 308.524 217.774 308.524 217.755 308.521L215.125 308.131C211.39 307.577 208.721 304.633 209.178 301.569C209.209 301.361 209.402 301.223 209.61 301.249C209.818 301.28 209.962 301.472 209.931 301.68C209.537 304.33 211.917 306.885 215.236 307.377L217.866 307.767C218.074 307.798 218.218 307.991 218.187 308.198C218.159 308.387 217.996 308.522 217.81 308.522V308.524Z" fill="white"/>
<path d="M240.004 313.96C239.652 313.96 239.298 313.934 238.944 313.882L211.423 309.803C207.907 309.281 205.469 306 205.991 302.487L206.324 300.246C206.595 298.423 207.561 296.816 209.043 295.719C210.524 294.623 212.348 294.167 214.171 294.438L241.729 298.522C243.479 298.782 245.023 299.705 246.078 301.126C247.133 302.546 247.57 304.289 247.31 306.037L247.034 307.892C246.755 309.771 245.759 311.429 244.232 312.56C242.992 313.478 241.522 313.96 240.006 313.96H240.004ZM213.153 295.122C210.16 295.122 207.53 297.315 207.079 300.357L206.746 302.598C206.286 305.695 208.434 308.59 211.536 309.049L239.057 313.128C240.738 313.376 242.414 312.959 243.779 311.949C245.145 310.939 246.033 309.458 246.283 307.781L246.558 305.926C246.789 304.379 246.402 302.835 245.469 301.58C244.536 300.324 243.169 299.506 241.619 299.276L214.062 295.191C213.756 295.146 213.455 295.124 213.156 295.124L213.153 295.122Z" fill="black"/>
<path d="M214.211 284.746L214.877 286.5C216.182 289.935 214.452 293.778 211.01 295.08L184.023 305.304C181.388 306.302 178.44 304.978 177.441 302.347L175.989 298.527C174.879 295.605 176.352 292.336 179.278 291.228L206.057 281.084C209.322 279.847 212.972 281.487 214.209 284.746H214.211Z" fill="white"/>
<path d="M176.611 300.159C178.824 306.161 183.064 305.609 187.79 303.819L198.48 299.769L193.236 285.967L182.546 290.017C177.82 291.806 174.682 294.507 176.611 300.159Z" fill="black"/>
<path d="M182.554 305.413C181.652 305.413 180.776 305.262 179.961 304.89C178.337 304.15 177.124 302.647 176.255 300.291C176.255 300.287 176.253 300.286 176.251 300.282C174.033 293.778 178.378 291.19 182.412 289.662L193.102 285.614C193.298 285.537 193.518 285.638 193.593 285.834L198.837 299.634C198.912 299.83 198.813 300.05 198.617 300.125L187.927 304.174C186.218 304.822 184.337 305.413 182.556 305.413H182.554ZM176.97 300.033C177.766 302.186 178.845 303.549 180.275 304.199C182.453 305.19 185.227 304.384 187.654 303.464L197.987 299.549L193.013 286.459L182.681 290.372C177.093 292.489 175.384 295.378 176.97 300.033Z" fill="black"/>
<path d="M182.771 305.74C181.87 305.74 180.974 305.55 180.129 305.17C178.559 304.465 177.356 303.191 176.746 301.583L175.941 299.464C174.589 295.908 176.388 291.919 179.948 290.569L193.449 285.456C193.645 285.381 193.865 285.48 193.94 285.676C194.014 285.872 193.915 286.092 193.719 286.166L180.219 291.28C177.051 292.48 175.452 296.029 176.652 299.194L177.457 301.313C177.997 302.731 179.057 303.856 180.441 304.478C181.827 305.099 183.371 305.146 184.792 304.608L198.932 299.251C199.128 299.177 199.349 299.276 199.423 299.471C199.498 299.667 199.399 299.887 199.203 299.962L185.062 305.318C184.318 305.6 183.545 305.74 182.773 305.74H182.771Z" fill="white"/>
<path d="M199.066 299.986C198.912 299.986 198.768 299.892 198.711 299.74C198.636 299.544 198.735 299.324 198.931 299.25L210.804 294.753C212.393 294.152 213.651 292.969 214.349 291.422C215.046 289.875 215.098 288.15 214.494 286.563L213.828 284.808C212.681 281.79 209.291 280.266 206.266 281.411L193.718 286.164C193.522 286.241 193.302 286.14 193.227 285.944C193.152 285.749 193.251 285.529 193.447 285.454L205.995 280.701C209.411 279.405 213.243 281.129 214.539 284.54L215.206 286.294C215.88 288.07 215.821 290.001 215.042 291.734C214.262 293.466 212.853 294.791 211.073 295.465L199.2 299.962C199.155 299.979 199.11 299.986 199.065 299.986H199.066Z" fill="black"/>
<path d="M180.936 307.36L181.076 305.489C181.352 301.826 184.551 299.078 188.22 299.355L217.003 301.519C219.813 301.73 221.921 304.176 221.709 306.984L221.402 311.058C221.166 314.175 218.446 316.512 215.324 316.278L186.763 314.13C183.281 313.868 180.672 310.838 180.934 307.362L180.936 307.36Z" fill="white"/>
<path d="M221.534 309.314C222.077 302.941 218.004 301.647 212.964 301.268L201.564 300.41L200.454 315.131L211.854 315.988C216.893 316.368 220.882 315.25 221.534 309.314Z" fill="black"/>
<path d="M213.592 316.439C212.997 316.439 212.406 316.411 211.825 316.366L200.425 315.509C200.215 315.493 200.057 315.311 200.075 315.101L201.185 300.381C201.2 300.171 201.383 300.015 201.593 300.031L212.992 300.888C215.738 301.095 218.778 301.58 220.511 303.612C221.668 304.968 222.126 306.844 221.913 309.345C221.913 309.349 221.913 309.35 221.913 309.354C221.262 315.263 217.407 316.437 213.592 316.437V316.439ZM200.862 314.781L211.883 315.609C217.846 316.059 220.617 314.163 221.156 309.278C221.35 306.991 220.95 305.299 219.931 304.105C218.38 302.286 215.525 301.841 212.935 301.647L201.913 300.819L200.86 314.781H200.862Z" fill="black"/>
<path d="M218.527 309.468C218.517 309.468 218.508 309.468 218.498 309.468C218.288 309.453 218.13 309.271 218.147 309.061C218.244 307.776 217.717 306.522 216.66 305.526C215.583 304.511 214.086 303.883 212.443 303.76L209.792 303.561C209.582 303.546 209.424 303.364 209.442 303.154C209.457 302.945 209.641 302.787 209.849 302.804L212.5 303.003C214.317 303.14 215.979 303.84 217.183 304.973C218.409 306.128 219.021 307.601 218.907 309.118C218.891 309.317 218.725 309.47 218.527 309.47V309.468Z" fill="white"/>
<path d="M214.971 316.61C214.796 316.61 214.619 316.603 214.442 316.589L186.66 314.5C183.017 314.227 180.278 311.045 180.552 307.407L180.693 305.536C180.835 303.643 181.707 301.917 183.151 300.679C184.593 299.44 186.431 298.837 188.329 298.98L216.073 301.065C217.79 301.193 219.355 301.983 220.477 303.288C221.6 304.592 222.148 306.255 222.018 307.97L221.848 310.23C221.709 312.067 220.862 313.74 219.464 314.942C218.2 316.028 216.623 316.61 214.971 316.61ZM187.788 299.721C184.497 299.721 181.702 302.264 181.451 305.595L181.31 307.466C181.067 310.684 183.493 313.501 186.716 313.743L214.497 315.832C216.133 315.955 217.721 315.434 218.966 314.365C220.21 313.296 220.965 311.808 221.088 310.173L221.258 307.913C221.373 306.4 220.889 304.933 219.898 303.783C218.907 302.633 217.528 301.936 216.014 301.824L188.27 299.738C188.109 299.726 187.948 299.719 187.788 299.719V299.721Z" fill="black"/>
<path d="M230.77 30.2846C224.521 23.9273 224.651 13.7106 231.06 7.46411C237.468 1.21592 247.728 1.306 253.977 7.66159C260.226 14.0172 260.095 24.2357 253.687 30.4821C247.278 36.7303 237.019 36.6402 230.77 30.2846Z" fill="black"/>
<path d="M234.989 15.4133C235.749 14.3826 236.877 13.7365 238.166 13.5962C239.128 13.4905 240.044 13.6984 240.887 14.2129C241.312 14.4727 241.71 14.8053 242.071 15.202C242.336 14.736 242.65 14.3255 243.007 13.979C243.717 13.2931 244.565 12.8929 245.528 12.7872C246.817 12.6452 248.059 13.0315 249.027 13.8734C249.983 14.7048 250.594 15.9174 250.746 17.2876C250.903 18.6976 250.521 20.0471 249.542 21.5316C248.668 22.8602 247.353 24.2564 245.832 25.8726C245.311 26.4252 244.723 27.0505 244.112 27.714C243.951 27.8889 243.733 28.0015 243.495 28.0275C243.257 28.0535 243.02 27.9928 242.824 27.856C242.083 27.3398 241.37 26.8565 240.742 26.4304C238.903 25.1832 237.314 24.1057 236.167 22.9988C234.887 21.762 234.217 20.5286 234.061 19.1168C233.908 17.7466 234.238 16.4319 234.989 15.4116V15.4133Z" fill="white"/>
<path d="M294.874 34.1305C300.678 28.3351 300.678 18.9388 294.874 13.1434C289.07 7.34801 279.66 7.348 273.856 13.1434C268.052 18.9388 268.052 28.3351 273.856 34.1305C279.66 39.9259 289.07 39.9259 294.874 34.1305Z" fill="white"/>
<path d="M284.366 38.8575C275.961 38.8575 269.124 32.029 269.124 23.6363C269.124 15.2436 275.963 8.41687 284.366 8.41687C292.77 8.41687 299.608 15.2454 299.608 23.6363C299.608 32.0273 292.77 38.8575 284.366 38.8575ZM284.366 9.17732C276.381 9.17732 269.886 15.6646 269.886 23.6363C269.886 31.6081 276.383 38.0971 284.366 38.0971C292.35 38.0971 298.847 31.6098 298.847 23.6363C298.847 15.6628 292.35 9.17732 284.366 9.17732Z" fill="black"/>
<path d="M288.379 25.1174C287.546 25.1174 286.81 25.5193 286.335 26.1342L281.316 24.1837C281.321 24.1179 281.335 24.0538 281.335 23.9862C281.335 23.8615 281.316 23.7402 281.299 23.6207L286.443 21.2441C286.918 21.7863 287.605 22.1362 288.379 22.1379C289.81 22.1414 290.974 20.9721 290.974 19.5344C290.974 18.0966 289.81 16.9239 288.38 16.9204C286.951 16.917 285.785 18.0862 285.785 19.524C285.785 19.6487 285.804 19.77 285.822 19.8895L280.678 22.2661C280.203 21.7239 279.516 21.374 278.742 21.3723C277.311 21.3688 276.146 22.5381 276.146 23.9758C276.146 25.4136 277.311 26.5863 278.74 26.5898C279.573 26.5898 280.308 26.1879 280.784 25.573L285.803 27.5235C285.797 27.5893 285.783 27.6534 285.783 27.7209C285.783 29.1587 286.948 30.3314 288.377 30.3349C289.806 30.3384 290.972 29.1691 290.972 27.7313C290.972 26.2936 289.808 25.1208 288.379 25.1174Z" fill="black"/>
<path d="M265.309 66.4764C266.726 58.3435 274.484 52.8627 282.638 54.2312C290.792 55.5997 296.251 63.3029 294.834 71.4341C293.416 79.5669 285.658 85.0477 277.505 83.6793C269.351 82.3108 263.892 74.6075 265.309 66.4764Z" fill="black"/>
<path d="M276.332 76.0643L274.148 64.2331C274.037 63.6303 274.599 63.1193 275.191 63.2856L288.124 66.9372C288.781 67.1225 288.944 67.9782 288.399 68.3922L277.652 76.5719C277.16 76.946 276.447 76.6706 276.334 76.0643H276.332Z" fill="white"/>
<path d="M256.541 109.256C259.526 100.44 269.118 95.6698 277.964 98.6007C286.81 101.532 291.562 111.054 288.576 119.869C285.59 128.685 275.998 133.455 267.153 130.524C258.307 127.593 253.555 118.071 256.541 109.256Z" fill="white"/>
<path d="M272.47 131.765C270.666 131.765 268.834 131.48 267.035 130.885C262.66 129.435 259.121 126.374 257.07 122.265C255.021 118.156 254.706 113.493 256.182 109.135C259.23 100.136 269.056 95.2472 278.086 98.2405C282.461 99.6904 286 102.751 288.051 106.86C290.1 110.969 290.415 115.632 288.939 119.99C286.498 127.195 279.713 131.763 272.47 131.765ZM272.647 98.1209C265.722 98.1209 259.235 102.49 256.902 109.377C255.49 113.543 255.792 118 257.75 121.925C259.709 125.852 263.09 128.776 267.273 130.162C275.907 133.024 285.301 128.35 288.215 119.746C289.626 115.58 289.326 111.123 287.367 107.198C285.409 103.271 282.026 100.347 277.845 98.9611C276.124 98.3912 274.372 98.1192 272.647 98.1192V98.1209Z" fill="black"/>
<path d="M281.183 111.833C281.013 116.043 273.884 125.885 272.179 128.182C272.004 128.418 271.646 128.404 271.492 128.155C270.408 126.415 266.867 120.599 265.005 115.89C264.266 114.023 263.793 112.329 263.841 111.134C264.036 106.353 268.074 102.633 272.862 102.827C277.651 103.021 281.375 107.054 281.183 111.835V111.833Z" fill="black"/>
<path d="M275.318 114.284C276.867 112.737 276.867 110.228 275.318 108.681C273.768 107.134 271.256 107.134 269.707 108.681C268.157 110.228 268.157 112.737 269.707 114.284C271.256 115.831 273.768 115.831 275.318 114.284Z" fill="white"/>
</g>
<defs>
<clipPath id="clip0_2506_5236">
<rect width="316" height="317" fill="white"/>
</clipPath>
</defs>
</svg>
